<?xml version="1.0" encoding="utf-8"?>
<!-- Generator: Adobe Illustrator 25.0.0, SVG Export Plug-In . SVG Version: 6.00 Build 0)  -->
<svg version="1.1" xmlns="http://www.w3.org/2000/svg" xmlns:xlink="http://www.w3.org/1999/xlink" x="0px" y="0px"
	 viewBox="0 0 1400 1400" style="enable-background:new 0 0 1400 1400;" xml:space="preserve">
<style type="text/css">
	.st0{fill:#BFBAB4;}
	.st1{fill:#0F5BA4;}
	.st2{fill:#145CA5;stroke:#FFFFFF;stroke-width:3;stroke-miterlimit:10;}
	.st3{fill:#BFBAB6;}
	.st4{fill:#0859A3;}
	.st5{fill:#0859A3;stroke:#0859A3;stroke-width:18;stroke-miterlimit:10;}
	.st6{fill:#EB8949;}
	.st7{display:none;}
</style>
<g id="Layer_4">
</g>
<g id="Layer_1">
	<g id="Layer_3">
		<g>
			<polygon class="st0" points="122.9,428.1 1285.2,428.1 711,1177.2 			"/>
			<path class="st1" d="M1260.9,440.1l-550,717.5L147.6,440.1H1260.9 M1309.5,416.1H98.3l612.9,780.6L1309.5,416.1L1309.5,416.1z"/>
		</g>
		<g>
			<g>
				<path class="st2" d="M575.8,220.6c-18.1,4-36.7,8.9-55.8,14.7c-1,3.7-2.1,7.3-3.1,11c11.6-3.5,23.1-6.6,34.3-9.4
					c-1.1,5.1-2.2,10.1-3.2,15.2c-11.6,2.8-23.4,6-35.3,9.4c-2.2,8.3-4.5,16.6-6.6,24.9c-13.1,3.6-26.3,7.5-39.9,11.7
					c7.3-22.5,15-45.1,23.1-67.6c31.4-11.2,61.1-19.9,89.3-26.3C577.7,209.6,576.8,215.1,575.8,220.6z"/>
				<path class="st2" d="M659.2,259.4c-23.6,1.4-47.4,4.3-71.5,8.5c0.6-5.5,1.3-10.9,1.9-16.4c6-1.1,12-2.1,17.9-3
					c0.9-11.5,1.9-23.1,2.9-34.6c-5.5,0.9-11,1.9-16.6,3c0.7-5.5,1.4-10.9,2.2-16.4c20.8-4.2,41.2-7,61.4-8.4
					c0.1,5.5,0.2,10.9,0.4,16.4c-5.3,0.4-10.7,0.8-16.1,1.4c-0.2,11.5-0.3,23.1-0.4,34.6c5.8-0.6,11.6-1,17.4-1.4
					C658.9,248.5,659.1,253.9,659.2,259.4z"/>
				<path class="st2" d="M762.3,262c-1.3-3.9-2.6-7.8-3.9-11.7c-4.7-2.9-9.4-5.7-14-8.5c-8.7-0.7-17.3-1.3-25.8-1.6
					c1,6.3,2.1,12.6,3.1,18.8c-11.6-0.5-23.1-0.7-34.6-0.6c-2-22.4-3.9-44.9-5.8-67.3c23.1-0.3,46.5,1.2,70.5,4.5
					c8,4.6,16.1,9.4,24.5,14.3c1.4,3.8,2.7,7.6,4.1,11.5c-4.3,3.3-8.7,6.7-13.2,10.2c7.2,4.8,14.5,9.7,22,14.7
					c2.1,6.7,4.2,13.4,6.2,20C784.2,264.7,773.2,263.2,762.3,262z M715.7,222.5c9.4,0.4,18.9,1.1,28.5,2c2.7-1.8,5.3-3.6,8-5.4
					c-0.4-1.4-0.7-2.8-1.1-4.2c-4.1-2.1-8.2-4.2-12.2-6.2c-8.6-0.8-17.2-1.4-25.7-1.8C714.1,212.1,714.9,217.3,715.7,222.5z"/>
				<path class="st2" d="M912.2,292.7c-34.4-9.8-67.2-17.5-98.6-23.1c-7.7-22.5-15.6-44.9-23.7-67.4c27.3,5.5,56.2,13.1,86.9,22.9
					c3,5.5,5.9,11,8.8,16.4c-19.1-5.8-37.5-10.9-55.3-15.2c1.2,2.9,2.5,5.7,3.7,8.6c14.7,3.5,29.8,7.5,45.3,12
					c2.8,5.5,5.5,10.9,8.3,16.4c-15.9-4.5-31.5-8.5-46.6-12.1c1.4,3.3,2.7,6.5,4.1,9.8c19,4.3,38.6,9.5,58.9,15.3
					C906.7,281.7,909.4,287.2,912.2,292.7z"/>
			</g>
		</g>
		<g>
			<path class="st3" d="M1146.5,852.3c-15.2-10.1-56.9-36.2-119.5-62.6c-46-19.3-93.7-34.8-141.8-45.8C825.1,730,764.1,723,704,723
				c-60.1,0-119.5,6.6-176.6,19.7c-45.7,10.5-90,25.1-131.7,43.5c-54.5,24-89.8,47.8-104.1,58.3l-99-136.4
				c20.1-14.8,85.1-60.1,172.4-95.5l3.8-1.5l1.2-3.9c3.9-12.8,9.4-30.6,13.4-43.3l24.2,33.4l5.9-1.9
				c54.1-17.3,111.5-29.9,170.4-37.3l3.8-0.5l31.6-45.5l-0.8,18.5l6.2,2c2.2,0.7,53.5,16.9,79.3,16.9c68.4,0,139.4,7,211,20.7
				c57.4,11,115.2,26.3,172.1,45.5c85.4,28.9,142.6,58,155.2,64.6l17.9,44L1146.5,852.3z"/>
			<path class="st4" d="M612,537.6l10.1,3.2c5.6,1.8,55.3,17.3,81.9,17.3c67.7,0,138,6.9,208.9,20.4c56.9,10.9,114.3,26,170.7,45
				c80,27,135.4,54.3,152,62.9l14.8,36.2L1145,841.1c-19.1-12.2-58.7-35.7-114.8-59.3c-46.4-19.5-94.6-35.1-143.2-46.3
				c-60.8-14-122.4-21.1-183.1-21.1c-60.7,0-120.8,6.7-178.5,20c-46.2,10.6-91,25.4-133.2,44c-47.8,21-81.2,42-98.8,54.2L204.5,710
				c25.3-18,85.5-57.8,163.8-89.5l7.5-3l2.4-7.7c2.4-7.9,5.4-17.7,8.3-27l10.6,14.7l7.2,10l11.7-3.8
				c53.6-17.2,110.4-29.6,168.9-36.9l7.5-0.9l4.3-6.2L612,537.6 M629,483.3l-46.2,66.6c-65.1,8.2-122.4,21.7-172,37.6l-30.4-42.1
				c-0.6,1-18.5,59.4-18.5,59.4c-107.9,43.6-181,101.6-181,101.6l109,150.2c0,0,153.5-125,414.1-125s443.9,132,443.9,132L1270,726
				l-21.1-51.7c0,0-242.8-133.2-545-133.2c-24.7,0-76.7-16.5-76.7-16.5L629,483.3L629,483.3z"/>
		</g>
		<g>
			<g>
				<path class="st5" d="M286.6,361c12.3-21.3,24.4-42.2,36.1-62.9c18.5-8.2,37.1-15.7,55.9-22.5c27.9,20.9,61.2,42.3,100.2,65.7
					c-8.5,47.1-16.8,94.2-24.8,141.2c-25.7,30.6-52.8,62.4-81.4,95.8c-59.7,34.7-121.1,75.6-183.8,123.6
					C181.6,692,175,682,169,671.8C208.3,567.2,247.6,463.6,286.6,361z"/>
				<path class="st5" d="M452.9,336.4c52.3-20.1,104.3-35,155.8-44.9c1.2,69.6,4.3,139.1,9.3,208.5c-10.1,17.6-20.7,35.4-31.7,53.4
					c-62.4,9.5-124.8,25.1-187.1,47.1c-3.8-4.4-7.6-8.7-11.3-13.1C410.1,503.3,431.7,419.6,452.9,336.4z"/>
				<g>
					<path class="st4" d="M613.1,505c3.4-72.3,7.1-144.5,11.2-216.8c40.8-4.4,81.6-5.6,122.3-3.9c12.8,68.9,27.9,138.1,45.4,207.9
						c-0.8,20-1.7,40-2.8,60.1c-58.7-4.2-117.7-3-176.8,3.8C612.6,539,612.8,522,613.1,505z"/>
					<path class="st4" d="M739.8,292.4c11.9,66,25.8,132.2,41.9,198.9c-0.9,17.3-1.8,34.5-2.9,51.7c-51.7-3.1-103.6-2-155.5,3.3
						c0-14.2,0.1-28.5,0.2-42.7c2.5-69.3,5.4-138.7,8.7-208C668,292.3,703.9,291.2,739.8,292.4 M753.2,276.2
						c-4.8-0.2-9.6-0.5-14.3-0.6c-35.2-1.2-70.4-0.1-105.6,3.3c-5.6,0.5-11.1,1.1-16.7,1.8c-0.4,5.8-0.8,11.5-1.1,17.3
						c-4.5,69.5-8.8,139-12.7,208.4c0,0.1,0,0.1,0,0.2c0,0.1,0,0.1,0,0.2c-0.4,14.2-0.7,28.5-1.1,42.7c-0.1,5.4-0.2,10.8-0.4,16.3
						c7.1-0.9,14.1-1.7,21.2-2.4c52.8-5.5,105.5-6.5,158-3.3c6.4,0.4,12.8,0.9,19.1,1.4c0.2-4.9,0.4-9.7,0.6-14.6
						c0.7-17.2,1.4-34.5,1.9-51.7c0-0.7,0-1.4,0.1-2c-0.2-0.7-0.4-1.4-0.5-2.1c-17.4-67.1-32.5-133.7-45.6-200
						C755.1,286.1,754.2,281.2,753.2,276.2L753.2,276.2z"/>
				</g>
				<path class="st5" d="M806.2,554c-4.8-47.9-9.5-95.8-14.1-143.7c-11.7-41.7-22.3-83.1-32-124.4c50.4,4.3,100.9,13.4,151.3,27.2
					c15.7,43.4,32.3,87.2,49.9,131.5c12.7,49.5,25.6,99.2,38.8,149.1C935.9,573.8,871.1,560.6,806.2,554z"/>
				<g>
					<path class="st4" d="M1031.8,604.8c-36.3-99.4-69.6-196.9-100.1-292.9c10.2-18.2,19.3-36.3,27.2-54.5c10.5,3.1,21,6.4,31.5,9.9
						c15.2,22.2,31.1,44.9,47.5,68.2c-0.6-13.4-1.4-27-2.4-40.5c25.3,23.1,51.4,47.5,78.4,73.5c45.7,111.8,92.8,225.8,141.3,342.2
						c-23.6-13.7-47.5-26.5-71.4-38.3c-26-13.2-52.1-25.3-78.4-36.2C1080.8,624.7,1056.3,614.2,1031.8,604.8z"/>
					<path class="st4" d="M989.2,275.1c18.5,26.8,37.8,54.3,58,82.7c-0.6-15.7-1.5-31.5-2.7-47.4c20.7,18.9,42,38.8,63.9,59.7
						c42.8,106.2,87,214.3,132.3,324.5c-20.2-11.4-40.5-22.1-60.9-32.1c-25.7-13-51.5-24.9-77.5-35.6c-21-9.8-42.1-18.9-63.1-27.2
						c-35.5-95.9-68.3-190-98.4-282.6c9.1-16.5,17.3-32.9,24.6-49.4C973.3,269.9,981.3,272.5,989.2,275.1 M991.5,259.5
						c-2.9-1-5.7-1.9-8.6-2.9c-7.8-2.6-15.6-5-23.4-7.3c-2.3-0.7-4.6-1.4-6.9-2c-0.8,1.8-1.6,3.6-2.3,5.3
						c-7.4,16.7-15.7,33.3-25,49.9c-0.8,1.4-1.6,2.9-2.4,4.3c0.7,2.3,1.4,4.6,2.1,6.9c28.6,91.9,59.7,185,93.6,279.9
						c1.9,5.4,3.9,10.9,5.9,16.4c6.4,2.4,12.8,4.9,19.2,7.4c21.4,8.5,42.7,17.7,64.1,27.7c0.2,0.1,0.5,0.2,0.7,0.3
						c0.2,0.1,0.5,0.2,0.7,0.3c26.4,11.1,52.6,23.2,78.7,36.5c0.1,0,0.1,0.1,0.2,0.1c0.1,0,0.1,0.1,0.2,0.1
						c20.7,10.3,41.4,21.3,61.9,33c6.6,3.8,13.2,7.6,19.8,11.5c-2.8-6.7-5.6-13.3-8.4-20c-47-111.7-92.8-221.2-137.2-328.7
						c-1.6-3.9-3.2-7.7-4.8-11.5c-3.4-3.3-6.8-6.6-10.1-9.8c-21.6-20.9-42.7-40.8-63.2-59.7c-6.5-6-12.9-11.9-19.3-17.7
						c0.4,6.1,0.8,12.1,1.2,18.1c0.3,5.2,0.6,10.4,0.8,15.5c-10.1-14.4-20-28.7-29.6-42.7C996.5,266.8,994,263.1,991.5,259.5
						C991.5,259.5,991.5,259.5,991.5,259.5z"/>
				</g>
			</g>
		</g>
		<g>
			<g>
				<g>
					<path class="st6" d="M173,662.4c36.7-107.8,74-215.1,111.8-321.8c11.3-17.2,22.4-34,33.2-50.7c20.7-9.2,41.7-17.6,62.8-25.2
						c18.3,18.8,39.4,37.7,63.4,57.1c-25,95.5-50.9,191.7-77.7,288.7c-56.5,25.2-113.2,55.8-170,91.8
						C187.9,689.2,180,675.9,173,662.4z M257,593.6c19.4-11.7,38.8-22.8,58.1-33.2c21.2-70.1,42.3-139.9,63.1-209.3
						c-6.6-5.6-12.9-11.1-19-16.7c-7.1,2.5-14.1,5.1-21.1,7.7c0,0,0,0.1-0.1,0.1C311,425.5,284,509.3,257,593.6z"/>
					<path class="st4" d="M318.3,297.9c18.7-8.3,37.5-15.9,56.5-22.8c17.5,17.6,37.5,35.3,60.1,53.5
						c-24.7,91.9-50.3,184.4-76.7,277.6c-50.8,23.3-101.8,50.8-152.8,82.9c-7.8-11.9-14.9-23.9-21.3-36.1
						c35.2-105.2,71.1-210.2,107.5-314.5C300.7,324.9,309.6,311.3,318.3,297.9 M243.6,609.4c26.4-16.3,52.7-31.3,79-45.2
						c21.9-73.9,43.6-147.5,65-220.6c-7.7-6.6-15.1-13.2-22.1-19.7c-9.3,3.2-18.5,6.6-27.7,10.1c-2.2,3-4.4,6.1-6.7,9.2
						C302,431.3,272.8,520.1,243.6,609.4 M317.8,281.9c-2.9,4.4-5.8,8.9-8.7,13.3c-8.8,13.5-17.8,27.2-26.9,41.1
						c-1.4,2.1-2.8,4.2-4.1,6.3c-0.7,1.9-1.4,3.8-2,5.6c-37.9,105.5-75.4,211.6-112.3,318.1c-0.6,1.8-1.3,3.7-1.9,5.5
						c0.5,0.9,0.9,1.8,1.4,2.7c6.3,12,13.2,23.9,20.8,35.6c1.2,1.8,2.4,3.7,3.6,5.5c4.3-2.8,8.6-5.5,12.9-8.2
						c51.7-32.5,103.5-60.5,155-84c6.5-3,13-5.9,19.4-8.7c1.4-5.4,2.9-10.8,4.3-16.1c24.8-92.4,48.8-184.1,72-275.3
						c0.7-2.8,1.4-5.5,2.1-8.3c-1.5-1.2-2.9-2.4-4.4-3.6c-22.6-18.6-42.5-36.7-59.9-54.7c-0.8-0.8-1.6-1.7-2.4-2.5
						c-1.6,0.6-3.1,1.1-4.7,1.7c-18.6,6.6-37.1,14-55.4,21.9C323.7,279.3,320.7,280.6,317.8,281.9
						C317.8,281.9,317.8,281.9,317.8,281.9z M270.2,578c24.2-76.8,48.3-153.2,72.5-229.3c3.4-1.3,6.8-2.5,10.2-3.7
						c5.1,4.6,10.4,9.2,15.9,13.8c-20.1,65.6-40.4,131.5-60.9,197.8C295.3,563.4,282.8,570.5,270.2,578L270.2,578z"/>
				</g>
				<g>
					<path class="st6" d="M401.2,596.9c-4-4.7-8-9.4-11.9-14.1c22.2-84.6,43.8-168.7,64.8-252.4c5.6-4.2,11.1-8.4,16.5-12.5
						c46-13,92.2-22.1,138.6-27.3c4,2.3,7.9,4.6,12,7c-6.2,78.3-12.6,156.7-19.2,235.1c-5,7.5-10.1,15.1-15.2,22.7
						C524.7,563.1,462.7,576.9,401.2,596.9z M532.1,495.2c2-2.6,3.9-5.1,5.9-7.7c5.6-38.3,11.1-76.6,16.5-114.8
						c-1.1-1.7-2.2-3.3-3.3-5c-16.5,2.8-33,6.1-49.5,9.9c-1.4,2-2.8,4.1-4.2,6.1c-8.1,39.8-16.3,79.7-24.7,119.7
						c0.9,1.4,1.8,2.8,2.7,4.2C494.5,502.9,513.3,498.8,532.1,495.2z"/>
					<path class="st4" d="M470.7,326.1c44.9-12.7,90.1-21.6,135.4-26.8c2.1,1.2,4.3,2.5,6.5,3.7c-6.8,76.2-13.7,152.5-20.8,228.8
						c-3.5,5.3-7.1,10.5-10.6,15.8c-57.7,7.6-115.2,20.4-172.2,38.5c-2.8-3.3-5.5-6.6-8.2-9.8c20.8-81.4,41-162.5,60.6-243.1
						C464.3,330.9,467.5,328.5,470.7,326.1 M468.4,517.8c22.7-5.9,45.4-10.9,68.1-15.1c3.8-4.9,7.5-9.7,11.2-14.6
						c5.5-39.9,10.8-79.8,16.2-119.6c-2.2-3.4-4.5-6.8-6.6-10.2c-19.6,3.2-39.2,7.1-58.7,11.7c-3.1,4.5-6.2,9-9.3,13.5
						c-8.8,41.6-17.7,83.3-26.8,125.1C464.4,511.7,466.4,514.8,468.4,517.8 M470.8,309.6c-1.4,1-2.7,2.1-4.1,3.1
						c-3.1,2.4-6.3,4.8-9.4,7.2c-3.3,2.5-6.7,5.1-10,7.7c-0.9,3.6-1.9,7.2-2.8,10.8c-21,81.2-42.5,162.9-64.8,245
						c-0.5,2-1.1,4-1.6,5.9c0.9,1.1,1.8,2.2,2.8,3.4c2.7,3.2,5.4,6.5,8.1,9.7c1.5,1.8,3,3.5,4.5,5.3c3.6-1.2,7.3-2.4,10.9-3.6
						c57.9-18.5,116.3-31.7,174.8-39.4c4.5-0.6,8.9-1.1,13.4-1.7c2.3-3.4,4.6-6.7,6.8-10c3.5-5.2,7-10.4,10.5-15.6
						c0.8-1.3,1.7-2.5,2.5-3.8c0.1-1.3,0.2-2.7,0.3-4c5.7-76.1,11.2-152.1,16.6-228.2c0.2-3.1,0.4-6.1,0.7-9.2
						c-2.4-1.4-4.8-2.9-7.2-4.3c-2.1-1.3-4.3-2.5-6.4-3.8c-1.3-0.8-2.5-1.5-3.8-2.3c-1.6,0.2-3.2,0.3-4.8,0.5
						c-44.5,5-88.8,13.8-132.9,26.1C473.5,308.8,472.1,309.2,470.8,309.6L470.8,309.6z M483.6,497.4c7.5-37.5,14.9-74.9,22.2-112.3
						c13.1-2.9,26.2-5.5,39.3-7.8c-5.5,36.6-11.1,73.2-16.8,109.8c-0.2,0.2-0.4,0.5-0.5,0.7C513.1,490.6,498.4,493.8,483.6,497.4
						C483.6,497.4,483.6,497.4,483.6,497.4z"/>
				</g>
				<g>
					<path class="st6" d="M620.9,552.3c5.9-88.4,11.5-176.8,17-265.1c21.8-1.8,43.7-2.6,65.5-2.6c0.6,65,1.3,130,1.9,195
						c21.2,0,42.4,0.8,63.6,2.3c1.6,23.1,3.3,46.2,4.9,69.3C722.9,547.4,671.8,547.8,620.9,552.3z"/>
					<path class="st4" d="M695.1,293c0,65,0.1,130,0.1,195c21.4-0.2,42.8,0.3,64.2,1.6c1.1,17.4,2.1,34.9,3.2,52.3
						c-43.5-2.7-87-2.3-130.5,1c4.7-82.7,9.2-165.3,13.6-247.9C662.2,293.9,678.7,293.2,695.1,293 M711.6,276.2
						c-5.5-0.1-11-0.1-16.4,0c-16.2,0.2-32.3,0.8-48.5,1.9c-5.5,0.4-11,0.8-16.4,1.3c-0.4,5.6-0.8,11.3-1.2,16.9
						c-5.9,82.8-12,165.6-18.3,248.5c-0.4,5.7-0.9,11.3-1.3,16.9c7.2-0.7,14.5-1.4,21.7-1.9c44.1-3.4,88.3-3.7,132.5-1
						c7.2,0.4,14.5,1,21.7,1.6c-0.5-5.6-0.9-11.3-1.4-16.9c-1.4-17.5-2.8-34.9-4.2-52.4c-0.5-5.6-0.9-11.3-1.3-16.9
						c-6.7-0.5-13.4-1-20.1-1.4c-14.4-0.9-28.7-1.4-43.1-1.5c-1.2-59.4-2.3-118.8-3.4-178.2C711.8,287.4,711.7,281.8,711.6,276.2
						C711.6,276.2,711.6,276.2,711.6,276.2z"/>
				</g>
				<g>
					<path class="st6" d="M933.9,576.4c-3.7-18.4-7.3-36.7-10.9-55.1c-19.6-4.7-39.2-8.7-58.9-12.1c2.8,18.1,5.6,36.2,8.5,54.3
						c-25.6-4.5-51.2-8.1-76.8-10.5c-4.4-48.2-8.7-96.3-12.9-144.4c3.1-39.8,5.4-79.7,7-119.6c43.1,4.6,86.2,12.5,129,23.9
						c16.3,44.1,33.7,88.7,52,133.9c13,50.3,26.3,100.8,39.8,151.5C985.2,590,959.6,582.7,933.9,576.4z M908.1,450.1
						c-1.1-5.5-2.2-10.9-3.3-16.4c-8.7-20.4-17.1-40.6-25.2-60.7c-8.5-1.5-17-2.9-25.5-4.2c-0.8,17.9-1.7,35.7-2.9,53.6
						c0.9,5.6,1.7,11.2,2.6,16.9C871.9,442.3,890,446,908.1,450.1z"/>
					<path class="st4" d="M798,298.3c38.7,4.5,77.4,11.7,115.9,21.6c15.1,41.2,31,82.8,47.9,124.9c11.8,46.9,23.8,94,36,141.3
						c-18.3-5.7-36.6-11-55-15.6c-3.8-18.4-7.6-36.8-11.4-55.2c-26.2-6.5-52.5-11.9-78.8-16.2c2.6,18,5.3,36.1,8,54.2
						c-18.3-3-36.6-5.5-54.9-7.5c-4.5-45.2-9-90.4-13.3-135.5C794.8,372.8,796.7,335.6,798,298.3 M845.4,446.3
						c24.7,3.9,49.4,8.9,74.1,14.8c-1.8-8.7-3.7-17.4-5.5-26.2c-10.1-23.3-19.8-46.4-29.1-69.3c-13.1-2.5-26.3-4.6-39.5-6.5
						c-1,20.3-2.2,40.6-3.7,60.9C842.9,428.8,844.1,437.5,845.4,446.3 M796.1,281.3c-4.7-0.5-9.5-1-14.2-1.5
						c-0.2,4.8-0.5,9.5-0.7,14.3c-1.9,37.3-4.5,74.6-7.7,111.9c0,0.4-0.1,0.8-0.1,1.2c0,0.4,0.1,0.8,0.1,1.2
						c3.5,45,7.1,90.1,10.8,135.2c0.5,5.6,0.9,11.3,1.4,16.9c7.2,0.6,14.5,1.3,21.7,2.1c18.6,2,37.2,4.6,55.7,7.7
						c7.2,1.2,14.4,2.5,21.7,3.9c-1-5.7-1.9-11.5-2.9-17.2c-2.1-12.4-4.1-24.8-6.1-37.2c12.9,2.4,25.8,5.1,38.7,8
						c2.4,12.5,4.7,24.9,7.1,37.4c1.1,5.8,2.2,11.7,3.3,17.5c7.3,1.7,14.5,3.5,21.8,5.3c18.6,4.8,37.2,10.1,55.8,16
						c7.2,2.3,14.3,4.6,21.5,7.1c-1.7-6-3.3-12-4.9-18.1c-13-47.6-25.8-95.1-38.4-142.4c-0.1-0.5-0.3-1-0.4-1.4
						c-0.2-0.5-0.4-1-0.6-1.5C962,405,945.4,363,929.6,321.4c-2-5.2-3.9-10.3-5.8-15.5c-4.6-1.3-9.3-2.5-13.9-3.7
						C872.1,292.6,834.1,285.6,796.1,281.3L796.1,281.3z M862.8,378.6c3.8,0.6,7.5,1.2,11.3,1.9c6.9,17.3,14.1,34.7,21.5,52.2
						c0.4,2.2,0.9,4.4,1.3,6.6c-11.6-2.5-23.2-4.9-34.9-6.9c-0.4-2.5-0.8-5-1.2-7.5C861.6,409.5,862.3,394,862.8,378.6
						C862.8,378.6,862.8,378.6,862.8,378.6z"/>
				</g>
				<g>
					<path class="st6" d="M1030.7,605c-29.2-104.3-57.5-207.7-84.7-310.4c5.3-12.4,10.1-24.9,14.5-37.4c7.8,2.6,15.5,5.3,23.2,8.1
						c32.9,57.4,68.8,117.2,107.8,179.9c-17.6-49-35-97.7-52-146.1c24.9,21.9,50.5,45.1,76.8,69.9c44.6,111.9,90.6,225.8,137.8,342
						c-27.4-16.7-55-32.1-82.8-46.2c-6.9-18.9-13.8-37.8-20.7-56.6c-33-50.6-64.2-99.2-93.6-146c19.3,58.7,38.9,117.8,58.8,177.3
						C1087.6,626.7,1059.2,615.2,1030.7,605z"/>
					<path class="st4" d="M981.4,272.6c41,71.5,86.6,146.5,137.1,226.5c-22.3-60.8-44.2-121.1-65.7-180.9
						c18.9,16.8,38.3,34.3,58,52.7c41.7,106.1,84.8,213.9,128.9,323.8c-20.4-12.1-40.9-23.5-61.6-34.2c-6.1-16.4-12.2-32.7-18.2-49
						c-45.8-70.2-88.2-136.4-127-199.6c22.6,70.7,45.7,141.9,69.3,213.7c-21.1-9.3-42.2-17.8-63.4-25.6
						c-28.9-100.8-57-200.7-84-299.9c4.5-10.7,8.6-21.5,12.4-32.3C971.9,269.3,976.6,270.9,981.4,272.6 M985.9,258.1
						c-3.4-1.2-6.7-2.5-10.1-3.7c-4.7-1.7-9.3-3.3-14-4.8c-2.6-0.9-5.3-1.8-7.9-2.6c-0.7,2.1-1.5,4.3-2.3,6.4
						c-3.9,10.8-8.2,21.7-12.7,32.5c-0.5,1.2-1.1,2.5-1.6,3.7c0.5,1.8,0.9,3.7,1.4,5.5c25.4,98.5,51.7,197.6,78.9,297.4
						c1.6,5.9,3.2,11.9,4.9,17.8c7.1,2.5,14.2,5,21.2,7.6c21.5,8,42.9,16.7,64.3,26.2c7.2,3.2,14.4,6.5,21.6,9.8
						c-2.2-6.4-4.4-12.8-6.6-19.2c-13.9-40.6-27.6-81-41.1-121.2c19,29.8,38.7,60.4,59.2,91.7c5.3,14.9,10.7,29.7,16.1,44.6
						c2.3,6.4,4.7,12.9,7,19.4c7,3.5,14.1,7.1,21.1,10.8c20.9,10.9,41.7,22.6,62.4,35c7,4.2,13.9,8.4,20.8,12.7
						c-2.8-6.9-5.7-13.8-8.5-20.7c-45.7-111.3-90.3-220.6-133.6-327.8c-1.6-4-3.2-8-4.9-12c-3.5-3.4-7.1-6.7-10.6-10
						c-19.5-18.3-38.7-35.9-57.4-52.6c-9.2-8.2-18.3-16.3-27.3-24.2c3.6,10.3,7.2,20.7,10.8,31c9.3,26.8,18.8,53.8,28.2,80.8
						c-25.4-41.6-49.4-81.9-72.1-121.2C990.9,266.7,988.4,262.4,985.9,258.1C985.9,258.1,985.9,258.1,985.9,258.1z"/>
				</g>
			</g>
		</g>
		<polygon class="st4" points="473,750.8 432.9,763.8 365.9,615.7 398,579.7 		"/>
		<polygon class="st4" points="660.6,716.8 619.2,719.3 583.9,549.4 624.3,526.7 		"/>
		<polygon class="st4" points="796.7,720.6 760.3,717.1 764,558.2 804.4,560.5 		"/>
		<polygon class="st4" points="976.1,763.1 942.7,752.7 998.4,597.7 1034.8,611.1 		"/>
		<polygon class="st4" points="901.9,740.7 847.4,729.2 865.3,568.3 939.5,584.6 		"/>
		<polygon class="st4" points="1101.2,817.9 1036.8,784.4 1105.7,642.4 1180.9,674.8 		"/>
	</g>
	<g id="Layer_2">
		<g>
			<path class="st6" d="M715.3,1105.5c-80.9,0-148.1-28.2-194.5-81.6c-41.6-47.9-64.4-114.2-64.4-186.7c0-11-10.2-17-18.4-21.9
				c-4-2.4-10.7-6.4-10.9-8.7c-4.8-52.8,6.2-60.1,20.1-69.4c6.9-4.6,14.8-9.9,21.2-20.2c4.2-6.8,4.9-17.3,5.8-29.6
				c0.7-10.6,1.7-25.1,5.9-29.3c1.4-1.4,4-2.1,7.9-2.1c3.7,0,8,0.6,12.2,1.2c4.5,0.6,9.2,1.3,13.5,1.3c6.6,0,11.6-1.5,15.3-4.6
				c3.8-3.2,8-8.6,12.9-14.8c7.9-10.1,18.7-23.8,27.3-26.2c2.4-0.7,7.4-1,14.9-1c5.4,0,11.6,0.2,17.5,0.3c6,0.2,12.2,0.3,17.6,0.3
				c10.9,0,16.8-0.7,20.4-2.4c10.7-5,20.9-7.3,33.3-7.3c8.7,0,17.7,1.1,27.3,2.3c11,1.4,23.4,2.9,37.3,2.9c33.7,0,65.3,6.1,94,18
				c3.5,1.5,6.3,2.6,8.6,3.5c8,3.2,8,3.2,10.7,6.2c2,2.3,5.1,5.7,11,11.3c2.7,2.6,6.5,3.9,11.4,3.9c3.6,0,7.7-0.7,12-1.3
				c4.9-0.8,10-1.6,14.9-1.6c6.8,0,11.8,1.6,15.6,4.9c4.4,3.8,9.8,7.6,15.6,11.5c17.5,12.1,37.4,25.9,34.5,45.7
				c-3.8,25.7,5.5,45.3,13.6,62.6c6.2,13.2,11.6,24.7,11.1,37.3c-0.3,6.3-10.2,20.3-17.4,30.5c-10.7,15.1-17.3,24.8-17.3,32.9
				c0,34.2-6,66.1-17.8,95c-11.4,28-28.1,52.6-49.5,73.1c-21.3,20.4-46.9,36.3-75.9,47.2C782.9,1099.8,750.1,1105.5,715.3,1105.5z"
				/>
			<path class="st4" d="M673,610.3c8.3,0,17,1.1,26.4,2.2c11.2,1.4,23.9,3,38.2,3c32.7,0,63.3,5.9,91.1,17.4
				c3.6,1.5,6.4,2.6,8.7,3.6c2.8,1.1,5.5,2.2,6.5,2.7c0.3,0.3,0.9,1,1.4,1.6c2.1,2.3,5.3,5.9,11.4,11.7c4.1,4,9.7,6,16.6,6
				c4.2,0,8.6-0.7,13.2-1.4c4.6-0.7,9.4-1.5,13.8-1.5c6.4,0,9.1,1.6,10.7,3.1c4.7,4.1,10.3,7.9,16.2,12
				c19.7,13.6,33.4,24.3,31.4,38.4c-4.1,28,6.1,49.5,14.2,66.9c5.8,12.3,10.8,22.9,10.4,33.7c-0.1,0.4-0.6,2.9-4.5,9.5
				c-3.2,5.3-7.4,11.3-11.6,17.1c-11.6,16.3-18.7,26.9-18.7,37.2c0,33.2-5.8,64.2-17.2,92.2c-11,27-27.1,50.7-47.7,70.5
				c-20.6,19.7-45.3,35.1-73.4,45.6c-28.9,10.8-60.8,16.3-94.7,16.3c-40.9,0-78.2-7.3-110.9-21.7c-30.2-13.3-56.4-32.6-77.9-57.3
				c-40.4-46.5-62.6-111.1-62.6-181.8c0-15.2-13.3-23.1-22-28.3c-2.3-1.3-5.8-3.4-7.5-4.8c-1.9-21.9-0.8-37.6,3.1-46.7
				c2.7-6.3,6.6-9.1,13.8-14c7.2-4.8,16.1-10.8,23.4-22.4c5.2-8.4,6-19.8,6.9-33.1c0.4-5.9,0.8-12,1.6-17c0.7-4.2,1.5-6.3,1.9-7.2
				c0.5-0.1,1.4-0.2,2.7-0.2c3.2,0,7,0.5,11.2,1.1c4.8,0.7,9.7,1.3,14.5,1.3c8.4,0,15-2.1,20.1-6.4c4.4-3.7,8.9-9.4,14-15.9
				c4.2-5.4,9.1-11.6,13.8-16.3c5.8-5.9,8.8-7,9.6-7.2c0.5-0.1,3.2-0.7,12.9-0.7c5.3,0,11.4,0.2,17.3,0.3c6,0.2,12.3,0.3,17.8,0.3
				c12.4,0,18.8-0.8,23.6-3.1C652.4,612.4,661.7,610.3,673,610.3 M673,595.3c-11.8,0-23.6,1.9-36.5,8c-2.8,1.3-9.3,1.7-17.3,1.7
				c-10.7,0-24.2-0.7-35.2-0.7c-7.2,0-13.3,0.3-16.8,1.3c-16.6,4.5-33.4,34.5-43.1,42.5c-2.6,2.2-6.3,2.9-10.5,2.9
				c-7.8,0-17.5-2.4-25.7-2.4c-5.3,0-10,1-13.2,4.3c-11.1,11.1-5.3,48.5-12.6,60.2c-18.3,29.2-50,11.8-42.4,94.2
				c1.2,12.7,29.3,16.8,29.3,29.9c0,143.2,87.9,275.8,266.4,275.8c145.2,0,248.1-96.4,248.1-239.7c0-12.7,34-46.8,34.7-63
				c1.4-32.5-31-56.8-24.8-99.1c4.7-31.7-34.9-48.6-52.6-63.9c-6-5.2-13.3-6.7-20.6-6.7c-10.1,0-20.2,2.9-26.9,2.9
				c-2.7,0-4.9-0.5-6.2-1.8c-19.5-18.7-6.7-11.8-32.6-22.6c-28.9-12-61.4-18.6-96.9-18.6C712.3,600.5,692.6,595.3,673,595.3
				L673,595.3z"/>
		</g>
		<g>
			<g>
				<path class="st4" d="M494.2,872.5c0.6-0.6,1.2-1.1,1.8-1.6c0.4-0.4-1.9,1.4-0.6,0.5c0.4-0.3,0.8-0.5,1.2-0.8
					c1.6-1,3.3-1.9,5-2.8c3.4-1.7,6.9-3.3,10.2-5.2c3.9-2.3,7.5-5.1,10.1-8.8c1.2-1.7,2.1-3.8,2.5-5.9c0.3-1.4,0.5-2.9,0.5-4.4
					c0-1.5-0.5,2.1-0.1,0.6c0.1-0.5,0.3-1,0.4-1.5c0.5-1.8-0.8,1.6-0.1,0.2c0.2-0.4,0.4-0.8,0.7-1.3c0.6-1,1.2-2,1.9-2.9
					c0.1-0.2,0.3-0.4,0.4-0.6c0.6-0.8-0.7,0.9-0.6,0.8c0.3-0.4,0.6-0.8,1-1.2c0.8-0.9,1.5-1.9,2.3-2.8c3.6-4.2,7.1-8.4,9-13.6
					c1-2.7,1.3-5.9,1-8.8c-0.3-3-0.6-6.4-1.4-9.4c0-0.1,0.2,2,0.1,1c0-0.3-0.1-0.6-0.1-0.8c0-0.5-0.1-1.1-0.1-1.6
					c0-0.4,0.2-2.5,0-0.9c-0.2,1.3-0.1,0.6,0,0.3c0.2-0.9,0.3-1.8,0.4-2.8c0.2-2.4-0.2-4.7-0.5-7.1c-0.1-0.4-0.3-2.2-0.1-0.4
					c0.2,1.7,0,0.2,0-0.2c-0.1-0.9-0.1-1.9-0.1-2.8c0,0,0-0.6,0-0.6c0.1,0-0.4,2.1-0.2,1.4c0.1-0.4,0.2-0.9,0.3-1.4
					c0.3-1.3-1,1.7-0.2,0.6c0.1-0.2,0.3-0.4,0.3-0.6c0.3-0.8-1.2,1.3-0.6,0.7c0.2-0.2,1.3-1.1,1.3-1.3c0,0.1-1.5,1-0.7,0.5
					c0.3-0.1,0.5-0.3,0.8-0.5c1.5-1,2.9-2,4.2-3.2c1.8-1.8,3.3-4,4.3-6.3c1.9-4.4,2.5-8.8,3.3-13.5c0.2-1,0.4-2,0.6-2.9
					c0.1-0.4,0.2-0.9,0.4-1.3c0.1-0.4,0.8-2.1,0.2-0.6c-0.7,1.6,0.3-0.6,0.5-1c0.3-0.5,0.6-1,0.9-1.5c0.3-0.4,0.6-0.8,0.9-1.3
					c-0.1,0.1-1.5,1.7-0.5,0.7c0.2-0.2,0.4-0.5,0.6-0.7c0.3-0.3,0.6-0.6,1-0.9c1-1-1.7,1.2-0.5,0.4c0.8-0.5,1.5-1,2.3-1.4
					c0.3-0.2,0.7-0.3,1-0.5c0.4-0.2,1.9-0.8,0.2-0.1c-1.6,0.7-0.3,0.1,0.1,0c0.7-0.3,1.5-0.6,2.2-0.9c4.4-1.9,7.8-4.4,10.6-8.4
					c2.1-3.1,3.6-6.5,5.6-9.6c0.2-0.4,0.5-0.7,0.7-1.1c0.2-0.3,1.4-1.9,0.3-0.5c-1,1.3,0,0,0.3-0.3c0.4-0.4,0.8-0.9,1.2-1.2
					c0.3-0.3,1.5-1.3,0.2-0.3c-1.3,1,0,0,0.3-0.2c0.4-0.2,1-0.4,1.3-0.7c0,0-1.9,0.6-1.1,0.5c0.3-0.1,0.6-0.2,0.9-0.3
					c0.4-0.1,0.8-0.2,1.2-0.3c0.7-0.2-1.5,0.3-1.5,0.2c0,0,0.6-0.1,0.7-0.1c0.3,0,0.7,0,1,0c0.5,0,1.9,0.2,0.1-0.1
					c-2-0.3,0.4,0.2,0.9,0.3c1.4,0.4-0.8-0.1-1-0.5c0.2,0.2,0.8,0.4,1.1,0.5c0.6,0.3,1.1,0.7,1.6,1c0,0,0.5,0.4,0.5,0.4
					c0,0-1.7-1.4-1.2-0.9c0.3,0.3,0.6,0.5,0.9,0.7c1.1,1,2.2,2.1,3.2,3.2c4.4,4.8,8.6,10.4,14.7,13.3c4.8,2.3,9.5,2.9,14.8,2
					c0.4-0.1,2-0.3,0.5-0.1c-1.5,0.2,0.6,0,1,0c0.5,0,1,0,1.5,0c0.2,0,0.5,0,0.7,0c1.1,0-2-0.4-1-0.1c0.9,0.3,1.9,0.4,2.8,0.7
					c0.2,0.1,0.4,0.2,0.6,0.2c0.9,0.3-1.3-0.5-1.1-0.5c0.5,0.1,1.1,0.5,1.6,0.8c4.6,2.4,8.9,5.1,13.8,7.1c4.5,1.9,9.4,2.6,14.2,2.1
					c9.4-1,18.1-4.7,27.4-6.4c1-0.2-1.4,0.2-1.2,0.2c0.2-0.1,0.5-0.1,0.7-0.1c0.6,0,1.1-0.1,1.7-0.1c1,0,2,0,3,0
					c2.1,0.1-1.8-0.4-0.3-0.1c0.5,0.1,0.9,0.2,1.4,0.3c0.5,0.1,0.9,0.2,1.3,0.4c0.2,0.1,0.6,0.3,0.9,0.3c-0.3,0-1.9-0.9-0.8-0.3
					c6.1,3.2,12.5,5.2,19.4,5.6c11.6,0.7,22.6-4.1,32.5-9.4c2.5-1.4,5.1-2.7,7.7-3.8c0.3-0.1,0.6-0.2,0.9-0.4c0,0-1.6,0.7-0.7,0.3
					c0.6-0.2,1.2-0.5,1.8-0.7c1.4-0.5,2.7-1,4.1-1.4c1.3-0.4,2.5-0.7,3.8-1c0.6-0.1,1.2-0.3,1.8-0.4c0.4-0.1,2.6-0.4,1.1-0.2
					c-1.5,0.2,0.7,0,1.1-0.1c0.6,0,1.1-0.1,1.7-0.1c1.3,0,2.6,0.2,3.9,0.2c0.1,0-2-0.4-1-0.1c0.3,0.1,0.5,0.1,0.8,0.1
					c0.6,0.1,1.2,0.3,1.8,0.5c0.5,0.2,1,0.4,1.5,0.5c0.9,0.3-0.9-0.4-0.9-0.4c0.3,0.2,0.7,0.3,1,0.5c2.2,1.1,4.3,2.1,6.7,2.4
					c4.4,0.6,8.4-0.7,12.3-2.6c3-1.5,5.6-3.4,8.2-5.4c2-1.5,3.9-3,5.9-4.6c0.6-0.5,1.3-1,1.9-1.5c0.2-0.1,0.3-0.3,0.5-0.4
					c1.1-0.8-0.9,0.7-0.9,0.7c0.3-0.3,0.8-0.6,1.1-0.9c1.4-1,2.8-2.1,4.3-3c0.4-0.3,4-2,4-2.2c0,0.2-2.5,0.9-1,0.4
					c0.3-0.1,0.7-0.2,1-0.3c0.3-0.1,0.6-0.1,0.9-0.2c1.5-0.4-2.2,0.1-1.1,0.1c0.3,0,0.6,0,1,0c1.5-0.1-2.3-0.4-1.2-0.2
					c1.2,0.3,2.4,0.5,3.6,0.8c0.9,0.3,1.8,0.6,2.7,0.9c1,0.4-1.9-0.9-0.9-0.4c0.2,0.1,0.4,0.2,0.6,0.3c0.4,0.2,0.9,0.4,1.3,0.7
					c1.6,0.8,3.1,1.7,4.6,2.6c3.2,1.9,6.7,3.7,10.4,4.4c5.5,0.9,10.8,0.2,16-1.7c4.4-1.6,7.9-6.2,6.3-11.1c-1.4-4.3-6.3-8-11.1-6.3
					c-1.2,0.4-2.4,0.8-3.6,1.2c-0.5,0.1-1,0.2-1.5,0.3c-2,0.4,2-0.1,0.1,0c-0.8,0-1.7,0-2.5,0c-1.8-0.1,2.1,0.4,0.7,0.1
					c-0.4-0.1-0.8-0.2-1.2-0.3c-0.3-0.1-0.7-0.2-1-0.3c-0.2-0.1-0.4-0.2-0.7-0.2c-0.8-0.2,1.6,0.5,1.3,0.6c-0.5,0.1-1.8-0.9-2.2-1.1
					c-1.4-0.8-2.8-1.6-4.2-2.5c-4-2.3-8.3-4.2-12.9-5.2c-5.2-1.1-9.4-0.4-14.2,1.6c-7,3-12.1,8.7-18.3,12.9c-0.2,0.1,1.8-1.3,1-0.8
					c-0.2,0.1-0.3,0.2-0.5,0.4c-0.4,0.3-0.7,0.6-1.1,0.8c-0.7,0.5-1.5,1.1-2.2,1.6c-1.3,0.9-2.6,1.7-4,2.4c-0.3,0.1-0.6,0.3-0.9,0.4
					c-0.6,0.3,2.4-0.9,0.8-0.4c-0.7,0.2-1.3,0.4-2,0.6c-1.1,0.3,2.4-0.1,1.3-0.2c-0.3,0-0.5,0-0.8,0c-1.5,0.1,1.5,0.3,1.2,0.2
					c-0.2-0.1-0.6-0.2-0.9-0.2c-1-0.2,2.1,1.1,1.2,0.5c-0.4-0.3-1-0.5-1.4-0.8c-1.7-0.8-3.4-1.6-5.2-2.1c-2.8-0.9-5.9-1.3-8.8-1.4
					c-5.7-0.3-11.7,0.9-17.1,2.6c-5.9,1.9-11.5,4.5-17,7.4c-2.4,1.3-4.8,2.5-7.3,3.7c-0.5,0.2-1.1,0.5-1.6,0.7c0,0,1.7-0.7,0.8-0.3
					c-0.3,0.1-0.5,0.2-0.8,0.3c-1.3,0.5-2.5,0.9-3.8,1.3c-1.2,0.4-2.4,0.7-3.6,0.9c-0.6,0.1-1.1,0.2-1.7,0.3c-0.3,0-0.6,0.1-0.8,0.1
					c0.8-0.2,1.8-0.2,0.4-0.1c-1.2,0.1-2.3,0.2-3.5,0.1c-0.7,0-1.4,0-2-0.1c-0.3,0-0.6-0.1-0.9-0.1c-1.2,0,1.8,0.3,0.6,0.1
					c-1.3-0.2-2.6-0.5-3.9-0.8c-0.6-0.2-1.2-0.4-1.8-0.6c-0.3-0.1-0.6-0.2-0.9-0.3c-0.2-0.1-0.4-0.2-0.6-0.2
					c-0.6-0.2-0.4-0.2,0.6,0.3c-1,0-2.5-1.2-3.4-1.6c-1.5-0.7-3.2-1.4-4.8-1.9c-9.8-2.7-19.7,0.4-29,3.2c-2.2,0.6-4.3,1.2-6.5,1.7
					c-0.9,0.2-1.9,0.3-2.9,0.5c-1,0.2,1.4-0.2,1.2-0.2c-0.3,0.1-0.6,0.1-0.9,0.1c-0.5,0.1-1.1,0.1-1.6,0.1c-1,0-2,0-3-0.1
					c-1.5-0.1,2.1,0.4,0.6,0.1c-0.6-0.1-1.2-0.2-1.8-0.4c-1-0.3-2.1-0.9-3.1-1.1c0.2,0,1.9,0.8,0.5,0.2c-0.3-0.1-0.5-0.2-0.8-0.4
					c-0.6-0.3-1.2-0.6-1.8-0.9c-4.3-2.2-8.2-4.9-12.8-6.6c-2.5-0.9-5.3-1.3-8-1.4c-1.1,0-2.2,0.1-3.2,0.2c-1.2,0.2-2.5,0.3-3.8,0.5
					c-0.8,0.2,1.5-0.2,1.4-0.2c-0.1-0.1-0.6,0.1-0.7,0.1c-0.4,0-0.7,0-1.1,0c-0.4,0-2-0.2-0.2,0.1c1.8,0.2,0.5,0.1,0,0
					c-0.4-0.1-0.9-0.2-1.3-0.3c-0.4-0.1-1.6-0.6,0,0.1c1.6,0.7,0.4,0.2,0,0c-0.7-0.3-1.3-0.7-2-1.2c-0.3-0.2-1.4-1,0,0
					c1.4,1.1,0.2,0.1-0.1-0.1c-0.6-0.5-1.2-1.1-1.8-1.6c-1.1-1.1-2.1-2.2-3.1-3.3c-4.8-5.4-9.6-10.9-16.7-13.2
					c-4.1-1.4-9.2-1.2-13.2,0.4c-5.6,2.1-9.6,5.9-13,10.8c-2.2,3.1-3.7,6.6-5.8,9.8c-0.2,0.3-0.4,0.6-0.6,1c-1,1.5,1.3-1.3,0.4-0.5
					c-0.2,0.2-0.5,0.5-0.7,0.7c-0.2,0.2-0.9,0.7,0.4-0.3c1.3-1,0.4-0.3,0.1-0.1c-0.6,0.3-1.1,0.7-1.7,1c-0.3,0.2-0.7,0.3-1.1,0.5
					c-0.8,0.4,1.5-0.8,1.4-0.6c-0.1,0.1-0.5,0.2-0.6,0.3c-4.4,1.8-8.5,3.6-11.9,7.1c-3.9,3.9-6.7,9.3-7.9,14.7c-0.9,4-1,8.1-2.2,12
					c-0.1,0.4-0.7,1.9-0.1,0.4c0.7-1.6-0.1,0.2-0.3,0.5c-0.2,0.3-0.6,0.8-0.7,1.1c0,0,1.3-1.5,0.7-0.9c-0.3,0.3-0.5,0.6-0.8,0.8
					c-0.2,0.2-0.4,0.3-0.5,0.5c-0.5,0.6,0.8-0.6,0.9-0.6c-0.5,0.2-1,0.6-1.4,0.9c-1.5,1-3.1,2.2-4.4,3.5c-3.9,4.3-5.6,9.8-5,15.5
					c0.2,1.5,0.4,3.1,0.6,4.6c0.2,1.5-0.3-2.3-0.1-0.8c0.1,0.5,0.1,1,0.1,1.6c0,0.4-0.3,2,0,2.3c0,0,0.4-2.8,0.1-1.1
					c-0.1,0.9-0.3,1.8-0.4,2.7c-0.1,0.6-0.1,1.2-0.1,1.9c0,3.1,0.7,6.3,1.2,9.3c0.1,0.6,0.2,1.1,0.3,1.7c0.2,1-0.1-1.1-0.1-1
					c0,0.3,0.1,0.6,0.1,0.8c0.1,0.6,0.1,1.3,0.1,1.9c0,0.4-0.2,2.5,0,0.9c0.2-1.7-0.3,0.6-0.3,0.9c0,0,0.9-1.7,0.4-1.1
					c-0.1,0.2-0.2,0.4-0.3,0.6c-0.5,0.9-1.1,1.9-1.7,2.7c-0.3,0.4-0.6,0.8-0.9,1.2c-0.1,0.1,1.3-1.6,0.7-0.8
					c-0.2,0.2-0.3,0.4-0.5,0.6c-0.8,0.9-1.5,1.8-2.3,2.8c-3.2,3.8-6.7,7.6-8.7,12.2c-1.4,3.1-2.3,6.1-2.4,9.5c0,1.7,0-1,0.2-1
					c0,0-0.2,0.9-0.2,1c0,0.1-0.2,0.6-0.2,0.6c-0.1,0,0.9-1.9,0.6-1.4c-0.2,0.3-0.4,0.7-0.5,1c-0.8,1.4,0.6-0.7,0.6-0.7
					c0,0.1-0.7,0.8-0.8,0.9c-0.2,0.3-0.5,0.5-0.8,0.7c-0.3,0.3-1.8,1.4-0.4,0.4c1.3-1,0.2-0.1-0.2,0.1c-0.3,0.2-0.6,0.4-1,0.7
					c-0.8,0.5-1.6,1-2.5,1.5c-3.3,1.9-6.8,3.4-10.2,5.2c-3.6,1.9-7.2,4.2-10,7.1c-3.3,3.4-3.6,9.4,0,12.7
					C485,875.8,490.6,876.1,494.2,872.5L494.2,872.5z"/>
			</g>
		</g>
		<g>
			<g>
				<path class="st4" d="M717,630.7c-4.3,13.2-3.9,27.7,1.2,40.6c0.8,2.2,3.1,3.9,5.5,3.1c2.1-0.7,4.1-3.2,3.1-5.5
					c-1.2-3-2.1-6.2-2.8-9.3c-0.2-0.7-0.3-1.5-0.4-2.3c-0.1-0.4-0.1-0.8-0.2-1.1c0-0.3,0-0.3,0,0.1c0-0.2,0-0.3-0.1-0.5
					c-0.2-1.6-0.3-3.2-0.4-4.8c0-1.5,0-3,0-4.5c0-0.8,0.1-1.7,0.2-2.5c0-0.4,0.1-0.8,0.1-1.1c0.1-0.8-0.2,1,0-0.4
					c0.5-3.2,1.2-6.3,2.2-9.4c0.7-2.2-0.8-5-3.1-5.5C720,627,717.7,628.3,717,630.7L717,630.7z"/>
			</g>
		</g>
		<g>
			<g>
				<path class="st4" d="M691.6,885.2c0.5,2.1,1,4.3,1.3,6.5c-0.1-0.8-0.2-1.6-0.3-2.4c0.6,5,0.6,10.1-0.1,15.2
					c0.1-0.8,0.2-1.6,0.3-2.4c-0.8,6-2.5,11.9-4.9,17.5c0.3-0.7,0.6-1.4,0.9-2.1c-3.2,7.6-7.5,14.6-12.5,21.1
					c0.5-0.6,0.9-1.2,1.4-1.8c-4.7,6.1-9.9,11.6-15.6,16.8c-1.4,1.3-3,2.5-4.3,4c-2.9,3.4-4.6,7.4-3.6,11.9
					c1.3,5.6,6.6,8.7,11.5,10.9c7.5,3.4,15.3,5.2,23.4,6.4c3.9,0.6,7.8,1.1,11.6,1.7c4.1,0.6,8,1.5,12,2.4c3.7,0.8,7,1,10.7,0.4
					c2.2-0.3,4.2-1.2,6.3-1.9c4.7-1.6,9.6-2.5,14.4-3.1c-0.8,0.1-1.6,0.2-2.4,0.3c9.4-1.3,19-1.9,28-5.2c2.2-0.8,4.1-2,5.4-4.1
					c1.1-1.9,1.6-4.8,0.9-6.9c-1.4-4.3-6.3-8-11.1-6.3c-5.1,1.9-10.5,2.9-15.8,3.6c0.8-0.1,1.6-0.2,2.4-0.3
					c-5.9,0.8-11.9,1.3-17.8,2.4c-2.6,0.5-5.2,1.1-7.7,1.9c-2.5,0.8-4.9,1.9-7.4,2.3c0.8-0.1,1.6-0.2,2.4-0.3
					c-1.2,0.2-2.4,0.1-3.7,0c0.8,0.1,1.6,0.2,2.4,0.3c-4.1-0.6-8.1-1.7-12.1-2.4c-4-0.7-7.9-1.2-11.9-1.8c-7.5-1.1-15-2.4-22-5.3
					c0.7,0.3,1.4,0.6,2.1,0.9c-2.4-1-4.9-2.1-6.9-3.7c0.6,0.5,1.2,0.9,1.8,1.4c-0.4-0.3-0.7-0.7-1-1c0.5,0.6,0.9,1.2,1.4,1.8
					c-0.1-0.2-0.2-0.4-0.3-0.6c0.3,0.7,0.6,1.4,0.9,2.1c-0.1-0.2-0.2-0.4-0.2-0.7c0.1,0.8,0.2,1.6,0.3,2.4c0-0.2,0-0.5,0-0.7
					c-0.1,0.8-0.2,1.6-0.3,2.4c0.1-0.4,0.2-0.7,0.3-1c-0.3,0.7-0.6,1.4-0.9,2.1c0.2-0.5,0.5-0.9,0.8-1.3c-0.5,0.6-0.9,1.2-1.4,1.8
					c2.2-2.6,5.1-4.8,7.6-7.1c2.5-2.4,4.8-4.8,7.1-7.4c4.7-5.3,9-10.9,12.8-16.9c7.1-11.3,11.8-24,12.9-37.3
					c0.6-7.1-0.1-14.3-1.8-21.2c-1.2-4.6-6.5-7.8-11.1-6.3C693.2,875.7,690.4,880.3,691.6,885.2L691.6,885.2z"/>
			</g>
		</g>
		<g>
			<g>
				<path class="st4" d="M579.5,894.7c18,2.2,35.8-3.2,53.5-5.6c-0.8,0.1-1.6,0.2-2.4,0.3c7.6-1,15.3-1.5,22.9-0.5
					c-0.8-0.1-1.6-0.2-2.4-0.3c5,0.7,10,2,14.6,4c-0.7-0.3-1.4-0.6-2.1-0.9c2.8,1.2,5.5,2.7,8.1,4.4c1.8,1.3,4.9,1.5,6.9,0.9
					c2.1-0.6,4.4-2.2,5.4-4.1c1.1-2.1,1.7-4.6,0.9-6.9c-0.8-2.3-2.1-4-4.1-5.4c-9.1-6.3-20.3-9.3-31.3-10c-10.9-0.8-21.8,1.1-32.5,3
					c-5.8,1-11.6,2.2-17.5,3c0.8-0.1,1.6-0.2,2.4-0.3c-7.4,1-14.9,1.4-22.4,0.5c-2.1-0.3-4.9,1.2-6.4,2.6c-1.6,1.6-2.7,4.1-2.6,6.4
					c0.1,2.3,0.9,4.7,2.6,6.4c0.6,0.5,1.2,0.9,1.8,1.4C576.3,894.2,577.8,894.6,579.5,894.7L579.5,894.7z"/>
			</g>
		</g>
		<g>
			<g>
				<path class="st4" d="M775.1,900.6c10.2-3.5,20.3-7,31-8.5c-0.8,0.1-1.6,0.2-2.4,0.3c7.2-1,14.5-0.8,21.8-0.6
					c6.9,0.2,13.8,0.7,20.7,1.6c-0.8-0.1-1.6-0.2-2.4-0.3c7.1,1,14.3,2.4,21,5.2c-0.7-0.3-1.4-0.6-2.1-0.9c2.1,0.9,4.2,2,6.1,3.3
					c1.9,1.3,4.8,1.5,6.9,0.9c2.1-0.6,4.4-2.2,5.4-4.1c2.4-4.6,0.9-9.5-3.2-12.3c-5.2-3.5-11.5-5.7-17.5-7.2
					c-7.1-1.8-14.4-2.7-21.7-3.3c-14.5-1.3-29.4-1.7-43.8,1.3c-8.4,1.7-16.4,4.6-24.5,7.3c-2.2,0.8-4.2,2.1-5.4,4.1
					c-1.1,1.9-1.6,4.8-0.9,6.9C765.5,898.7,770.3,902.2,775.1,900.6L775.1,900.6z"/>
			</g>
		</g>
		<g>
			<g>
				<path class="st4" d="M799.1,895c5.5,6.3,15.1,9.2,23.2,8.9c4.9-0.2,9.3-1.3,13.7-3.3c4-1.8,7.2-4.7,9.8-8.2
					c1.3-1.8,1.5-4.9,0.9-6.9c-0.6-2.1-2.2-4.3-4.1-5.4c-2.1-1.1-4.6-1.7-6.9-0.9c-2.4,0.8-3.9,2.1-5.4,4.1
					c-0.1,0.1-0.1,0.2-0.2,0.3c0.5-0.6,0.9-1.2,1.4-1.8c-0.7,0.9-1.5,1.7-2.4,2.4c0.6-0.5,1.2-0.9,1.8-1.4c-1.3,1-2.7,1.8-4.2,2.4
					c0.7-0.3,1.4-0.6,2.1-0.9c-2,0.8-4.1,1.4-6.3,1.7c0.8-0.1,1.6-0.2,2.4-0.3c-2.3,0.3-4.5,0.3-6.8,0c0.8,0.1,1.6,0.2,2.4,0.3
					c-2.3-0.3-4.5-0.9-6.7-1.8c0.7,0.3,1.4,0.6,2.1,0.9c-1.5-0.7-2.9-1.4-4.2-2.4c0.6,0.5,1.2,0.9,1.8,1.4c-0.7-0.6-1.4-1.2-2-1.9
					c-1.4-1.7-4.2-2.6-6.4-2.6c-2.2,0-4.8,1-6.4,2.6c-1.6,1.7-2.7,4-2.6,6.4C796.5,891.1,797.4,893.1,799.1,895L799.1,895z"/>
			</g>
		</g>
		<g>
			<g>
				<path class="st4" d="M620.6,896.8c3.4,1.4,6.7,2.8,10.1,4.2c3.6,1.5,7.2,2.9,11.2,2.8c3.9-0.1,8-1.3,11.2-3.7
					c3.1-2.3,5.5-4.9,7.7-8.1c1.3-1.8,1.5-4.9,0.9-6.9c-0.6-2.1-2.2-4.3-4.1-5.4c-2.1-1.1-4.6-1.7-6.9-0.9c-2.3,0.8-4,2.1-5.4,4.1
					c-0.2,0.3-0.5,0.7-0.7,1c0.5-0.6,0.9-1.2,1.4-1.8c-1.1,1.4-2.3,2.7-3.7,3.8c0.6-0.5,1.2-0.9,1.8-1.4c-0.8,0.6-1.7,1.2-2.7,1.6
					c0.7-0.3,1.4-0.6,2.1-0.9c-0.9,0.4-1.8,0.6-2.8,0.8c0.8-0.1,1.6-0.2,2.4-0.3c-0.9,0.1-1.8,0.1-2.8,0c0.8,0.1,1.6,0.2,2.4,0.3
					c-2.9-0.4-5.6-1.8-8.3-2.9c-3-1.3-6-2.5-9-3.8c-2-0.8-5.2-0.1-6.9,0.9c-1.9,1.1-3.6,3.2-4.1,5.4c-0.5,2.3-0.4,4.9,0.9,6.9
					c0.5,0.6,0.9,1.2,1.4,1.8C617.8,895.6,619.1,896.4,620.6,896.8L620.6,896.8z"/>
			</g>
		</g>
		<g>
			<g>
				<path class="st4" d="M670.2,1039.9c29.2,0.5,58.5,0.5,87.7-0.1c8.3-0.2,16.6-0.4,24.9-0.6c2.4-0.1,4.6-2,4.5-4.5
					c-0.1-2.4-2-4.6-4.5-4.5c-29.2,0.9-58.5,1.2-87.7,1c-8.3-0.1-16.6-0.2-24.9-0.3c-2.4,0-4.6,2.1-4.5,4.5
					C665.8,1037.9,667.7,1039.9,670.2,1039.9L670.2,1039.9z"/>
			</g>
		</g>
		<g>
			<g>
				<path class="st4" d="M590.2,1032c0.2,1.8,0.4,3.6,0.6,5.4c0.2,1.6,0.4,3.1,1.2,4.5c1,1.7,2.5,2.9,4.3,3.7
					c3.4,1.4,7.1,0.6,9.8-1.9c0.5-0.4,1-0.9,1.5-1.3c-0.6,0.5-1.2,0.9-1.8,1.4c3.2-2.4,6.8-4.1,10.4-5.7c-0.7,0.3-1.4,0.6-2.1,0.9
					c8.9-3.8,18.1-7,26.8-11.5c7.9-4.1,15.3-9.1,22.1-14.9c3.3-2.8,6.4-5.8,9.3-9.1c1.6-1.8,2.6-3.9,2.6-6.4c0-2.2-1-4.8-2.6-6.4
					c-3.4-3.1-9.4-3.8-12.7,0c-3.9,4.4-8.2,8.4-12.9,12c0.6-0.5,1.2-0.9,1.8-1.4c-8,6.1-16.8,11-26,14.9c0.7-0.3,1.4-0.6,2.1-0.9
					c-5.1,2.1-10.3,4.1-15.3,6.2c-5.8,2.4-11.2,5-15.9,9.3c5.1,2.1,10.2,4.2,15.4,6.4c-0.2-1.8-0.4-3.6-0.6-5.4
					c-0.3-2.5-0.8-4.6-2.6-6.4c-1.6-1.6-4.1-2.7-6.4-2.6c-2.3,0.1-4.7,0.9-6.4,2.6C591.3,1027.3,589.9,1029.7,590.2,1032L590.2,1032
					z"/>
			</g>
		</g>
		<g>
			<g>
				<path class="st4" d="M670.7,1020.3c4.7,0,9.2-4.1,9-9c-0.2-4.9-4-9-9-9c-4.7,0-9.2,4.1-9,9
					C661.9,1016.2,665.7,1020.3,670.7,1020.3L670.7,1020.3z"/>
			</g>
		</g>
		<g>
			<g>
				<path class="st4" d="M680.4,990.9c-0.8,0.2-1.6,0.5-2.4,0.8c-1.4,0.6-2.9,1.2-4.3,1.9c-0.7,0.4-1.3,0.8-1.9,1.2
					c-1.2,0.9-2.4,1.8-3.5,2.8c-0.9,0.8-1.5,1.8-1.9,2.9c-0.6,1.1-0.8,2.2-0.8,3.5c0,1.2,0.2,2.4,0.8,3.5c0.4,1.1,1,2.1,1.9,2.9
					c0.6,0.5,1.2,0.9,1.8,1.4c1.4,0.8,2.9,1.2,4.5,1.2c0.8-0.1,1.6-0.2,2.4-0.3c1.5-0.4,2.8-1.2,4-2.3c0.5-0.5,0.9-0.9,1.4-1.3
					c-0.6,0.5-1.2,0.9-1.8,1.4c1.2-1,2.6-1.7,4-2.3c-0.7,0.3-1.4,0.6-2.1,0.9c0.9-0.4,1.7-0.7,2.6-0.9c1.2-0.3,2.2-0.8,3.1-1.6
					c1-0.6,1.8-1.5,2.3-2.5c0.7-1,1-2.1,1.1-3.3c0.3-1.2,0.2-2.4-0.2-3.6c-0.3-0.7-0.6-1.4-0.9-2.1c-0.8-1.4-1.9-2.4-3.2-3.2
					c-0.7-0.3-1.4-0.6-2.1-0.9C683.6,990.5,682,990.5,680.4,990.9L680.4,990.9z"/>
			</g>
		</g>
		<g>
			<g>
				<path class="st4" d="M694.5,992.9c-2.5,1.6-4.8,3.4-7,5.4c-2.1,1.9-3.8,4.1-5.5,6.4c-0.7,1-1,2.1-1.1,3.3
					c-0.3,1.2-0.2,2.4,0.2,3.6c0.3,1.2,0.8,2.2,1.6,3.1c0.6,1,1.5,1.8,2.5,2.3c0.7,0.3,1.4,0.6,2.1,0.9c1.6,0.4,3.2,0.4,4.8,0
					c0.7-0.3,1.4-0.6,2.1-0.9c1.4-0.8,2.4-1.9,3.2-3.2c0.2-0.3,0.4-0.6,0.6-0.8c-0.5,0.6-0.9,1.2-1.4,1.8c1.7-2.2,3.7-4.1,5.9-5.8
					c-0.6,0.5-1.2,0.9-1.8,1.4c0.9-0.7,1.8-1.3,2.7-1.9c1-0.6,1.9-1.3,2.5-2.3c0.8-0.9,1.3-1.9,1.6-3.1c0.4-1.2,0.4-2.4,0.2-3.6
					c-0.1-1.2-0.4-2.3-1.1-3.3c-1.2-1.9-3.1-3.6-5.4-4.1c-0.8-0.1-1.6-0.2-2.4-0.3C697.5,991.7,695.9,992.1,694.5,992.9L694.5,992.9
					z"/>
			</g>
		</g>
		<g>
			<g>
				<path class="st4" d="M702.8,1001.7c0,1.3,0,2.5,0,3.8c0,1.2,0.2,2.4,0.8,3.5c0.4,1.1,1,2.1,1.9,2.9c0.8,0.9,1.8,1.5,2.9,1.9
					c1.1,0.6,2.2,0.8,3.5,0.8c0.8-0.1,1.6-0.2,2.4-0.3c1.5-0.4,2.8-1.2,4-2.3c0.5-0.6,0.9-1.2,1.4-1.8c0.8-1.4,1.2-2.9,1.2-4.5
					c0-1.3,0-2.5,0-3.8c0-1.2-0.2-2.4-0.8-3.5c-0.4-1.1-1-2.1-1.9-2.9c-0.8-0.9-1.8-1.5-2.9-1.9c-1.1-0.6-2.2-0.8-3.5-0.8
					c-0.8,0.1-1.6,0.2-2.4,0.3c-1.5,0.4-2.8,1.2-4,2.3c-0.5,0.6-0.9,1.2-1.4,1.8C703.2,998.6,702.8,1000.1,702.8,1001.7
					L702.8,1001.7z"/>
			</g>
		</g>
		<g>
			<g>
				<path class="st4" d="M721.1,1001c0,3,0,5.9,0,8.9c0,1.2,0.2,2.4,0.8,3.5c0.4,1.1,1,2.1,1.9,2.9c0.8,0.9,1.8,1.5,2.9,1.9
					c1.1,0.6,2.2,0.8,3.5,0.8c0.8-0.1,1.6-0.2,2.4-0.3c1.5-0.4,2.8-1.2,4-2.3c1.6-1.8,2.6-3.9,2.6-6.4c0-3,0-5.9,0-8.9
					c0-1.2-0.2-2.4-0.8-3.5c-0.4-1.1-1-2.1-1.9-2.9c-0.8-0.9-1.8-1.5-2.9-1.9c-1.1-0.6-2.2-0.8-3.5-0.8c-0.8,0.1-1.6,0.2-2.4,0.3
					c-1.5,0.4-2.8,1.2-4,2.3C722.1,996.4,721.1,998.6,721.1,1001L721.1,1001z"/>
			</g>
		</g>
		<g>
			<g>
				<path class="st4" d="M700.8,1012c0,0.5,0,0.9,0,1.4c0,1.2,0.2,2.4,0.8,3.5c0.4,1.1,1,2.1,1.9,2.9c0.8,0.9,1.8,1.5,2.9,1.9
					c1.1,0.6,2.2,0.8,3.5,0.8c0.8-0.1,1.6-0.2,2.4-0.3c1.5-0.4,2.8-1.2,4-2.3c0.5-0.6,0.9-1.2,1.4-1.8c0.8-1.4,1.2-2.9,1.2-4.5
					c0-0.5,0-0.9,0-1.4c0-1.2-0.2-2.4-0.8-3.5c-0.4-1.1-1-2.1-1.9-2.9c-0.8-0.9-1.8-1.5-2.9-1.9c-1.1-0.6-2.2-0.8-3.5-0.8
					c-0.8,0.1-1.6,0.2-2.4,0.3c-1.5,0.4-2.8,1.2-4,2.3c-0.5,0.6-0.9,1.2-1.4,1.8C701.2,1008.9,700.8,1010.4,700.8,1012L700.8,1012z"
					/>
			</g>
		</g>
		<g>
			<g>
				<path class="st4" d="M734.6,997.3c0.6,5.4,1.6,10.6,3.3,15.7c0.7,2.2,2.1,4.2,4.1,5.4c1,0.7,2.1,1,3.3,1.1
					c1.2,0.3,2.4,0.2,3.6-0.2c2.2-0.7,4.3-2.1,5.4-4.1c1.1-2.1,1.7-4.6,0.9-6.9c-1.3-3.9-2.2-8-2.8-12.1c0.1,0.8,0.2,1.6,0.3,2.4
					c-0.1-0.4-0.1-0.8-0.2-1.3c0-1.2-0.2-2.4-0.8-3.5c-0.4-1.1-1-2.1-1.9-2.9c-1.6-1.6-4.1-2.7-6.4-2.6c-2.3,0.1-4.7,0.9-6.4,2.6
					c-0.5,0.6-0.9,1.2-1.4,1.8C735,994.1,734.6,995.6,734.6,997.3L734.6,997.3z"/>
			</g>
		</g>
		<g>
			<g>
				<path class="st4" d="M750.9,1004.6c1.9,4.4,4.3,8.6,6.9,12.6c1.3,2,3.1,3.5,5.4,4.1c1.2,0.4,2.4,0.4,3.6,0.2
					c1.2-0.1,2.3-0.4,3.3-1.1c1.9-1.2,3.6-3.1,4.1-5.4c0.5-2.3,0.4-4.9-0.9-6.9c-2.6-4-5-8.2-6.9-12.6c-0.6-1-1.3-1.9-2.3-2.5
					c-0.9-0.8-1.9-1.3-3.1-1.6c-1.2-0.4-2.4-0.4-3.6-0.2c-1.2,0.1-2.3,0.4-3.3,1.1c-1.9,1.2-3.6,3.1-4.1,5.4
					c-0.1,0.8-0.2,1.6-0.3,2.4C749.7,1001.7,750.1,1003.2,750.9,1004.6L750.9,1004.6z"/>
			</g>
		</g>
		<g>
			<g>
				<path class="st4" d="M776.4,1010.2c1,0.2,2,0.5,2.9,0.9c-0.7-0.3-1.4-0.6-2.1-0.9c1.2,0.5,2.3,1.2,3.3,1.9
					c-0.6-0.5-1.2-0.9-1.8-1.4c1.6,1.2,2.9,2.7,4.2,4.3c-0.5-0.6-0.9-1.2-1.4-1.8c1.5,2,3,4,4.4,6c0.6,1,1.3,1.9,2.3,2.5
					c0.9,0.8,1.9,1.3,3.1,1.6c2.2,0.6,5,0.3,6.9-0.9c1.9-1.2,3.6-3.1,4.1-5.4c0.5-2.2,0.5-5-0.9-6.9c-2.5-3.5-5-7.2-7.9-10.3
					c-1.6-1.6-3.4-3.1-5.3-4.3c-1.3-0.8-2.8-1.4-4.2-1.9c-0.9-0.3-1.8-0.6-2.7-0.8c-1.2-0.4-2.4-0.4-3.6-0.2
					c-1.2,0.1-2.3,0.4-3.3,1.1c-1.9,1.1-3.6,3.2-4.1,5.4c-0.5,2.3-0.4,4.9,0.9,6.9C772.3,1008,774.1,1009.8,776.4,1010.2
					L776.4,1010.2z"/>
			</g>
		</g>
		<g>
			<g>
				<path class="st4" d="M795.2,1010c3.3,3,6.4,6.2,9.2,9.7c-0.5-0.6-0.9-1.2-1.4-1.8c4.1,5.3,7,11.1,9.6,17.2
					c-0.3-0.7-0.6-1.4-0.9-2.2c1.6,3.9,3.1,7.8,5.3,11.4c2.6,4.3,6,8.1,9.6,11.4c1.8,1.6,3.9,2.6,6.4,2.6c2.2,0,4.8-1,6.4-2.6
					c3.2-3.5,3.7-9.3,0-12.7c-2.1-1.9-4.2-4-5.9-6.3c0.5,0.6,0.9,1.2,1.4,1.8c-2.7-3.5-4.5-7.4-6.2-11.4c0.3,0.7,0.6,1.4,0.9,2.1
					c-2.3-5.5-4.6-11.1-7.9-16.1c-3.8-5.9-8.4-11.2-13.6-15.8c-1.8-1.6-3.9-2.6-6.4-2.6c-2.2,0-4.8,1-6.4,2.6
					C792.1,1000.7,791.5,1006.7,795.2,1010L795.2,1010z"/>
			</g>
		</g>
		<g>
			<g>
				<path class="st4" d="M611.2,1044.6c-2.3,8.3-3.3,17.1-2.7,25.7c0.2,2.4,0.9,4.6,2.6,6.4c1.6,1.6,4.1,2.7,6.4,2.6
					c2.3-0.1,4.7-0.9,6.4-2.6c1.6-1.7,2.8-4,2.6-6.4c-0.3-4.6-0.1-9.1,0.4-13.7c-0.1,0.8-0.2,1.6-0.3,2.4c0.4-3.3,1.1-6.5,2-9.6
					c1.2-4.5-1.5-10-6.3-11.1C617.5,1037.3,612.5,1039.8,611.2,1044.6L611.2,1044.6z"/>
			</g>
		</g>
		<g>
			<g>
				<path class="st4" d="M630.7,1073.4c0.3,0.9,0.5,1.8,0.6,2.7c-0.1-0.8-0.2-1.6-0.3-2.4c0.1,0.4,0.1,0.8,0,1.3
					c0.1-0.8,0.2-1.6,0.3-2.4c0,0.2-0.1,0.4-0.1,0.5c0.3-0.7,0.6-1.4,0.9-2.1c-0.4,1-1,2-1.3,3c-0.6,2.5-0.3,5.2,0.2,7.7
					c0.1,0.6,0.3,1.2,0.5,1.8c0.5,1.3,1,2.6,1.7,3.7c1.5,2.5,3.5,4.4,6,6.1c1,0.7,2.1,1,3.3,1.1c1.2,0.3,2.4,0.2,3.6-0.2
					c2.1-0.6,4.4-2.2,5.4-4.1c1.1-2.1,1.7-4.6,0.9-6.9c-0.3-0.7-0.6-1.4-0.9-2.1c-0.8-1.4-1.9-2.4-3.2-3.2c-0.2-0.1-0.4-0.3-0.6-0.4
					c0.6,0.5,1.2,0.9,1.8,1.4c-0.6-0.5-1.1-1-1.6-1.6c0.5,0.6,0.9,1.2,1.4,1.8c-0.5-0.6-0.8-1.3-1.1-1.9c0.3,0.7,0.6,1.4,0.9,2.2
					c-0.4-0.9-0.6-1.9-0.8-2.9c0.1,0.8,0.2,1.6,0.3,2.4c-0.1-0.8-0.2-1.6-0.1-2.3c-0.1,0.8-0.2,1.6-0.3,2.4c0-0.1,0-0.2,0.1-0.3
					c-0.3,0.7-0.6,1.4-0.9,2.2c0.1-0.2,0.2-0.4,0.3-0.5c0.9-1.9,1.3-3.1,1.4-5.2c0.1-2.1-0.4-4.3-1-6.3c-0.6-2.2-2.2-4.2-4.1-5.4
					c-1.9-1.1-4.8-1.6-6.9-0.9c-2.2,0.7-4.3,2.1-5.4,4.1C630.5,1068.6,630,1071,630.7,1073.4L630.7,1073.4z"/>
			</g>
		</g>
		<g>
			<g>
				<path class="st4" d="M475.7,888.1c0,8.6,0,17.1,0,25.7c0,4.7,4.1,9.2,9,9c4.9-0.2,9-4,9-9c0-8.6,0-17.1,0-25.7
					c0-4.7-4.1-9.2-9-9C479.8,879.3,475.7,883,475.7,888.1L475.7,888.1z"/>
			</g>
		</g>
		<g>
			<g>
				<path class="st4" d="M460,942.1c0.1,7.2,3.3,14,7,20c3.6,5.8,7.7,11.3,11.4,17.1c2,3,3.8,6.1,5.2,9.5c-0.3-0.7-0.6-1.4-0.9-2.1
					c0.8,2,1.5,4.1,1.8,6.2c-0.1-0.8-0.2-1.6-0.3-2.4c0.1,0.6,0.1,1.3,0.1,1.9c0,4.7,4.1,9.2,9,9c4.8-0.2,9-4,9-9
					c-0.1-7.2-3.3-14-7-20c-3.6-5.8-7.7-11.3-11.4-17.1c-2-3-3.8-6.1-5.2-9.5c0.3,0.7,0.6,1.4,0.9,2.1c-0.8-2-1.5-4.1-1.8-6.2
					c0.1,0.8,0.2,1.6,0.3,2.4c-0.1-0.6-0.1-1.3-0.1-1.9c0-4.7-4.1-9.2-9-9C464.2,933.3,460,937,460,942.1L460,942.1z"/>
			</g>
		</g>
		<g>
			<g>
				<path class="st4" d="M483.8,940c0.1,2.1,0.5,3.5,1.5,5.4c0.5,1,1.4,2,2.1,2.8c0.7,0.9,1.6,1.8,2.4,2.6c1.8,1.7,3.8,3.4,5.4,5.4
					c-0.5-0.6-0.9-1.2-1.4-1.8c0.3,0.4,0.6,0.8,0.8,1.2c-0.3-0.7-0.6-1.4-0.9-2.1c0.1,0.2,0.1,0.3,0.1,0.5c-0.1-0.8-0.2-1.6-0.3-2.4
					c0,0.1,0,0.1,0,0.2c0.1,2.3,1,4.7,2.6,6.4c0.8,0.9,1.8,1.5,2.9,1.9c1.1,0.6,2.2,0.8,3.5,0.8c2.3-0.1,4.7-0.9,6.4-2.6
					c1.6-1.7,2.7-3.9,2.6-6.4c-0.1-2.1-0.5-3.5-1.5-5.4c-0.5-1-1.4-2-2.1-2.8c-0.7-0.9-1.6-1.8-2.4-2.6c-1.8-1.7-3.8-3.4-5.4-5.4
					c0.5,0.6,0.9,1.2,1.4,1.8c-0.3-0.4-0.6-0.8-0.8-1.2c0.3,0.7,0.6,1.4,0.9,2.1c-0.1-0.2-0.1-0.3-0.1-0.5c0.1,0.8,0.2,1.6,0.3,2.4
					c0-0.1,0-0.1,0-0.2c-0.1-2.3-1-4.7-2.6-6.4c-0.8-0.9-1.8-1.5-2.9-1.9c-1.1-0.6-2.2-0.8-3.5-0.8c-2.3,0.1-4.7,0.9-6.4,2.6
					C484.8,935.4,483.7,937.6,483.8,940L483.8,940z"/>
			</g>
		</g>
		<g>
			<g>
				<path class="st4" d="M511.5,954.9c-1.1,5.8-0.7,11.4,0.4,17.2c0.9,4.5,2.1,8.8,2.8,13.3c-0.1-0.8-0.2-1.6-0.3-2.4
					c0.9,7-1.2,14.3,1.3,21.2c1.2,3.4,3,6.5,5.5,9.1c2.9,2.9,6.4,4.8,10.2,6.1c4.5,1.5,10-1.7,11.1-6.3c1.1-4.9-1.5-9.5-6.3-11.1
					c-0.5-0.2-1-0.3-1.5-0.5c0.7,0.3,1.4,0.6,2.1,0.9c-1.3-0.5-2.4-1.2-3.5-2.1c0.6,0.5,1.2,0.9,1.8,1.4c-0.9-0.7-1.7-1.5-2.4-2.4
					c0.5,0.6,0.9,1.2,1.4,1.8c-0.7-0.9-1.3-1.9-1.8-3c0.3,0.7,0.6,1.4,0.9,2.1c-0.5-1.3-0.9-2.6-1.1-4c0.1,0.8,0.2,1.6,0.3,2.4
					c-0.3-2.9-0.1-5.8,0.1-8.7c0.2-3.4-0.2-6.7-0.7-10.1c-0.8-5.3-2.4-10.4-3.2-15.7c0.1,0.8,0.2,1.6,0.3,2.4
					c-0.3-2.6-0.4-5.2-0.1-7.8c-0.1,0.8-0.2,1.6-0.3,2.4c0.1-0.4,0.1-0.9,0.2-1.3c0.5-2.4,0.4-4.8-0.9-6.9c-1.1-1.9-3.2-3.6-5.4-4.1
					c-2.3-0.5-4.9-0.4-6.9,0.9C513.8,950.7,512,952.6,511.5,954.9L511.5,954.9z"/>
			</g>
		</g>
		<g>
			<g>
				<path class="st4" d="M539.9,972.7c-0.5,8.2-0.6,16.8,0.9,24.8c1.6,8.8,9.4,13.7,16,18.7c-0.6-0.5-1.2-0.9-1.8-1.4
					c4.6,3.6,9,7.5,12.6,12.1c-0.5-0.6-0.9-1.2-1.4-1.8c1.7,2.2,3.1,4.5,4.3,7c0.9,1.9,3.4,3.6,5.4,4.1c2.2,0.6,5,0.3,6.9-0.9
					c1.9-1.2,3.6-3.1,4.1-5.4c0.6-2.5,0.2-4.6-0.9-6.9c-5.1-11.1-15.2-18.5-24.6-25.7c0.6,0.5,1.2,0.9,1.8,1.4
					c-1.8-1.4-3.6-2.9-5.1-4.7c0.5,0.6,0.9,1.2,1.4,1.8c-0.6-0.8-1.1-1.7-1.6-2.6c0.3,0.7,0.6,1.4,0.9,2.1c-0.4-1.1-0.7-2.2-0.9-3.4
					c0.1,0.8,0.2,1.6,0.3,2.4c-0.9-7.1-0.9-14.4-0.5-21.6c0.3-4.7-4.4-9.2-9-9C543.7,963.9,540.2,967.7,539.9,972.7L539.9,972.7z"/>
			</g>
		</g>
		<g>
			<g>
				<path class="st4" d="M507.5,1018.8c-1,4.3-1,8.7,0.2,13c1.2,4.4,3.5,8.2,6.5,11.7c2.6,3.2,6.1,5.6,9.4,8c3.3,2.4,6.6,4.7,10,7.1
					c1.8,1.3,4.9,1.5,6.9,0.9c2.1-0.6,4.4-2.2,5.4-4.1c1.1-2.1,1.7-4.6,0.9-6.9c-0.8-2.3-2.1-3.9-4.1-5.4c-4.2-3-8.4-5.9-12.5-9
					c0.6,0.5,1.2,0.9,1.8,1.4c-2.1-1.6-4-3.3-5.6-5.3c0.5,0.6,0.9,1.2,1.4,1.8c-1.1-1.5-2.1-3-2.8-4.8c0.3,0.7,0.6,1.4,0.9,2.1
					c-0.6-1.5-1-3.1-1.3-4.7c0.1,0.8,0.2,1.6,0.3,2.4c-0.2-1.5-0.2-2.9,0-4.4c-0.1,0.8-0.2,1.6-0.3,2.4c0.1-0.5,0.2-1,0.3-1.5
					c0.5-2.4,0.3-4.8-0.9-6.9c-1.1-1.9-3.2-3.6-5.4-4.1C514,1011.5,508.6,1013.9,507.5,1018.8L507.5,1018.8z"/>
			</g>
		</g>
		<g>
			<g>
				<path class="st4" d="M550.6,1049.5c0.3,6.2,0.2,12.4-0.3,18.5c-0.2,2.2,1.1,4.8,2.6,6.4c1.6,1.6,4.1,2.7,6.4,2.6
					c2.3-0.1,4.7-0.9,6.4-2.6c1.7-1.8,2.5-3.9,2.6-6.4c0.4-6.2,0.5-12.3,0.3-18.5c-0.1-2.4-0.9-4.7-2.6-6.4
					c-1.6-1.6-4.1-2.7-6.4-2.6c-2.3,0.1-4.7,0.9-6.4,2.6C551.6,1044.8,550.5,1047.1,550.6,1049.5L550.6,1049.5z"/>
			</g>
		</g>
		<g>
			<g>
				<path class="st4" d="M572.8,1046.3c0.2,11.7,0.4,23.3,0.6,35c0.1,4.7,4.1,9.2,9,9c4.8-0.2,9.1-4,9-9c-0.2-11.7-0.4-23.3-0.6-35
					c-0.1-4.7-4.1-9.2-9-9C577,1037.5,572.7,1041.3,572.8,1046.3L572.8,1046.3z"/>
			</g>
		</g>
		<g>
			<g>
				<path class="st4" d="M589.3,1072.2c-0.4,5.3-0.6,11,1.4,16c2.2,5.5,5.7,10.1,10.9,13.2c8,4.9,17.5,4.7,26.1,7.9
					c2.1,0.8,5.1,0.2,6.9-0.9c1.9-1.1,3.6-3.2,4.1-5.4c0.5-2.3,0.4-4.9-0.9-6.9c-1.3-2.1-3.1-3.3-5.4-4.1
					c-6.9-2.6-14.4-2.8-21.2-5.6c0.7,0.3,1.4,0.6,2.1,0.9c-1.6-0.7-3.1-1.5-4.5-2.6c0.6,0.5,1.2,0.9,1.8,1.4c-1.1-0.9-2.1-1.9-2.9-3
					c0.5,0.6,0.9,1.2,1.4,1.8c-0.9-1.1-1.6-2.4-2.1-3.7c0.3,0.7,0.6,1.4,0.9,2.2c-0.5-1.4-0.9-2.8-1.1-4.2c0.1,0.8,0.2,1.6,0.3,2.4
					c-0.4-3.1-0.2-6.3,0.1-9.4c0.2-2.2-1.1-4.9-2.6-6.4c-1.6-1.6-4.1-2.7-6.4-2.6c-2.3,0.1-4.7,0.9-6.4,2.6
					C590.3,1067.7,589.5,1069.7,589.3,1072.2L589.3,1072.2z"/>
			</g>
		</g>
		<g>
			<g>
				<path class="st4" d="M707,1071.9c1.3-1.5,2.7-2.9,4.3-4.1c-0.6,0.5-1.2,0.9-1.8,1.4c1.9-1.5,4-2.7,6.2-3.7
					c-0.7,0.3-1.4,0.6-2.1,0.9c0.6-0.2,1.1-0.4,1.7-0.5c-0.8,0.1-1.6,0.2-2.4,0.3c0.4,0,0.8,0,1.2,0c-0.8-0.1-1.6-0.2-2.4-0.3
					c0.4,0.1,0.7,0.2,1,0.3c-0.7-0.3-1.4-0.6-2.1-0.9c0.4,0.2,0.8,0.4,1.2,0.7c-0.6-0.5-1.2-0.9-1.8-1.4c0.3,0.3,0.6,0.6,0.9,0.9
					c-0.5-0.6-0.9-1.2-1.4-1.8c2,2.7,3.5,5.5,6.7,7.1c3.5,1.7,8,1.6,10.9-1.4c1.3-1.4,2.6-2.9,4.1-4.1c-0.6,0.5-1.2,0.9-1.8,1.4
					c0.5-0.4,1-0.7,1.5-1c-0.7,0.3-1.4,0.6-2.1,0.9c0.5-0.2,0.9-0.3,1.4-0.4c-0.8,0.1-1.6,0.2-2.4,0.3c0.4,0,0.8,0,1.2,0
					c-0.8-0.1-1.6-0.2-2.4-0.3c0.3,0.1,0.6,0.1,0.9,0.2c-0.7-0.3-1.4-0.6-2.1-0.9c0.4,0.2,0.7,0.3,1,0.6c-0.6-0.5-1.2-0.9-1.8-1.4
					c0.4,0.3,0.7,0.6,0.9,1c-0.5-0.6-0.9-1.2-1.4-1.8c2.1,2.8,3.9,5.4,7.3,6.8c3.2,1.4,6.6,1.1,9.7-0.5c1.6-0.8,2.8-2.2,4.1-3.3
					c-0.6,0.5-1.2,0.9-1.8,1.4c0.3-0.2,0.6-0.4,1-0.6c-0.7,0.3-1.4,0.6-2.1,0.9c0.4-0.1,0.7-0.2,1.1-0.3c-0.8,0.1-1.6,0.2-2.4,0.3
					c0.6-0.1,1.3-0.1,1.9,0c-0.8-0.1-1.6-0.2-2.4-0.3c0.6,0.1,1.2,0.3,1.8,0.5c-0.7-0.3-1.4-0.6-2.1-0.9c0.9,0.4,1.6,0.9,2.4,1.4
					c-0.6-0.5-1.2-0.9-1.8-1.4c0.4,0.3,0.8,0.6,1.2,1c1.8,1.6,3.9,2.6,6.4,2.6c2.2,0,4.8-1,6.4-2.6c1.6-1.7,2.7-4,2.6-6.4
					c-0.1-2.3-0.8-4.8-2.6-6.4c-1.4-1.2-2.9-2.6-4.6-3.5c-2.4-1.3-4.6-1.9-7.3-2.1c-2.5-0.2-5.1,0.4-7.3,1.6c-1.7,0.8-3,2.3-4.5,3.4
					c0.6-0.5,1.2-0.9,1.8-1.4c-0.3,0.2-0.6,0.4-0.9,0.5c0.7-0.3,1.4-0.6,2.1-0.9c-0.1,0-0.2,0.1-0.3,0.1c0.8-0.1,1.6-0.2,2.4-0.3
					c-0.2,0.1-0.5,0-0.7,0c0.8,0.1,1.6,0.2,2.4,0.3c-0.1,0-0.2-0.1-0.4-0.1c0.7,0.3,1.4,0.6,2.1,0.9c-0.3-0.2-0.5-0.3-0.8-0.5
					c0.6,0.5,1.2,0.9,1.8,1.4c-0.4-0.3-0.7-0.7-1-1c0.5,0.6,0.9,1.2,1.4,1.8c-1.1-1.5-2.1-3.1-3.5-4.4c-2.6-2.3-5.9-3.6-9.4-3.4
					c-3.7,0.2-6.8,1.8-9.6,4.2c-1.4,1.2-2.6,2.6-3.8,3.9c3.6-0.5,7.3-0.9,10.9-1.4c-0.3-0.2-0.6-0.3-0.9-0.6
					c0.6,0.5,1.2,0.9,1.8,1.4c-0.3-0.3-0.6-0.6-0.9-0.9c0.5,0.6,0.9,1.2,1.4,1.8c-0.5-0.7-0.9-1.4-1.4-2.1c-1.4-2-2.7-3.4-4.7-4.7
					c-1.9-1.3-4.2-1.8-6.5-2c-2.6-0.2-5,0.7-7.3,1.7c-4.6,2.1-9.1,5.3-12.3,9.2c-1.6,1.9-2.6,3.8-2.6,6.4c0,2.2,1,4.8,2.6,6.4
					c1.7,1.6,4,2.7,6.4,2.6C702.9,1074.5,705.5,1073.7,707,1071.9L707,1071.9z"/>
			</g>
		</g>
		<g>
			<g>
				<path class="st4" d="M645,1114c8.1,1.4,16.2,3.4,24.4,3.3c1.9,0,3.8-0.1,5.7-0.4c2.6-0.3,5-0.5,7.3-1.9c2.5-1.6,4.6-3.8,7-5.6
					c-0.6,0.5-1.2,0.9-1.8,1.4c0.5-0.4,1.1-0.8,1.7-1.1c-0.7,0.3-1.4,0.6-2.1,0.9c0.2-0.1,0.3-0.1,0.5-0.1c-0.8,0.1-1.6,0.2-2.4,0.3
					c0.1,0,0.3,0,0.4,0c-0.8-0.1-1.6-0.2-2.4-0.3c0.8,0.2,1.6,0.4,2.4,0.7c-0.7-0.3-1.4-0.6-2.1-0.9c3.6,1.6,7,3.3,10.6,4.7
					c3.1,1.2,6.3,2.1,9.6,2.7c4.4,0.8,8.6,1.1,13,0.4c4.4-0.8,8.1-3.4,10.6-7.1c2.6-3.9,0.9-10.1-3.2-12.3c-4.5-2.4-9.5-1-12.3,3.2
					c-0.1,0.1-0.2,0.2-0.2,0.4c0.5-0.6,0.9-1.2,1.4-1.8c-0.3,0.4-0.7,0.7-1.1,1.1c0.6-0.5,1.2-0.9,1.8-1.4c-0.5,0.4-1,0.6-1.5,0.9
					c0.7-0.3,1.4-0.6,2.1-0.9c-0.8,0.3-1.7,0.6-2.6,0.7c0.8-0.1,1.6-0.2,2.4-0.3c-2,0.3-4.1,0.2-6.1-0.1c0.8,0.1,1.6,0.2,2.4,0.3
					c-5-0.7-9.8-2.2-14.4-4.2c0.7,0.3,1.4,0.6,2.1,0.9c-4.9-2.1-10-5.8-15.6-4.2c-4.1,1.2-7,4.6-10.3,7.1c0.6-0.5,1.2-0.9,1.8-1.4
					c-0.4,0.3-0.9,0.6-1.4,0.9c0.7-0.3,1.4-0.6,2.1-0.9c-0.6,0.2-1.2,0.3-1.8,0.3c0.8-0.1,1.6-0.2,2.4-0.3
					c-4.7,0.6-9.4,0.5-14.1-0.2c0.8,0.1,1.6,0.2,2.4,0.3c-4.6-0.6-9.2-1.6-13.8-2.4c-2.4-0.4-4.7-0.4-6.9,0.9
					c-1.9,1.1-3.6,3.2-4.1,5.4c-0.5,2.3-0.4,4.9,0.9,6.9C640.8,1111.7,642.7,1113.6,645,1114L645,1114z"/>
			</g>
		</g>
		<g>
			<g>
				<path class="st4" d="M761.5,1116.7c2.7,0,5.3,0,8,0c3.2,0,6.3,0.1,9.5-0.5c3.3-0.6,6.3-2.5,8.7-4.7c1.5-1.4,2.8-3.1,4.4-4.4
					c-0.6,0.5-1.2,0.9-1.8,1.4c0.8-0.6,1.5-1,2.4-1.4c-0.7,0.3-1.4,0.6-2.1,0.9c1.5-0.6,3.1-1,4.7-1.2c-0.8,0.1-1.6,0.2-2.4,0.3
					c6.1-0.8,12.3-1,18.4-1.3c2.4-0.1,4.6-0.9,6.4-2.6c1.6-1.6,2.7-4.1,2.6-6.4c-0.2-4.7-4-9.3-9-9c-7,0.4-14.1,0.6-21,1.7
					c-4.1,0.6-7.6,2.3-10.8,4.9c-1.9,1.5-3.3,3.6-5.2,5.1c0.6-0.5,1.2-0.9,1.8-1.4c-0.6,0.5-1.2,0.8-1.9,1.2
					c0.7-0.3,1.4-0.6,2.1-0.9c-0.7,0.3-1.3,0.4-2,0.5c0.8-0.1,1.6-0.2,2.4-0.3c-2.4,0.3-4.9,0.1-7.4,0.1c-2.6,0-5.2,0-7.8,0
					c-4.7,0-9.2,4.1-9,9C752.7,1112.5,756.4,1116.7,761.5,1116.7L761.5,1116.7z"/>
			</g>
		</g>
		<g>
			<g>
				<path class="st4" d="M796.7,1048.1c0,2,0.6,4,1.2,5.9c0.6,2,1.3,4.1,1.9,6.1c0.7,2.1,1.4,4.2,2,6.3c0.4,1.4,0.9,2.8,1.1,4.3
					c-0.1-0.8-0.2-1.6-0.3-2.4c0,0.1,0,0.2,0,0.3c0,2.3,1,4.7,2.6,6.4c1.6,1.6,4.1,2.7,6.4,2.6c2.3-0.1,4.7-0.9,6.4-2.6
					c1.6-1.7,2.7-3.9,2.6-6.4c0-2-0.6-4-1.2-5.9c-0.6-2-1.3-4.1-1.9-6.1c-0.7-2.1-1.4-4.2-2-6.3c-0.4-1.4-0.9-2.8-1.1-4.3
					c0.1,0.8,0.2,1.6,0.3,2.4c0-0.1,0-0.2,0-0.3c0-2.3-1-4.7-2.6-6.4c-1.6-1.6-4.1-2.7-6.4-2.6c-2.3,0.1-4.7,0.9-6.4,2.6
					C797.8,1043.4,796.7,1045.6,796.7,1048.1L796.7,1048.1z"/>
			</g>
		</g>
		<g>
			<g>
				<path class="st4" d="M777.1,1059.3c-0.3,3.5-0.5,7.1-0.9,10.6c0.1-0.8,0.2-1.6,0.3-2.4c-0.1,0.4-0.1,0.7-0.3,1.1
					c0.3-0.7,0.6-1.4,0.9-2.1c-0.1,0.2-0.2,0.5-0.4,0.7c0.5-0.6,0.9-1.2,1.4-1.8c-0.3,0.3-0.5,0.5-0.8,0.8c0.6-0.5,1.2-0.9,1.8-1.4
					c-1.3,0.9-2.7,1.5-4.2,2.1c0.7-0.3,1.4-0.6,2.1-0.9c-6.3,2.6-12.9,4.3-19.6,5.3c-2.1,0.3-4.4,2.4-5.4,4.1
					c-1.1,1.9-1.6,4.8-0.9,6.9c0.7,2.2,2.1,4.3,4.1,5.4c0.7,0.3,1.4,0.6,2.1,0.9c1.6,0.4,3.2,0.4,4.8,0c7.1-1,14-2.9,20.6-5.7
					c1.7-0.7,3.5-1.4,5.1-2.4c2.8-1.9,5.2-4.6,5.8-8c0.7-4.3,0.9-8.7,1.2-13c0.2-2.2-1.1-4.9-2.6-6.4c-1.6-1.6-4.1-2.7-6.4-2.6
					c-2.3,0.1-4.7,0.9-6.4,2.6C778,1054.8,777.3,1056.8,777.1,1059.3L777.1,1059.3z"/>
			</g>
		</g>
		<g>
			<g>
				<path class="st4" d="M670.6,1053.3c-4.7-1.7-9.8,0.8-12.4,4.8c-1.6,2.4-2.1,5.3-2.3,8.2c-0.1,2.7,0.3,5.4,1.1,8
					c0.9,2.9,2.2,5.8,4,8.2c2.6,3.5,5.7,6.6,9.7,8.4c2.2,1,4.5,1.6,6.9,0.9c2.1-0.6,4.4-2.2,5.4-4.1c1.1-2.1,1.7-4.6,0.9-6.9
					c-0.7-2.1-2-4.4-4.1-5.4c-1.2-0.5-2.3-1.2-3.3-2c0.6,0.5,1.2,0.9,1.8,1.4c-1.2-0.9-2.3-2-3.2-3.2c0.5,0.6,0.9,1.2,1.4,1.8
					c-1-1.3-1.7-2.6-2.4-4.1c0.3,0.7,0.6,1.4,0.9,2.1c-0.7-1.6-1.1-3.2-1.4-4.9c0.1,0.8,0.2,1.6,0.3,2.4c-0.2-1.2-0.2-2.5-0.1-3.7
					c-0.1,0.8-0.2,1.6-0.3,2.4c0.1-0.6,0.2-1.2,0.5-1.8c-0.3,0.7-0.6,1.4-0.9,2.1c0.1-0.3,0.3-0.6,0.5-0.8c-0.5,0.6-0.9,1.2-1.4,1.8
					c0.1-0.1,0.2-0.3,0.4-0.4c-0.6,0.5-1.2,0.9-1.8,1.4c0.1-0.1,0.2-0.2,0.4-0.2c-0.7,0.3-1.4,0.6-2.1,0.9c0.1-0.1,0.3-0.1,0.4-0.1
					c-0.8,0.1-1.6,0.2-2.4,0.3c0.2,0,0.4,0,0.5,0c-0.8-0.1-1.6-0.2-2.4-0.3c0.2,0,0.3,0.1,0.5,0.1c2.1,0.8,5.1,0.2,6.9-0.9
					c1.9-1.1,3.6-3.2,4.1-5.4c0.5-2.3,0.4-4.9-0.9-6.9C674.7,1055.3,672.9,1054.1,670.6,1053.3L670.6,1053.3z"/>
			</g>
		</g>
		<g>
			<g>
				<path class="st4" d="M907.6,965.1c4.7,0,9.2-4.1,9-9c-0.2-4.9-4-9-9-9c-4.7,0-9.2,4.1-9,9C898.9,961,902.6,965.1,907.6,965.1
					L907.6,965.1z"/>
			</g>
		</g>
		<g>
			<g>
				<path class="st4" d="M926.5,945.5c0.1,0.6,0.2,1.3,0.3,1.9c-0.1-0.8-0.2-1.6-0.3-2.4c0.3,2.5,0.5,5,0.2,7.4
					c0.1-0.8,0.2-1.6,0.3-2.4c-0.2,1.6-0.6,3.1-1.2,4.6c0.3-0.7,0.6-1.4,0.9-2.1c-0.9,2.1-2.2,4-3.5,5.8c0.5-0.6,0.9-1.2,1.4-1.8
					c-3.2,4.1-6.8,7.9-10.1,11.9c-2.7,3.3-5.9,6-9.3,8.6c0.6-0.5,1.2-0.9,1.8-1.4c-6.4,5-13.4,9.2-20.2,13.7
					c-6.9,4.6-14,9.3-19.9,15.3c-3,3.1-5.9,6.6-7.7,10.5c-1.1,2.2-1.6,4.5-0.9,6.9c0.6,2.1,2.2,4.3,4.1,5.4c2.1,1.1,4.6,1.7,6.9,0.9
					c2.1-0.7,4.4-2,5.4-4.1c0.8-1.8,1.9-3.4,3-4.9c-0.5,0.6-0.9,1.2-1.4,1.8c3-3.8,6.6-7,10.4-9.9c-0.6,0.5-1.2,0.9-1.8,1.4
					c9.6-7.4,20.2-13.2,29.8-20.4c2.7-2.1,5.5-4.2,8-6.5c2-1.9,3.8-3.9,5.6-6c4.2-5,9.1-9.8,12.5-15.4c1.7-2.8,3-6.1,3.5-9.3
					c0.3-2.2,0.6-4.3,0.5-6.5c-0.1-2.6-0.5-5.2-0.9-7.7c-0.4-2.1-2.4-4.3-4.1-5.4c-1.9-1.1-4.8-1.6-6.9-0.9
					c-2.2,0.7-4.3,2.1-5.4,4.1C926.2,940.8,926.1,943,926.5,945.5L926.5,945.5z"/>
			</g>
		</g>
		<g>
			<g>
				<path class="st4" d="M913.5,1003.1c0,0.1,0,0.3,0.1,0.4c-0.1-0.8-0.2-1.6-0.3-2.4c0.3,2.3,0.3,4.5,0,6.8
					c0.1-0.8,0.2-1.6,0.3-2.4c-0.4,2.7-1.2,5.3-2.2,7.8c0.3-0.7,0.6-1.4,0.9-2.1c-1.4,3.3-3.3,6.4-5.6,9.3c0.5-0.6,0.9-1.2,1.4-1.8
					c-3.8,4.9-8.5,9.1-13.4,12.9c0.6-0.5,1.2-0.9,1.8-1.4c-3.9,3-8.1,5.8-12.3,8.4c-4,2.5-5.9,8.2-3.2,12.3c2.6,4,8,5.9,12.3,3.2
					c15.1-9.3,31-21.4,36.5-39.1c0.8-2.6,1.2-5.4,1.5-8.1c0.3-2.9-0.1-5.7-0.5-8.6c-0.3-2.1-2.4-4.4-4.1-5.4
					c-1.9-1.1-4.8-1.6-6.9-0.9c-2.2,0.7-4.3,2.1-5.4,4.1c-0.3,0.7-0.6,1.4-0.9,2.1C913,999.9,913,1001.5,913.5,1003.1L913.5,1003.1z
					"/>
			</g>
		</g>
		<g>
			<g>
				<path class="st4" d="M855,1044.2c0,7.3,0,14.6,0,21.9c0,2.3,1,4.7,2.6,6.4c1.6,1.6,4.1,2.7,6.4,2.6c4.9-0.2,9-4,9-9
					c0-7.3,0-14.6,0-21.9c0-2.3-1-4.7-2.6-6.4c-1.6-1.6-4.1-2.7-6.4-2.6C859.1,1035.5,855,1039.2,855,1044.2L855,1044.2z"/>
			</g>
		</g>
		<g>
			<g>
				<path class="st4" d="M831.5,1066.2c-0.5,2.1-0.6,4.2-0.4,6.4c0.1,1.4,0.3,2.8,0.1,4.2c0.1-0.8,0.2-1.6,0.3-2.4
					c-0.1,0.6-0.2,1.1-0.4,1.6c0.3-0.7,0.6-1.4,0.9-2.1c-0.2,0.5-0.5,0.9-0.8,1.3c0.5-0.6,0.9-1.2,1.4-1.8c-0.3,0.4-0.7,0.8-1.1,1.1
					c0.6-0.5,1.2-0.9,1.8-1.4c-0.8,0.6-1.7,1.1-2.6,1.5c0.7-0.3,1.4-0.6,2.1-0.9c-2.8,1.1-5.8,1.7-8.7,2.1c-2.1,0.3-4.4,2.4-5.4,4.1
					c-1.1,1.9-1.6,4.8-0.9,6.9c0.7,2.2,2.1,4.3,4.1,5.4c0.7,0.3,1.4,0.6,2.1,0.9c1.6,0.4,3.2,0.4,4.8,0c5.6-0.9,11.2-2.3,15.6-6.2
					c3.2-2.8,4.7-7,4.8-11.1c0.1-2.2-0.5-4.4-0.3-6.6c-0.1,0.8-0.2,1.6-0.3,2.4c0-0.2,0.1-0.5,0.1-0.7c0.5-2.4,0.3-4.8-0.9-6.9
					c-1.1-1.9-3.2-3.6-5.4-4.1c-2.3-0.5-4.9-0.4-6.9,0.9C833.7,1062,832,1063.9,831.5,1066.2L831.5,1066.2z"/>
			</g>
		</g>
		<g>
			<g>
				<path class="st4" d="M864.5,1038c-2.7-4-5.9-7.5-9.6-10.5c-2.9-2.3-6-4.4-8.3-7.3c0.5,0.6,0.9,1.2,1.4,1.8
					c-0.5-0.7-1-1.4-1.4-2.3c0.3,0.7,0.6,1.4,0.9,2.1c-0.2-0.4-0.3-0.8-0.4-1.2c-0.6-2.2-2.2-4.2-4.1-5.4c-1.9-1.1-4.8-1.6-6.9-0.9
					c-2.2,0.7-4.3,2.1-5.4,4.1c-1.1,2.1-1.6,4.6-0.9,6.9c1.5,5.2,5.3,9.1,9.4,12.4c3.6,2.8,7.1,5.6,9.9,9.2
					c-0.5-0.6-0.9-1.2-1.4-1.8c0.5,0.6,0.9,1.2,1.3,1.8c1.3,2,3,3.5,5.4,4.1c2.2,0.6,5,0.3,6.9-0.9c1.9-1.2,3.6-3.1,4.1-5.4
					C865.9,1042.6,865.8,1039.9,864.5,1038L864.5,1038z"/>
			</g>
		</g>
		<g>
			<g>
				<path class="st4" d="M649.3,1054c0.7-0.9,1.1-2.1,1.4-3.2c0.1-0.4,0.3-0.8,0.3-1.2c0.3-1.7,0.4-3.4,0.7-5.1
					c-0.1,0.8-0.2,1.6-0.3,2.4c0.2-1.3,0.5-2.5,1-3.7c-0.3,0.7-0.6,1.4-0.9,2.1c0.4-1,1-1.9,1.6-2.8c0.7-1,1-2.1,1.1-3.3
					c0.3-1.2,0.2-2.4-0.2-3.6c-0.3-1.2-0.8-2.2-1.6-3.1c-0.6-1-1.5-1.8-2.5-2.3c-2.1-1.1-4.6-1.7-6.9-0.9c-0.7,0.3-1.4,0.6-2.1,0.9
					c-1.4,0.8-2.4,1.9-3.2,3.2c-0.6,0.8-1.1,1.7-1.5,2.6c-0.6,1.4-1.3,2.8-1.6,4.3c-0.5,2-0.6,4.2-0.9,6.2c0.1-0.8,0.2-1.6,0.3-2.4
					c-0.1,0.7-0.2,1.3-0.5,2c0.3-0.7,0.6-1.4,0.9-2.1c-0.1,0.3-0.3,0.6-0.5,0.9c-0.7,1-1,2.1-1.1,3.3c-0.3,1.2-0.2,2.4,0.2,3.6
					c0.3,1.2,0.8,2.2,1.6,3.1c0.6,1,1.5,1.8,2.5,2.3c2.1,1.1,4.6,1.7,6.9,0.9c0.7-0.3,1.4-0.6,2.1-0.9
					C647.4,1056.4,648.5,1055.4,649.3,1054L649.3,1054z"/>
			</g>
		</g>
		<g>
			<g>
				<path class="st4" d="M614.5,1016.9c0.5-0.8,1-1.6,1.6-2.4c-0.5,0.6-0.9,1.2-1.4,1.8c1.3-1.6,2.7-3,4.4-4.3
					c-0.6,0.5-1.2,0.9-1.8,1.4c2.3-1.8,4.8-3.2,7.5-4.3c-0.7,0.3-1.4,0.6-2.1,0.9c2.2-0.9,4.4-1.6,6.7-2.1c2.1-0.5,4.3-2.3,5.4-4.1
					c1.1-1.9,1.6-4.8,0.9-6.9c-1.6-4.8-6.1-7.4-11.1-6.3c-10,2.3-20.3,8-25.5,17.2c-1.2,2.1-1.5,4.6-0.9,6.9
					c0.6,2.1,2.2,4.4,4.1,5.4C606.4,1022.3,612,1021.2,614.5,1016.9L614.5,1016.9z"/>
			</g>
		</g>
		<g>
			<g>
				<path class="st4" d="M823.8,1005.1c5.8,3.7,12.8,3.8,19,6.4c-0.7-0.3-1.4-0.6-2.1-0.9c0.9,0.4,1.8,0.9,2.6,1.5
					c-0.6-0.5-1.2-0.9-1.8-1.4c0.4,0.3,0.8,0.7,1.1,1.1c-0.5-0.6-0.9-1.2-1.4-1.8c0.3,0.3,0.5,0.7,0.7,1.1c0.9,1.9,3.4,3.6,5.4,4.1
					c2.2,0.6,5,0.3,6.9-0.9c1.9-1.2,3.6-3.1,4.1-5.4c0.1-0.8,0.2-1.6,0.3-2.4c0-1.6-0.4-3.1-1.2-4.5c-2.2-4.9-7.9-7.4-12.8-8.8
					c-3.8-1.1-7.8-1.7-11.5-3.2c0.7,0.3,1.4,0.6,2.1,0.9c-0.8-0.3-1.6-0.7-2.3-1.2c-4-2.5-10.1-1-12.3,3.2
					C818.2,997.2,819.5,1002.4,823.8,1005.1L823.8,1005.1z"/>
			</g>
		</g>
		<g>
			<g>
				<path class="st4" d="M704,1081.9c0,1.5,0,3.1,0,4.6c0,1.2,0.2,2.4,0.8,3.5c0.4,1.1,1,2.1,1.9,2.9c0.8,0.9,1.8,1.5,2.9,1.9
					c1.1,0.6,2.2,0.8,3.5,0.8c0.8-0.1,1.6-0.2,2.4-0.3c1.5-0.4,2.8-1.2,4-2.3c0.5-0.6,0.9-1.2,1.4-1.8c0.8-1.4,1.2-2.9,1.2-4.5
					c0-1.5,0-3.1,0-4.6c0-1.2-0.2-2.4-0.8-3.5c-0.4-1.1-1-2.1-1.9-2.9c-0.8-0.9-1.8-1.5-2.9-1.9c-1.1-0.6-2.2-0.8-3.5-0.8
					c-0.8,0.1-1.6,0.2-2.4,0.3c-1.5,0.4-2.8,1.2-4,2.3c-0.5,0.6-0.9,1.2-1.4,1.8C704.5,1078.8,704.1,1080.3,704,1081.9L704,1081.9z"
					/>
			</g>
		</g>
		<g>
			<g>
				<path class="st4" d="M725.3,1083.1c0,0.6,0,1.1,0,1.7c6,0,12,0,18,0c0,0,0,0,0,0c0-1.2-0.2-2.4-0.8-3.5c-0.4-1.1-1-2.1-1.9-2.9
					c-0.8-0.9-1.8-1.5-2.9-1.9c-1.1-0.6-2.2-0.8-3.5-0.8c-0.8,0.1-1.6,0.2-2.4,0.3c-1.5,0.4-2.8,1.2-4,2.3c-0.5,0.6-0.9,1.2-1.4,1.8
					c-0.8,1.4-1.2,2.9-1.2,4.5c0,0.6,0,1.1,0,1.7c0,1.2,0.2,2.4,0.8,3.5c0.4,1.1,1,2.1,1.9,2.9c0.8,0.9,1.8,1.5,2.9,1.9
					c1.1,0.6,2.2,0.8,3.5,0.8c0.8-0.1,1.6-0.2,2.4-0.3c1.5-0.4,2.8-1.2,4-2.3c0.5-0.6,0.9-1.2,1.4-1.8c0.8-1.4,1.2-2.9,1.2-4.5
					c0-0.6,0-1.1,0-1.7c-6,0-12,0-18,0c0,0,0,0,0,0c0,1.2,0.2,2.4,0.8,3.5c0.4,1.1,1,2.1,1.9,2.9c0.8,0.9,1.8,1.5,2.9,1.9
					c1.1,0.6,2.2,0.8,3.5,0.8c0.8-0.1,1.6-0.2,2.4-0.3c1.5-0.4,2.8-1.2,4-2.3c0.5-0.6,0.9-1.2,1.4-1.8c0.8-1.4,1.2-2.9,1.2-4.5
					c0-0.6,0-1.1,0-1.7c0-1.2-0.2-2.4-0.8-3.5c-0.4-1.1-1-2.1-1.9-2.9c-0.8-0.9-1.8-1.5-2.9-1.9c-1.1-0.6-2.2-0.8-3.5-0.8
					c-0.8,0.1-1.6,0.2-2.4,0.3c-1.5,0.4-2.8,1.2-4,2.3c-0.5,0.6-0.9,1.2-1.4,1.8C725.7,1079.9,725.3,1081.4,725.3,1083.1
					L725.3,1083.1z"/>
			</g>
		</g>
		<g>
			<g>
				<path class="st4" d="M861.1,730.6c-0.3,2.1-0.5,4-0.3,6.1c0.3,2.4,0.6,4.7,1.3,6.9c1.3,4.3,3.1,8.5,5.1,12.5
					c3.7,7.5,8.4,14.7,13.7,21.2c3.7,4.5,8.6,7.7,13.1,11.2c-0.6-0.5-1.2-0.9-1.8-1.4c1.3,1,2.7,1.9,3.6,3.2
					c-0.5-0.6-0.9-1.2-1.4-1.8c1.5,1.9,2.4,4.2,3.4,6.4c-0.3-0.7-0.6-1.4-0.9-2.1c3.5,8.3,6.1,17,8.5,25.7c0.9,3.4,1.5,6.8,3.1,10
					c1.2,2.4,3,4.6,4.7,6.7c1.7,2,3.5,4,5.4,5.8c4.3,4.2,9,8.3,14,11.7c1.9,1.3,4.8,1.5,6.9,0.9c2.1-0.6,4.3-2.2,5.4-4.1
					c2.4-4.5,0.9-9.5-3.2-12.3c-0.9-0.6-1.8-1.2-2.6-1.9c0.6,0.5,1.2,0.9,1.8,1.4c-5.8-4.5-11.3-9.6-15.8-15.3
					c0.5,0.6,0.9,1.2,1.4,1.8c-1.1-1.4-2.1-2.8-2.8-4.5c0.3,0.7,0.6,1.4,0.9,2.1c-0.8-2-1.1-4.4-1.7-6.5c-0.9-3.5-1.9-7-3-10.4
					c-1.2-3.9-2.5-7.7-3.9-11.5c-1.4-3.8-2.9-7.6-4.8-11.1c-3-5.2-8.2-8.3-12.8-11.9c0.6,0.5,1.2,0.9,1.8,1.4
					c-3.1-2.4-5.7-5-8.1-8.1c0.5,0.6,0.9,1.2,1.4,1.8c-5.1-6.7-9.5-14.1-12.8-21.8c0.3,0.7,0.6,1.4,0.9,2.1
					c-1.4-3.3-2.6-6.7-3.1-10.2c0.1,0.8,0.2,1.6,0.3,2.4c-0.2-1.3-0.2-2.5-0.1-3.8c-0.1,0.8-0.2,1.6-0.3,2.4c0-0.1,0-0.1,0-0.2
					c0.3-2.5,0.4-4.7-0.9-6.9c-1.1-1.9-3.2-3.6-5.4-4.1c-2.3-0.5-4.9-0.4-6.9,0.9C863.5,726.4,861.4,728.3,861.1,730.6L861.1,730.6z
					"/>
			</g>
		</g>
		<g>
			<g>
				<path class="st4" d="M685.2,857.3c-4.5-2-9-4-13.5-6c-4.8-2.1-9.6-4.4-14.8-5.7c-4.6-1.2-9.2-1.9-13.9-2.8
					c-2.9-0.6-5.8-1.1-8.8-1.4c-2.2-0.3-4.4-0.4-6.6-0.6c0.8,0.1,1.6,0.2,2.4,0.3c-7.3-1-14-6.2-21.6-4.5c-3.1,0.7-5.7,2.8-7.3,5.5
					c-0.6,0.9-0.9,2-1.6,2.9c0.5-0.6,0.9-1.2,1.4-1.8c-0.4,0.5-0.8,0.9-1.3,1.3c0.6-0.5,1.2-0.9,1.8-1.4c-0.7,0.5-1.4,0.9-2.2,1.3
					c0.7-0.3,1.4-0.6,2.1-0.9c-0.3,0.1-0.6,0.2-0.9,0.3c-2.2,0.8-4.1,2-5.4,4.1c-1.1,1.9-1.6,4.8-0.9,6.9c1.4,4.4,6.3,8,11.1,6.3
					c4.1-1.5,7.4-3.6,9.9-7.2c0.7-1,1.1-2.2,1.8-3.2c-0.5,0.6-0.9,1.2-1.4,1.8c0.1-0.2,0.3-0.3,0.4-0.4c-0.6,0.5-1.2,0.9-1.8,1.4
					c0.2-0.1,0.3-0.2,0.5-0.3c-0.7,0.3-1.4,0.6-2.1,0.9c0.2-0.1,0.5-0.2,0.7-0.2c-0.8,0.1-1.6,0.2-2.4,0.3c0.5-0.1,1.1,0,1.6,0
					c-0.8-0.1-1.6-0.2-2.4-0.3c3.3,0.5,6.4,1.8,9.5,3c5,2,10.4,1.9,15.6,2.6c-0.8-0.1-1.6-0.2-2.4-0.3c4.7,0.7,9.3,1.7,14,2.6
					c4.6,0.9,9,2.1,13.3,3.9c-0.7-0.3-1.4-0.6-2.1-0.9c6.1,2.6,12.1,5.4,18.2,8.1c2.3,1,4.4,1.6,6.9,0.9c2.1-0.6,4.4-2.2,5.4-4.1
					c1.1-2.1,1.7-4.6,0.9-6.9C688.6,860.6,687.3,858.2,685.2,857.3L685.2,857.3z"/>
			</g>
		</g>
		<g>
			<g>
				<path class="st4" d="M686.6,856.2c-2.3-2.5-4.6-5.1-6.9-7.6c-0.8-0.9-1.8-1.5-2.9-1.9c-1.1-0.6-2.2-0.8-3.5-0.8
					c-1.2,0-2.4,0.2-3.5,0.8c-1.1,0.4-2.1,1-2.9,1.9c-0.5,0.6-0.9,1.2-1.4,1.8c-0.8,1.4-1.2,2.9-1.2,4.5c0.1,0.8,0.2,1.6,0.3,2.4
					c0.4,1.5,1.2,2.8,2.3,4c2.3,2.5,4.6,5.1,6.9,7.6c0.8,0.9,1.8,1.5,2.9,1.9c1.1,0.6,2.2,0.8,3.5,0.8c1.2,0,2.4-0.2,3.5-0.8
					c1.1-0.4,2.1-1,2.9-1.9c0.5-0.6,0.9-1.2,1.4-1.8c0.8-1.4,1.2-2.9,1.2-4.5c-0.1-0.8-0.2-1.6-0.3-2.4
					C688.5,858.6,687.8,857.3,686.6,856.2L686.6,856.2z"/>
			</g>
		</g>
		<g>
			<g>
				<path class="st4" d="M656.4,842.9c-3-0.7-5.8-1.6-8.6-2.8c0.7,0.3,1.4,0.6,2.1,0.9c-3.4-1.5-6.7-3.3-9.6-5.5
					c0.6,0.5,1.2,0.9,1.8,1.4c-1.1-0.8-2.1-1.7-3.1-2.7c-1.7-1.6-4-2.6-6.4-2.6c-2.2,0-4.8,1-6.4,2.6c-1.6,1.7-2.7,4-2.6,6.4
					c0.1,2.4,0.9,4.7,2.6,6.4c6.9,6.7,16,11.1,25.3,13.3c2.3,0.6,4.8,0.3,6.9-0.9c1.9-1.1,3.6-3.2,4.1-5.4c0.5-2.3,0.4-4.9-0.9-6.9
					C660.5,845.1,658.7,843.4,656.4,842.9L656.4,842.9z"/>
			</g>
		</g>
		<g>
			<g>
				<path class="st4" d="M607.8,842.3c-1,0.6-2.1,1-3.1,1.5c0.7-0.3,1.4-0.6,2.1-0.9c-3.4,1.4-7.1,2.3-10.7,2.9
					c0.8-0.1,1.6-0.2,2.4-0.3c-3.5,0.5-7.1,0.6-10.6,0.1c0.8,0.1,1.6,0.2,2.4,0.3c-2.2-0.3-4.3-0.8-6.4-1.7c0.7,0.3,1.4,0.6,2.1,0.9
					c-1.2-0.5-2.4-1.2-3.5-1.9c-1.8-1.3-4.9-1.5-6.9-0.9c-2.1,0.6-4.3,2.2-5.4,4.1c-1.1,2.1-1.7,4.6-0.9,6.9
					c0.8,2.3,2.1,3.9,4.1,5.4c6,4.3,14.2,5.5,21.4,5.1c7.6-0.4,15.2-2.3,22-5.9c4.1-2.3,5.8-8.3,3.2-12.3
					C617.4,841.3,612.2,839.8,607.8,842.3L607.8,842.3z"/>
			</g>
		</g>
		<g>
			<g>
				<path class="st4" d="M784,871.8c0.1-0.4,0.2-0.8,0.3-1.2c-0.3,0.7-0.6,1.4-0.9,2.1c0.2-0.5,0.5-1,0.9-1.5
					c-0.5,0.6-0.9,1.2-1.4,1.8c0.7-0.9,1.5-1.7,2.4-2.4c-0.6,0.5-1.2,0.9-1.8,1.4c3-2.2,6.3-4,9.6-5.7c3.5-1.8,7.1-3.5,10.7-5.1
					c-0.7,0.3-1.4,0.6-2.1,0.9c0.6-0.2,1.2-0.5,1.7-0.7c2.3-0.9,4.1-1.9,5.4-4.1c1.1-1.9,1.6-4.8,0.9-6.9c-0.7-2.2-2.1-4.3-4.1-5.4
					c-2-1.1-4.7-1.8-6.9-0.9c-6.1,2.5-12.1,5.2-17.8,8.4c-2.9,1.6-5.7,3.4-8.3,5.5c-2.7,2.2-5.2,5.4-5.8,8.9
					c-0.4,2.5-0.4,4.7,0.9,6.9c1.1,1.9,3.2,3.6,5.4,4.1c2.3,0.5,4.9,0.4,6.9-0.9C781.7,876,783.7,874,784,871.8L784,871.8z"/>
			</g>
		</g>
		<g>
			<g>
				<path class="st4" d="M785.8,869.6c6.9,0.3,13.7,0,20.5-1.2c5.9-1,11.7-2.7,17.4-4.7c2.2-0.7,4.2-2.1,5.4-4.1
					c1.1-1.9,1.6-4.8,0.9-6.9c-1.4-4.4-6.3-7.9-11.1-6.3c-6.4,2.1-12.8,4-19.5,5c0.8-0.1,1.6-0.2,2.4-0.3
					c-5.3,0.7-10.7,0.8-16.1,0.5c-4.7-0.2-9.2,4.3-9,9C777,865.7,780.7,869.4,785.8,869.6L785.8,869.6z"/>
			</g>
		</g>
		<g>
			<g>
				<path class="st4" d="M807.5,867c8.7-2.4,17.5-4.5,26.4-6.2c2.1-0.4,4.3-2.3,5.4-4.1c1.1-1.9,1.6-4.8,0.9-6.9
					c-1.6-4.9-6.1-7.3-11.1-6.3c-8.9,1.8-17.7,3.8-26.4,6.2c-4.5,1.2-7.8,6.5-6.3,11.1C797.9,865.3,802.6,868.3,807.5,867L807.5,867
					z"/>
			</g>
		</g>
		<g>
			<g>
				<path class="st4" d="M811.6,866.2c6.3-0.5,12.7,0.8,19.1,1.1c4,0.2,8,0,12-0.7c4.2-0.7,8-2.5,11.3-5.2c1.7-1.4,2.6-4.3,2.6-6.4
					c0-2.2-1-4.8-2.6-6.4c-1.7-1.6-4-2.7-6.4-2.6c-2.5,0.1-4.4,1-6.4,2.6c-0.1,0.1-0.2,0.2-0.4,0.3c0.6-0.5,1.2-0.9,1.8-1.4
					c-0.8,0.6-1.7,1.1-2.6,1.5c0.7-0.3,1.4-0.6,2.1-0.9c-1.6,0.6-3.2,1-4.9,1.2c0.8-0.1,1.6-0.2,2.4-0.3c-4.9,0.6-10,0.3-14.9-0.2
					c-4.4-0.4-8.8-1-13.2-0.7c-2.4,0.2-4.6,0.9-6.4,2.6c-1.6,1.6-2.7,4.1-2.6,6.4C802.8,861.8,806.6,866.6,811.6,866.2L811.6,866.2z
					"/>
			</g>
		</g>
		<g>
			<g>
				<path class="st4" d="M850.2,869.1c0.3-0.1,0.7-0.1,1-0.2c-0.8,0.1-1.6,0.2-2.4,0.3c1.4-0.2,2.8-0.1,4.2,0.1
					c-0.8-0.1-1.6-0.2-2.4-0.3c4.8,0.7,9.5,2.1,14.4,2.1c7,0,13.4-2.9,18.3-7.9c3.3-3.4,3.6-9.4,0-12.7c-3.5-3.3-9.2-3.6-12.7,0
					c-0.7,0.7-1.5,1.4-2.3,2.1c0.6-0.5,1.2-0.9,1.8-1.4c-1,0.8-2.1,1.4-3.3,2c0.7-0.3,1.4-0.6,2.1-0.9c-1.3,0.5-2.6,0.9-4,1.1
					c0.8-0.1,1.6-0.2,2.4-0.3c-2,0.2-4,0.2-5.9-0.1c0.8,0.1,1.6,0.2,2.4,0.3c-6.2-0.9-12.1-2.8-18.4-1.4c-4.6,1-7.7,6.6-6.3,11.1
					C840.7,867.6,845.3,870.2,850.2,869.1L850.2,869.1z"/>
			</g>
		</g>
		<g>
			<g>
				<path class="st4" d="M920.4,934.7c0-1.3,0.1-2.6,0.2-3.8c-0.1,0.8-0.2,1.6-0.3,2.4c0.4-2.6,1.1-5.1,2.1-7.6
					c-0.3,0.7-0.6,1.4-0.9,2.1c0-0.1,0.1-0.1,0.1-0.2c0.7-1,1-2.1,1.1-3.3c0.3-1.2,0.2-2.4-0.2-3.6c-0.3-1.2-0.8-2.2-1.6-3.1
					c-0.6-1-1.5-1.8-2.5-2.3c-2.1-1.1-4.6-1.7-6.9-0.9c-0.7,0.3-1.4,0.6-2.1,0.9c-1.4,0.8-2.4,1.9-3.2,3.2c-1.1,2.6-2.2,5.1-2.7,7.9
					c-0.6,2.7-0.9,5.5-0.9,8.3c0,2.3,1,4.7,2.6,6.4c0.8,0.9,1.8,1.5,2.9,1.9c1.1,0.6,2.2,0.8,3.5,0.8c2.3-0.1,4.7-0.9,6.4-2.6
					C919.4,939.3,920.4,937.1,920.4,934.7L920.4,934.7z"/>
			</g>
		</g>
		<g>
			<g>
				<path class="st4" d="M943.8,910.3c0-1.3,0-2.7,0-4c0-1.2-0.2-2.4-0.8-3.5c-0.4-1.1-1-2.1-1.9-2.9c-0.8-0.9-1.8-1.5-2.9-1.9
					c-1.1-0.6-2.2-0.8-3.5-0.8c-0.8,0.1-1.6,0.2-2.4,0.3c-1.5,0.4-2.8,1.2-4,2.3c-0.5,0.6-0.9,1.2-1.4,1.8c-0.8,1.4-1.2,2.9-1.2,4.5
					c0,1.3,0,2.7,0,4c0,1.2,0.2,2.4,0.8,3.5c0.4,1.1,1,2.1,1.9,2.9c0.8,0.9,1.8,1.5,2.9,1.9c1.1,0.6,2.2,0.8,3.5,0.8
					c0.8-0.1,1.6-0.2,2.4-0.3c1.5-0.4,2.8-1.2,4-2.3c0.5-0.6,0.9-1.2,1.4-1.8C943.4,913.4,943.8,911.9,943.8,910.3L943.8,910.3z"/>
			</g>
		</g>
		<g>
			<g>
				<path class="st4" d="M944.9,884.8c-0.2-2.2-0.6-4.5-0.9-6.7c0.1,0.8,0.2,1.6,0.3,2.4c-0.8-6.3-0.9-12.6-0.2-19
					c0.2-2.1-1.2-4.9-2.6-6.4c-1.6-1.6-4.1-2.7-6.4-2.6c-2.3,0.1-4.7,0.9-6.4,2.6c-0.5,0.6-0.9,1.2-1.4,1.8
					c-0.8,1.4-1.2,2.9-1.2,4.5c-0.5,4-0.7,8.1-0.5,12.1c0.2,3.6,0.7,7.1,1.2,10.7c-0.1-0.8-0.2-1.6-0.3-2.4c0.1,1,0.2,1.9,0.4,2.9
					c0.3,2.5,0.8,4.6,2.6,6.4c1.6,1.6,4.1,2.7,6.4,2.6c2.3-0.1,4.7-0.9,6.4-2.6C943.7,889.5,945.1,887.1,944.9,884.8L944.9,884.8z"
					/>
			</g>
		</g>
		<g>
			<g>
				<path class="st4" d="M478.2,848.3c0.5-0.8,1.1-1.6,1.6-2.3c0.2-0.2,0.3-0.5,0.5-0.7c0.4-0.5,0,0.1-0.2,0.2
					c0.3-0.4,0.6-0.8,0.9-1.1c1.3-1.6,2.6-3.1,4.1-4.5c1.4-1.5,2.9-2.8,4.5-4.2c0.8-0.7,1.6-1.3,2.4-2c0.2-0.2,0.4-0.3,0.6-0.5
					c-0.4,0.3-0.5,0.4,0,0c0.5-0.4,0.9-0.7,1.4-1c1-0.7,1.7-1.5,2.1-2.7c0.3-1.1,0.2-2.5-0.5-3.5c-1.2-1.9-4.1-3.1-6.2-1.6
					c-7.4,5.4-14,11.7-19,19.4c-1.3,2-0.5,5.1,1.6,6.2C474.3,851.1,476.8,850.4,478.2,848.3L478.2,848.3z"/>
			</g>
		</g>
		<g>
			<g>
				<path class="st4" d="M470.2,803.1c5.4,0,10.8,0,16.2,0c2.4,0,4.6-2.1,4.5-4.5c-0.1-2.4-2-4.5-4.5-4.5c-5.4,0-10.8,0-16.2,0
					c-2.4,0-4.6,2.1-4.5,4.5C465.8,801,467.7,803.1,470.2,803.1L470.2,803.1z"/>
			</g>
		</g>
		<g>
			<g>
				<path class="st4" d="M656.9,716.4c-0.8-0.4-1.6-0.9-2.3-1.3c-0.5-0.3,0.9,0.8,0.3,0.2c-0.1-0.1-0.3-0.2-0.4-0.4
					c-0.1-0.1-0.3-0.3-0.4-0.4c-0.1-0.1-0.7-0.9-0.2-0.2c0.5,0.7-0.2-0.3-0.3-0.5c-0.2-0.3-0.3-0.6-0.5-0.9
					c-0.3-0.5,0.2-0.3,0.2,0.4c0-0.2-0.2-0.5-0.2-0.6c-0.1-0.4-0.3-0.8-0.4-1.2c-1-3.7-1.2-7.6-2-11.3c-2.1-10.2-7.4-19.8-15-26.8
					c-6.3-5.8-13.8-10-21.5-13.6c-6.6-3.1-13.5-5.6-19.9-9.1c-1.4-0.8-2.8-1.7-4.2-2.6c-0.3-0.2-0.5-0.5,0.5,0.4
					c-0.2-0.1-0.3-0.3-0.5-0.4c-0.3-0.2-0.5-0.4-0.8-0.7c-0.5-0.5-1-1-1.4-1.5c-0.4-0.4,0-0.5,0.3,0.4c0-0.1-0.2-0.3-0.3-0.4
					c-0.2-0.3-0.3-0.5-0.5-0.8c-0.1-0.3-0.2-0.6-0.4-0.8c0.7,0.9,0.4,1,0.3,0.6c-0.1-0.2-0.1-0.3-0.2-0.5c-0.1-0.3-0.1-0.6-0.2-0.9
					c-0.2-0.9,0,1.3,0,0.1c0-0.3,0-0.7,0-1c0-0.1,0-0.2,0-0.3c0-1-0.2,1.1-0.1,0.3c0.3-2.3-0.6-5-3.1-5.5c-2.1-0.5-5.2,0.7-5.5,3.1
					c-0.5,3.4-0.2,6.7,1.6,9.7c1.6,2.8,4.1,4.9,6.8,6.7c5.8,3.9,12.5,6.4,18.8,9.2c3.8,1.7,7.5,3.4,11.1,5.3c1.9,1,3.8,2.1,5.6,3.3
					c0.8,0.5,1.6,1.1,2.4,1.6c0.4,0.3,0.8,0.6,1.2,0.9c0.2,0.2,0.5,0.4,0.7,0.5c0.8,0.6-0.7-0.5,0,0c1.7,1.4,3.3,2.8,4.8,4.3
					c0.7,0.7,1.4,1.4,2,2.2c0.4,0.4,0.7,0.8,1,1.3c0.4,0.5-0.7-0.9-0.1-0.1c0.2,0.3,0.5,0.6,0.7,1c1.7,2.4,3.1,4.9,4.3,7.6
					c0,0.1,0.6,1.4,0.2,0.4c0.1,0.2,0.2,0.5,0.3,0.7c0.3,0.7,0.5,1.3,0.7,2c0.4,1.3,0.8,2.6,1.2,4c1.1,4.3,1.3,8.9,2.4,13.2
					c1.2,4.6,4.1,8.4,8.5,10.4c2.1,1,4.9,0.7,6.2-1.6C659.5,720.6,659.1,717.5,656.9,716.4L656.9,716.4z"/>
			</g>
		</g>
		<g>
			<g>
				<path class="st4" d="M715.7,706.6c-0.3,0.1-0.6,0.1-0.8,0.2c0.2,0,0.8,0-0.1,0c-0.5,0-1,0-1.5,0c-0.1,0-1-0.1-0.4,0
					c0.6,0.1-0.3-0.1-0.4-0.1c-0.6-0.1-1.2-0.3-1.8-0.5c-0.3-0.1-0.5-0.2-0.8-0.3c0,0-0.7-0.3-0.2-0.1c0.5,0.2-0.3-0.1-0.4-0.2
					c-0.2-0.1-0.5-0.2-0.7-0.4c-0.9-0.5-1.9-1.1-2.7-1.7c-0.1-0.1-0.8-0.6-0.3-0.2c0.4,0.3-0.1-0.1-0.1-0.1c-0.4-0.3-0.8-0.6-1.1-1
					c-0.8-0.8-1.6-1.6-2.4-2.4c-0.8-0.9-1.6-1.7-2.3-2.6c-0.3-0.4-0.6-0.8-1-1.2c-0.1-0.1-0.6-0.8-0.3-0.4c0.3,0.4-0.4-0.6-0.4-0.6
					c-1.3-1.7-2.5-3.5-3.6-5.4c-0.5-0.9-1-1.8-1.4-2.7c-0.2-0.5-0.5-1-0.7-1.5c-0.1-0.2-0.2-0.5-0.3-0.7c-0.2-0.4-0.2-0.4,0,0
					c-0.8-2-1.5-3.9-2-6c-0.1-0.5-0.2-1-0.4-1.5c-0.1-0.2-0.1-0.7,0,0.3c0.1,1.1,0,0.1,0-0.2c-0.1-3.6,0.3-7.2,0.2-10.8
					c-0.1-5.3-1-10.6-3.5-15.4c-3.3-6.5-9.7-10.5-16.8-11.9c-2.3-0.5-5,0.7-5.5,3.1c-0.5,2.2,0.7,5.1,3.1,5.5
					c0.8,0.2,1.7,0.4,2.5,0.6c0.3,0.1,2,0.9,2.2,0.8c0,0-1-0.5-0.3-0.1c0.2,0.1,0.3,0.2,0.5,0.2c0.3,0.1,0.6,0.3,0.8,0.4
					c0.6,0.4,1.3,0.8,1.9,1.2c0.6,0.4-0.8-0.7,0.1,0.1c0.2,0.2,0.4,0.4,0.6,0.6c0.5,0.5,0.9,1,1.4,1.5c0,0,0.3,0.3,0.3,0.4
					c0,0-0.6-0.8-0.3-0.5c0.2,0.3,0.4,0.5,0.5,0.8c0.4,0.5,0.7,1.1,1,1.7c0.1,0.3,0.5,1.3,0.7,1.4c-0.3-0.1-0.4-1-0.2-0.4
					c0,0.1,0.1,0.3,0.2,0.4c0.1,0.3,0.2,0.6,0.3,1c0.4,1.1,0.7,2.3,0.9,3.5c0,0.3,0.1,0.5,0.1,0.8c0,0.1,0,0.3,0.1,0.4
					c0.1,0.7-0.1-0.5-0.1-0.5c0,0.6,0.1,1.3,0.2,1.9c0.1,1.1,0.1,2.2,0.2,3.3c0,3.5-0.5,7-0.2,10.5c0.3,3.8,1.8,7.5,3.3,11
					c1.7,4.1,4,7.9,6.6,11.4c6.6,8.6,15.9,17.7,27.7,15.2c2.3-0.5,3.9-3.3,3.1-5.5C720.4,707.3,718.1,706,715.7,706.6L715.7,706.6z"
					/>
			</g>
		</g>
		<g>
			<g>
				<path class="st4" d="M540.4,701.3c-0.9,0.3-1.7,0.6-2.6,0.8c-0.4,0.1-0.9,0.2-1.4,0.3c-0.2,0-0.4,0-0.5,0.1
					c1.2-0.3,0.6-0.1,0.2,0c-0.7,0.1-1.4,0-2.1,0c-1.1,0,0.8,0.2,0.1,0c-0.4-0.1-0.8-0.1-1.2-0.2c-0.3-0.1-0.6-0.2-0.9-0.3
					c-0.1,0-0.3-0.1-0.4-0.1c-0.8-0.2,0.9,0.4,0.4,0.2c-0.6-0.3-1.2-0.6-1.7-0.9c-0.3-0.2-0.6-0.4-0.9-0.6c-0.9-0.6,0.6,0.5,0.1,0.1
					c-0.5-0.5-1.1-0.9-1.6-1.4c-4.4-4.2-7.9-9.2-13.3-12.5c-3.7-2.2-8-3.3-12.3-3.4c-2.4,0-4.6,2.1-4.5,4.5c0.1,2.5,2,4.5,4.5,4.5
					c0.8,0,1.8,0.2,2.6,0.2c-1,0.1-0.7-0.1-0.2,0c0.2,0,0.4,0.1,0.7,0.1c0.4,0.1,0.9,0.2,1.3,0.3c0.4,0.1,0.8,0.2,1.2,0.4
					c0.2,0.1,0.3,0.1,0.5,0.2c0.7,0.3-0.4-0.1-0.4-0.2c0.1,0.2,0.9,0.4,1.1,0.5c0.4,0.2,0.7,0.4,1.1,0.6c0.6,0.4,1.2,0.8,1.8,1.2
					c0.6,0.4-0.3-0.2-0.3-0.3c0.1,0.1,0.3,0.3,0.5,0.4c0.3,0.3,0.7,0.6,1,0.8c1.1,1,2.1,2.1,3.1,3.1c4.1,4.4,8.1,9.4,14.1,11.1
					c4.2,1.2,8.7,0.6,12.7-0.9c2.2-0.8,3.9-3.1,3.1-5.5C545.3,702.3,542.8,700.4,540.4,701.3L540.4,701.3z"/>
			</g>
		</g>
		<g>
			<g>
				<path class="st4" d="M773.4,697.2c-0.3-4.8,0-9.6,0.4-14.4c0-0.3,0.1-0.7,0.1-1c0-0.3-0.3,1.3-0.1,0.8c0.1-0.4,0.2-0.9,0.3-1.3
					c0.4-1.7,0.8-3.4,1.3-5.1c0.4-1.5,0.9-2.9,1.5-4.4c0.1-0.2,0.1-0.3,0.2-0.5c0.2-0.5-0.1,0.3-0.1,0.3c0.1-0.3,0.3-0.7,0.5-1
					c0.3-0.6,0.6-1.2,0.9-1.8c0.6-1.1,1.2-2.1,1.9-3.1c0.1-0.2,0.3-0.4,0.5-0.6c-0.5,1-0.3,0.4,0,0c0.3-0.4,0.7-0.8,1-1.2
					c0.7-0.7,1.4-1.3,2.1-2c0.5-0.5-1,0.7-0.2,0.1c0.2-0.1,0.3-0.2,0.5-0.4c0.4-0.2,0.7-0.5,1.1-0.7c0.7-0.4,1.5-0.8,2.3-1.2
					c0.6-0.3-1.2,0.4-0.3,0.1c0.2-0.1,0.4-0.1,0.5-0.2c0.4-0.1,0.8-0.3,1.1-0.4c1.5-0.5,3-0.8,4.5-1c0.2,0,0.5-0.1,0.7-0.1
					c-0.4,0.1-1.2,0.2-0.4,0.1c0.4,0,0.8-0.1,1.2-0.1c0.8-0.1,1.5-0.2,2.3-0.2c1.7-0.2,3.5-0.4,5.2-0.7c2.3-0.5,3.9-3.3,3.1-5.5
					c-0.8-2.4-3.1-3.7-5.5-3.1c-0.6,0.1-1.2,0.2-1.8,0.3c-0.8,0.1,1.2-0.1,0.6-0.1c-0.1,0-0.3,0-0.4,0.1c-0.3,0-0.7,0.1-1,0.1
					c-1.8,0.2-3.6,0.4-5.4,0.6c-3.6,0.5-7.1,1.5-10.3,3.2c-4.2,2.2-7.6,5.8-10.1,9.7c-3.3,5.3-5.4,11.7-6.4,17.8
					c-0.4,2.6-0.5,5.3-0.6,8c-0.1,2.9-0.2,5.9-0.1,8.8c0.1,2.3,2,4.6,4.5,4.5C771.2,701.6,773.5,699.8,773.4,697.2L773.4,697.2z"/>
			</g>
		</g>
		<g>
			<g>
				<path class="st4" d="M834,686c0.4,0.9,0-0.3-0.1-0.6c-0.3-0.9,0,0.2,0,0.2c0,0,0-0.5,0-0.7c0,0,0-0.6,0-0.6
					c-0.1,0.1-0.2,0.9,0,0.2c0.1-0.4,0.7-1.8,0.2-0.8c0.4-0.8,0.9-1.5,1.3-2.3c0.3-0.6-0.5,0.5,0,0c0.2-0.2,0.3-0.4,0.5-0.6
					c0.4-0.5,0.8-0.9,1.2-1.3c1.7-1.7,3.5-3.3,5.4-4.8c0.4-0.4,0.9-0.7,1.3-1.1c0.9-0.7-0.8,0.5,0.1-0.1c0.9-0.5-0.6,0.1-0.1,0
					c0.2,0,0.6-0.1,0.8-0.2c-0.7,0.5-1.1,0.1-0.6,0.1c0.1,0,0.3,0,0.4,0c0.3,0,0.6,0.1,0.8,0.1c-1.3,0.1-0.7-0.1-0.1,0
					c0.4,0.1,0.7,0.2,1.1,0.3c0.6,0.2,1.2,0.5,1.8,0.7c-0.1,0-1-0.5-0.4-0.2c0.2,0.1,0.3,0.1,0.5,0.2c0.4,0.2,0.7,0.3,1.1,0.5
					c3,1.4,6.1,2.9,9.3,3.4c2.3,0.4,4.6,0.4,6.9-0.2c2.6-0.6,4.7-2,6.8-3.6c1.8-1.5,1.7-4.8,0-6.4c-2-1.8-4.4-1.6-6.4,0
					c0.8-0.6-0.4,0.3-0.6,0.4c-0.4,0.2-0.8,0.4-1.1,0.6c-0.5,0.3,1-0.3,0.1,0c-0.2,0.1-0.4,0.1-0.6,0.2c-0.3,0.1-1.2,0.1-1.4,0.3
					c0.1-0.1,1.1-0.1,0.4-0.1c-0.2,0-0.4,0-0.6,0c-0.4,0-0.7,0-1.1,0c-0.2,0-0.4,0-0.5,0c-0.8-0.1,0.3,0,0.4,0.1
					c-0.3-0.2-1-0.2-1.3-0.3c-0.8-0.2-1.5-0.4-2.2-0.7c-0.4-0.1-0.8-0.3-1.2-0.4c-0.3-0.1-0.6-0.4,0.3,0.1c-0.2-0.1-0.5-0.2-0.8-0.3
					c-1.7-0.7-3.3-1.5-5-2.2c-2.9-1.2-6.3-2.1-9.4-1c-2.4,0.8-4.2,2.6-6.1,4.2c-1.8,1.5-3.6,3.1-5.2,4.9c-2,2.2-3.7,4.6-4.5,7.4
					c-0.9,3.1-0.4,6.1,0.8,9c0.9,2.2,4.3,2.8,6.2,1.6C834.6,690.7,835,688.3,834,686L834,686z"/>
			</g>
		</g>
		<g>
			<g>
				<path class="st4" d="M921.8,735.8c7.8,0,15.6,0,23.3,0c2.4,0,4.6-2.1,4.5-4.5c-0.1-2.4-2-4.5-4.5-4.5c-7.8,0-15.6,0-23.3,0
					c-2.4,0-4.6,2.1-4.5,4.5C917.4,733.7,919.3,735.8,921.8,735.8L921.8,735.8z"/>
			</g>
		</g>
		<g>
			<g>
				<path class="st4" d="M914.7,769.1c1.8,0.2,3.5,0.4,5.3,0.6c0.3,0,0.3,0-0.1,0c0.2,0,0.4,0.1,0.7,0.1c0.4,0.1,0.7,0.1,1.1,0.2
					c0.9,0.1,1.7,0.3,2.6,0.4c3.1,0.5,6.2,1.2,9.3,1.9c6.3,1.5,12.5,3.5,18.6,5.5c2.2,0.7,5-0.9,5.5-3.1c0.6-2.5-0.7-4.7-3.1-5.5
					c-6.3-2.1-12.6-4.1-19-5.6c-6.8-1.6-13.8-2.7-20.8-3.4c-2.4-0.2-4.6,2.2-4.5,4.5C910.4,767.2,912.2,768.8,914.7,769.1
					L914.7,769.1z"/>
			</g>
		</g>
		<g>
			<g>
				<path class="st4" d="M517.5,735.9c-0.7,0.4-1.5,0.8-2.3,1.2c-0.7,0.4,0.2-0.1,0.3-0.1c-0.1,0-0.4,0.2-0.5,0.2
					c-0.4,0.2-0.8,0.3-1.2,0.4c-0.3,0.1-0.6,0.1-1,0.2c-0.1,0-0.4,0.1-0.5,0.1c0-0.1,1.2-0.1,0.5-0.1c-0.6,0-1.2,0-1.8,0
					c-0.5,0,1.1,0.2,0.6,0.1c-0.1,0-0.3,0-0.4-0.1c-0.3-0.1-0.5-0.1-0.8-0.2c-0.2-0.1-0.5-0.2-0.7-0.3c-0.5-0.1,1,0.5,0.5,0.2
					c-0.1-0.1-0.3-0.1-0.4-0.2c-0.5-0.2-0.9-0.5-1.4-0.8c-0.2-0.2-0.4-0.3-0.7-0.5c-0.5-0.4,0.4,0.3,0.4,0.3
					c-0.1-0.1-0.4-0.3-0.5-0.4c-4.1-3.5-7.3-7.8-11.9-10.7c-3.3-2.1-7.2-3.1-11.1-3.1c-2.4,0-4.6,2.1-4.5,4.5c0.1,2.5,2,4.5,4.5,4.5
					c0.4,0,0.8,0,1.1,0c0.2,0,0.4,0,0.6,0c1,0.1-0.9-0.2-0.3,0c0.7,0.1,1.4,0.3,2.2,0.5c0.3,0.1,0.6,0.2,1,0.3
					c1.1,0.4-0.7-0.4,0.2,0.1c0.6,0.3,1.2,0.6,1.8,1c0.6,0.4,1.1,0.8,1.7,1.1c0.5,0.3-0.8-0.6-0.3-0.3c0.1,0.1,0.2,0.2,0.4,0.3
					c0.3,0.2,0.5,0.5,0.8,0.7c1,0.9,1.9,1.8,2.9,2.8c4.1,4.2,8.1,8.4,14.3,9.1c3.9,0.4,7.9-1.1,11.2-3.1c2-1.2,2.9-4.1,1.6-6.2
					C522.3,735.5,519.7,734.6,517.5,735.9L517.5,735.9z"/>
			</g>
		</g>
		<g>
			<g>
				<path class="st4" d="M504,762.2c-8.8-3.3-18.1-3-26.9,0c-3.9,1.3-7.7,3.1-11.4,4.8c-1.7,0.8-3.4,1.6-5.2,2.3
					c-0.2,0.1-0.4,0.1-0.5,0.2c0.9-0.6,0.5-0.2,0.2-0.1c-0.4,0.2-0.8,0.3-1.2,0.5c-0.9,0.3-1.7,0.7-2.6,0.9c-1,0.3-1.9,0.6-2.9,0.8
					c-0.5,0.1-1,0.2-1.5,0.3c-0.2,0-0.4,0.1-0.7,0.1c-0.4,0.1-1.1-0.1,0.1,0c-1-0.1-2,0.2-3,0.2c-0.5,0-0.9,0-1.4-0.1
					c-0.2,0-0.5,0-0.7-0.1c-1.2-0.1,0.9,0.1-0.1,0c-2.3-0.4-5,0.6-5.5,3.1c-0.5,2.1,0.7,5.2,3.1,5.5c4.2,0.6,8.3,0.4,12.4-0.6
					c3.8-1,7.5-2.6,11.1-4.2c1.7-0.8,3.4-1.6,5.1-2.3c0.8-0.4,1.6-0.7,2.5-1.1c0.3-0.1,0.6-0.3,0.8-0.4c-0.1,0-1,0.4-0.2,0.1
					c0.5-0.2,1-0.4,1.5-0.6c1.8-0.7,3.7-1.4,5.6-1.9c0.9-0.2,1.8-0.5,2.7-0.6c0.5-0.1,1-0.2,1.5-0.3c0.4-0.1,0.4-0.3-0.3,0
					c0.2-0.1,0.7-0.1,0.9-0.1c2.2-0.2,4.9-0.5,7.2,0.1c-0.1,0-1-0.2-0.2,0c0.3,0.1,0.7,0.1,1,0.2c0.7,0.1,1.4,0.3,2.1,0.5
					c1.3,0.3,2.7,0.8,4,1.3c2.2,0.8,5-0.9,5.5-3.1C507.7,765.2,506.4,763.1,504,762.2L504,762.2z"/>
			</g>
		</g>
		<g>
			<g>
				<path class="st4" d="M884.6,716.1c-0.2-0.7-0.4-1.4-0.6-2.2c-1,1.8-2.1,3.7-3.1,5.5c0.4-0.2,0.9-0.3,1.3-0.4c-0.2,0-0.8,0,0.1,0
					c0.8,0,1.5,0,2.2,0c0.9,0.1,0.3,0,0.1,0c0.4,0.1,0.9,0.2,1.3,0.2c0.7,0.1,1.4,0.3,2.1,0.4c2.7,0.5,5.3,0.5,8,0
					c2.4-0.4,5.1-1.5,6.3-3.7c1-1.8,0.9-4-0.2-5.7c-0.1-0.2-1.2-1.7-0.4-0.5c2,3.1,0.3,2.2,0.4,1.6c0-0.2,0.1-0.5,0.1-0.7
					c0,1.6-0.1,0.7,0,0.2c0.1-0.4,0.1-0.7,0.2-1c0.2-0.8,0.4-1.6,0.6-2.4c0.2-0.8,0.5-1.6,0.8-2.4c0.1-0.4,0.3-0.7,0.4-1.1
					c-0.4,1.4,0.1-0.1,0.3-0.5c0.2-0.3,0.4-0.6,0.6-0.9c0.3-0.5-0.9,0.9-0.1,0.1c0.4-0.3-1.1,0.7-0.5,0.4c0.5-0.3-0.8,0.3-0.7,0.3
					c0,0,0.1,0,0.1,0c-0.6,0.2-1.2,0.2-1.9,0c0.6,0.1-0.1,0.3-0.5-0.3c0,0,0.2,0.1,0.3,0.2c0.6,0.4-0.8-0.8-0.3-0.3
					c0.2,0.2,0.5,0.4,0.7,0.7c0.2,0.3,0.5,0.5,0.7,0.8c0.2,0.3,0.6,1-0.1-0.1c0.1,0.2,0.3,0.4,0.5,0.6c2.4,3.2,5.5,8.9,10.2,8.6
					c4-0.3,5.8-4.7,3.2-7.7c-1.6-1.8-3.2-3.7-4.8-5.5c-1.5,2.5-2.9,5-4.4,7.5c4.6,0.6,9.3,1.2,13.9,1.9c1.7,0.2,3.1,0.1,4.4-1.2
					c1.1-1.1,1.7-2.9,1.2-4.4c-1.1-3.4-2.3-6.7-3.4-10.1c-1.8,1.8-3.7,3.7-5.5,5.5c5.7,1.1,11.4,2.2,17.1,3.3c3.9,0.8,6.9-3,5.1-6.6
					c-1.2-2.4-2.4-4.8-3.6-7.2c-1.3,2.3-2.6,4.5-3.9,6.8c0.4,0,0.9-0.1,1.3-0.1c0.1,0,1.6,0.1,1.1,0c-0.5,0,0.6,0.1,0.7,0.2
					c0.3,0.1,1.5,0.5,0.4,0.1c2.1,1,4.9,0.7,6.2-1.6c1-2,0.7-5.1-1.6-6.2c-2.6-1.2-5.3-1.6-8.1-1.4c-3.5,0.3-5.5,3.6-3.9,6.8
					c1.2,2.4,2.4,4.8,3.6,7.2c1.7-2.2,3.4-4.4,5.1-6.6c-5.7-1.1-11.4-2.2-17.1-3.3c-1.6-0.3-3.2,0-4.4,1.2c-1.1,1.1-1.7,2.9-1.2,4.4
					c1.1,3.4,2.3,6.7,3.4,10.1c1.8-1.8,3.7-3.7,5.5-5.5c-4.6-0.6-9.3-1.2-13.9-1.9c-1.9-0.3-4.1,0.2-5.1,2.1c-1,1.9-0.7,3.9,0.7,5.5
					c1.6,1.8,3.2,3.7,4.8,5.5c1.1-2.6,2.1-5.1,3.2-7.7c-0.5,0-0.6-0.2,0.6,0.1c-0.4-0.1,0.2-0.2,0.6,0.3c-0.1-0.1-0.3-0.1-0.4-0.2
					c-0.6-0.3,0.3-0.1,0.4,0.3c0-0.2-0.6-0.6-0.8-0.7c-0.3-0.3-0.6-0.7-0.9-1c-0.2-0.3-0.4-0.8,0.1,0.2c-0.1-0.1-0.2-0.3-0.3-0.4
					c-0.3-0.4-0.5-0.7-0.8-1.1c-0.6-0.8-1.1-1.5-1.7-2.3c-1.3-1.7-2.6-3.4-4.4-4.4c-2.5-1.4-5.4-0.9-7.4,1
					c-2.7,2.6-3.9,6.7-4.7,10.3c-0.4,1.5-0.7,3.2-0.8,4.7c-0.1,1.7,0.7,3,1.7,4.3c-0.1-0.1-0.2-0.3-0.4-0.4
					c-0.1-0.9-0.2-1.8-0.3-2.7c0.1-0.3,0.9-2.1,1.4-1.9c0,0-0.4,0.2-0.4,0.2c-0.7,0.4,1-0.3,0.1-0.1c-0.6,0.1-1.1,0.3-1.7,0.4
					c-1,0.2,0.8,0,0.1,0c-0.4,0-0.8,0.1-1.1,0.1c-0.5,0-1,0-1.6,0c-1.1-0.1,0,0.2,0.1,0c-0.1,0.1-1-0.2-1.1-0.2
					c-3.9-0.8-7.8-1.6-11.6-0.3c-2.3,0.8-3.8,3.1-3.1,5.5c0.2,0.7,0.4,1.4,0.6,2.2c0.6,2.3,3.2,3.9,5.5,3.1
					C883.8,720.8,885.3,718.5,884.6,716.1L884.6,716.1z"/>
			</g>
		</g>
		<g>
			<g>
				<path class="st4" d="M449.3,880.2c0,8.6,0,17.1,0,25.7c0,4.7,4.1,9.2,9,9c4.9-0.2,9-4,9-9c0-8.6,0-17.1,0-25.7
					c0-4.7-4.1-9.2-9-9C453.4,871.4,449.3,875.1,449.3,880.2L449.3,880.2z"/>
			</g>
		</g>
		<g>
			<g>
				<path class="st4" d="M948.3,909.8c0,4.3,0,8.6,0,12.9c0,4.7,4.1,9.2,9,9c4.9-0.2,9-4,9-9c0,0,0,0,0,0c0-4.7-4.1-9.2-9-9
					c-4.9,0.2-9,4-9,9c0,4.3,0,8.6,0,12.9c0,4.7,4.1,9.2,9,9c4.9-0.2,9-4,9-9c0-4.3,0-8.6,0-12.9c0-4.7-4.1-9.2-9-9
					c-4.9,0.2-9,4-9,9c0,0,0,0,0,0c0,4.7,4.1,9.2,9,9c4.9-0.2,9-4,9-9c0-4.3,0-8.6,0-12.9c0-4.7-4.1-9.2-9-9
					C952.4,901,948.3,904.7,948.3,909.8L948.3,909.8z"/>
			</g>
		</g>
		<g>
			<g>
				<path class="st4" d="M873.8,959.1c0,0.3,0,0.6-0.1,0.9c0.1-0.8,0.2-1.6,0.3-2.4c-0.1,0.8-0.4,1.6-0.7,2.4
					c0.3-0.7,0.6-1.4,0.9-2.1c-1,2.3-2.5,4.4-4,6.4c0.5-0.6,0.9-1.2,1.4-1.8c-3.4,4.4-7.2,8.5-10.6,12.9c-3.2,4.2-6,8.9-6,14.3
					c-0.1,4.7,4.2,9.2,9,9c4.9-0.2,8.9-4,9-9c0-0.3,0-0.6,0.1-0.9c-0.1,0.8-0.2,1.6-0.3,2.4c0.1-0.8,0.4-1.6,0.7-2.4
					c-0.3,0.7-0.6,1.4-0.9,2.1c1-2.3,2.5-4.4,4-6.4c-0.5,0.6-0.9,1.2-1.4,1.8c3.4-4.4,7.2-8.5,10.6-12.9c3.2-4.2,6-8.9,6-14.3
					c0.1-4.7-4.2-9.2-9-9C877.8,950.3,873.8,954.1,873.8,959.1L873.8,959.1z"/>
			</g>
		</g>
		<g>
			<g>
				<path class="st4" d="M939,803.2c0.7,0,0.2,0.3-0.5-0.1c0.2,0.1,0.5,0.1,0.6,0.1c0.4,0.1,0.8,0.3,1.3,0.4
					c0.8,0.3-0.1,0.1-0.3-0.1c0.1,0.2,0.7,0.3,0.8,0.4c0.5,0.2,1.1,0.5,1.6,0.8c2.5,1.3,4.9,2.8,7.3,4.2c2.4,1.4,4.7,2.8,7.2,4
					c2.2,1.1,4.6,2.2,7.2,2.3c2.4,0,4.6-2.1,4.5-4.5c-0.1-2.5-2-4.4-4.5-4.5c-0.7,0-0.2-0.3,0.5,0.1c-0.2-0.1-0.5-0.1-0.6-0.1
					c-0.4-0.1-0.8-0.3-1.3-0.4c-0.8-0.3,0.1-0.1,0.3,0.1c-0.1-0.2-0.7-0.3-0.8-0.4c-0.5-0.2-1.1-0.5-1.6-0.8
					c-2.5-1.3-4.9-2.8-7.3-4.2c-2.4-1.4-4.7-2.8-7.2-4c-2.2-1.1-4.6-2.2-7.2-2.3c-2.4,0-4.6,2.1-4.5,4.5
					C934.6,801.2,936.4,803.2,939,803.2L939,803.2z"/>
			</g>
		</g>
		<g>
			<g>
				<path class="st4" d="M766,914.1c5.4,0.1,10.9,0.3,16.2,1.3c2.5,0.5,5.1,1.2,7.4,2.5c1.6,0.8,3,1.9,4.6,2.7
					c2.3,1.2,4.7,1.8,7.2,2.2c5.7,0.9,11.5,0.8,17.3,0.6c1,0,1-1.5,0-1.5c-5.4,0.2-10.8,0.2-16.1-0.5c-2.5-0.3-5.1-0.9-7.4-2
					c-1.6-0.8-3-1.9-4.6-2.7c-2.3-1.3-4.7-2.1-7.2-2.6c-5.7-1.2-11.5-1.4-17.3-1.5C765,912.5,765,914,766,914.1L766,914.1z"/>
			</g>
		</g>
		<g>
			<g>
				<path class="st4" d="M765.3,917.7c4.8,1.2,9.8,2.4,14.4,4.3c1.4,0.6,3.3,1.4,4.1,2.5c0.4,0.6,0.5,1.3,1.1,2.1
					c1,1.3,2.7,1.8,4.1,2.4c5,1.8,10.3,2.7,15.5,3.8c0.9,0.2,1.3-1.3,0.4-1.4c-4.9-1-9.8-1.9-14.6-3.5c-1.4-0.5-3.3-1-4.3-2.1
					c-0.1-0.1-0.3-0.6-0.4-0.7c-0.2-0.4-0.3-0.8-0.6-1.2c-0.9-1.4-2.6-2.1-4.1-2.8c-4.9-2.1-10.2-3.4-15.3-4.7
					C764.8,916,764.4,917.5,765.3,917.7L765.3,917.7z"/>
			</g>
		</g>
		<g>
			<g>
				<path class="st4" d="M671.2,912.5c-7.8,0.1-16.1,0.1-23.8,2.1c-1.6,0.4-3.1,0.9-4.7,1.3c-2.3,0.6-4.6,0.8-6.9,0.9
					c-5.8,0.3-11.5,0.2-17.3,0c-1,0-1,1.5,0,1.5c5.4,0.2,10.8,0.3,16.1,0c2.5-0.1,5.1-0.3,7.6-0.8c1.6-0.3,3.1-0.9,4.7-1.3
					c2.3-0.6,4.6-1,6.9-1.3c5.7-0.7,11.5-0.8,17.3-0.9C672.2,913.9,672.2,912.4,671.2,912.5L671.2,912.5z"/>
			</g>
		</g>
		<g>
			<g>
				<path class="st4" d="M671.3,916.3c-4.9,2.2-9.9,4.4-14.9,6.3c-2.5,1-5.1,1.9-7.7,2.5c-3.1,0.7-6.3,0.4-9.4,0.8
					c-3.7,0.5-7.4,1.3-11,2.3c-0.9,0.2-0.5,1.7,0.4,1.4c5.1-1.3,10.1-2.4,15.4-2.5c4.1-0.1,7.9-1.2,11.7-2.7
					c5.5-2.1,10.9-4.4,16.2-6.8C672.9,917.2,672.1,915.9,671.3,916.3L671.3,916.3z"/>
			</g>
		</g>
		<g>
			<g>
				<path class="st4" d="M664.3,793.8c5.4,0.1,10.9,0.3,16.2,1.3c2.5,0.5,5.1,1.2,7.4,2.5c1.6,0.8,3,1.9,4.6,2.7
					c2.3,1.2,4.7,1.8,7.2,2.2c5.7,0.9,11.5,0.8,17.3,0.6c1,0,1-1.5,0-1.5c-5.4,0.2-10.8,0.2-16.1-0.5c-2.5-0.3-5.1-0.9-7.4-2
					c-1.6-0.8-3-1.9-4.6-2.7c-2.3-1.3-4.7-2.1-7.2-2.6c-5.7-1.2-11.5-1.4-17.3-1.5C663.3,792.3,663.3,793.8,664.3,793.8L664.3,793.8
					z"/>
			</g>
		</g>
		<g>
			<g>
				<path class="st4" d="M662.9,806.6c5.3-0.5,10.7-0.8,16-0.4c2.7,0.2,5.3,0.7,7.8,1.7c1.7,0.7,3.2,1.6,4.9,2.3
					c2.3,0.9,4.8,1.3,7.2,1.4c5.8,0.3,11.6-0.4,17.3-1.2c0.9-0.1,1-1.6,0-1.5c-5.3,0.7-10.6,1.3-16,1.2c-2.6-0.1-5.3-0.3-7.7-1.2
					c-1.7-0.6-3.2-1.5-4.8-2.2c-2.3-1-4.8-1.5-7.3-1.8c-5.8-0.6-11.7-0.2-17.4,0.3C662,805.2,661.9,806.7,662.9,806.6L662.9,806.6z"
					/>
			</g>
		</g>
		<g>
			<g>
				<path class="st4" d="M662.1,817.3c5.3-0.7,10.7-1.4,16.1-1.2c2.6,0.1,5.3,0.4,7.8,1.3c1.7,0.6,3.3,1.4,5,2c2.4,0.8,4.9,1,7.4,1
					c5.8,0,11.5-1.1,17.2-2.1c0.9-0.2,0.5-1.6-0.4-1.4c-5.3,1-10.6,1.9-16,2c-2.6,0.1-5.2-0.1-7.7-0.9c-1.7-0.5-3.3-1.4-5-2
					c-2.4-0.9-4.9-1.2-7.5-1.4c-5.8-0.3-11.6,0.4-17.3,1.2C660.7,815.9,661.1,817.4,662.1,817.3L662.1,817.3z"/>
			</g>
		</g>
		<g>
			<g>
				<path class="st4" d="M776.7,791.8c-5.4,0.1-10.8,0.3-16.1,1.3c-2.7,0.5-5.3,1.2-7.7,2.5c-1.6,0.8-3,1.9-4.6,2.7
					c-2.1,1.2-4.5,1.8-6.9,2.2c-5.7,0.9-11.6,0.8-17.3,0.6c-1,0-1,1.5,0,1.5c5.4,0.2,10.8,0.2,16.1-0.5c2.6-0.3,5.3-0.9,7.7-2
					c1.6-0.8,3.1-1.8,4.6-2.7c2.1-1.2,4.5-2,6.9-2.6c5.6-1.3,11.5-1.5,17.3-1.6C777.7,793.3,777.7,791.8,776.7,791.8L776.7,791.8z"
					/>
			</g>
		</g>
		<g>
			<g>
				<path class="st4" d="M778.1,804.6c-5.3-0.5-10.7-0.8-16-0.4c-2.7,0.2-5.4,0.6-8,1.6c-1.7,0.7-3.3,1.6-4.9,2.3
					c-2.2,0.9-4.6,1.3-7.1,1.5c-5.8,0.3-11.6-0.4-17.3-1.2c-1-0.1-0.9,1.4,0,1.5c5.3,0.7,10.6,1.3,16,1.2c2.7-0.1,5.4-0.3,7.9-1.2
					c1.7-0.6,3.3-1.5,5-2.3c2.2-1,4.6-1.5,7-1.8c5.8-0.6,11.7-0.2,17.4,0.3C779,806.2,779,804.7,778.1,804.6L778.1,804.6z"/>
			</g>
		</g>
		<g>
			<g>
				<path class="st4" d="M779.3,815.3c-5.3-0.7-10.7-1.4-16-1.3c-2.7,0.1-5.5,0.4-8.2,1.2c-1.7,0.6-3.3,1.4-5,2
					c-2.3,0.8-4.6,1.1-7,1.1c-5.8,0-11.6-1-17.2-2.1c-0.9-0.2-1.3,1.3-0.4,1.4c5.2,1,10.6,1.9,15.9,2.1c2.7,0.1,5.5,0,8.1-0.8
					c1.7-0.5,3.3-1.3,5-2c2.3-0.9,4.7-1.3,7.1-1.5c5.8-0.4,11.6,0.3,17.4,1.1C779.9,816.9,780.3,815.5,779.3,815.3L779.3,815.3z"/>
			</g>
		</g>
	</g>
	<g id="uRchsh_1_" class="st7">
		
			<image style="display:inline;overflow:visible;" width="1000" height="1000" id="uRchsh_2_" xlink:href="324548E5FA951D1C.jpg"  transform="matrix(1.2677 0 0 1.2677 63.6122 65.3904)">
		</image>
	</g>
</g>
</svg>
