<?xml version="1.0" encoding="utf-8"?>
<!-- Generator: Adobe Illustrator 24.1.0, SVG Export Plug-In . SVG Version: 6.00 Build 0)  -->
<svg version="1.1" id="Layer_1" xmlns="http://www.w3.org/2000/svg" xmlns:xlink="http://www.w3.org/1999/xlink" x="0px" y="0px"
	 viewBox="0 0 1200 600" style="enable-background:new 0 0 1200 600;" xml:space="preserve">
<style type="text/css">
	.st0{display:none;fill:#FF6600;}
	.st1{fill:#FF6600;}
</style>
<path class="st0" d="M718.8,71.5C688,43.5,647.6,25.7,603.4,23.9v172.8h59C664.2,147.5,685.5,103.3,718.8,71.5z"/>
<path class="st0" d="M777.3,196.7c-1.8-47.7-22.5-90.6-54.9-121.7c-1.1,1-2.2,2.1-3.2,3.1c-30.6,30.6-50,72.3-51.7,118.6H777.3z"/>
<path class="st0" d="M662.5,210.7h-59.1v171.9c44.2-1.8,84.6-19.6,115.3-47.6C685.7,303.4,664.5,259.5,662.5,210.7z"/>
<path class="st0" d="M529.3,196.7h60.1V23.9C544.9,25.5,504,43.3,473,71.5C506.3,103.3,527.6,147.5,529.3,196.7z"/>
<path class="st0" d="M719.2,328.4c1.1,1.1,2.1,2.1,3.2,3.1c32.1-31,52.8-73.5,54.8-120.9H667.5C669.4,256.6,688.8,298,719.2,328.4z"
	/>
<path class="st0" d="M473,335c31,28.3,71.8,46.1,116.4,47.7V210.7h-60.1C527.3,259.5,506.1,303.4,473,335z"/>
<path class="st0" d="M414.9,196.7h109.4c-1.7-46.3-21.1-88-51.7-118.6c-1.1-1.1-2.1-2.1-3.2-3.1c-32.3,31.2-53.1,74.1-54.9,121.8
	L414.9,196.7L414.9,196.7z"/>
<path class="st0" d="M414.9,210.7v-0.1h-0.4c1.9,47.3,22.7,90,54.8,121c1.1-1,2.2-2.1,3.2-3.1c30.4-30.4,49.8-71.8,51.7-117.7H414.9
	z"/>
<g>
	<path d="M28,380.6V27.4h50.6v151.3h62.5V27.4h50.6v353.2h-50.6V223.3H78.6v157.2H28z"/>
</g>
<g>
	<path d="M219.7,110.7c0-14.2,2.5-26.8,7.4-37.7s11.6-20,19.8-27.3c7.9-6.9,16.9-12.2,27-15.9c10.1-3.6,20.3-5.5,30.5-5.5
		c10.2,0,20.4,1.8,30.5,5.5c10.1,3.6,19.3,8.9,27.5,15.9c7.9,7.3,14.4,16.4,19.3,27.3s7.4,23.5,7.4,37.7v186.5
		c0,14.9-2.5,27.6-7.4,38.2c-5,10.6-11.4,19.3-19.3,26.3c-8.3,7.3-17.4,12.7-27.5,16.4c-10.1,3.6-20.3,5.5-30.5,5.5
		c-10.3,0-20.4-1.8-30.5-5.5c-10.1-3.6-19.1-9.1-27-16.4c-8.3-6.9-14.9-15.7-19.8-26.3c-5-10.6-7.4-23.3-7.4-38.2V110.7z
		 M270.3,297.2c0,12.2,3.4,21.3,10.2,27c6.8,5.8,14.8,8.7,24.1,8.7c9.3,0,17.3-2.9,24.1-8.7c6.8-5.8,10.2-14.8,10.2-27V110.7
		c0-12.2-3.4-21.2-10.2-27c-6.8-5.8-14.8-8.7-24.1-8.7c-9.3,0-17.3,2.9-24.1,8.7c-6.8,5.8-10.2,14.8-10.2,27V297.2z"/>
</g>
<g>
	<path d="M811.2,380.6V27.4h75.9c13.9,0,26.1,1.8,36.7,5.5c10.6,3.6,20.2,10.1,28.8,19.3c8.6,9.3,14.5,20.1,17.9,32.5
		c3.3,12.4,5,29.2,5,50.3c0,15.9-0.9,29.3-2.7,40.2c-1.8,10.9-5.7,21.2-11.7,30.8c-6.9,11.6-16.2,20.6-27.8,27
		c-11.6,6.4-26.8,9.7-45.6,9.7h-25.8v137.9H811.2z M861.8,75v120h24.3c10.2,0,18.2-1.5,23.8-4.5c5.6-3,9.8-7.1,12.4-12.4
		c2.6-5,4.2-11.1,4.7-18.4c0.5-7.3,0.7-15.4,0.7-24.3c0-8.3-0.2-16.1-0.5-23.6c-0.3-7.4-1.8-14-4.5-19.6c-2.7-5.6-6.6-9.9-11.9-12.9
		c-5.3-3-12.9-4.5-22.8-4.5H861.8z"/>
</g>
<g>
	<path d="M1173.9,129.1h-50.6v-11.4c0-11.6-2.7-21.6-8.2-30c-5.5-8.4-14.6-12.6-27.5-12.6c-6.9,0-12.6,1.3-16.9,4
		c-4.3,2.7-7.8,6-10.4,9.9c-2.7,4.3-4.5,9.2-5.5,14.6c-1,5.5-1.5,11.2-1.5,17.1c0,6.9,0.2,12.7,0.7,17.4c0.5,4.6,1.7,8.8,3.7,12.4
		c2,3.6,4.9,6.8,8.7,9.4c3.8,2.7,9,5.3,15.6,7.9l38.7,15.4c11.2,4.3,20.3,9.3,27.3,15.1c6.9,5.8,12.4,12.5,16.4,20.1
		c3.6,7.9,6.1,16.9,7.4,27c1.3,10.1,2,21.6,2,34.5c0,14.9-1.5,28.7-4.5,41.4c-3,12.7-7.8,23.6-14.4,32.5c-6.9,9.3-16,16.5-27.3,21.8
		c-11.2,5.3-25,7.9-41.2,7.9c-12.2,0-23.6-2.2-34.2-6.4c-10.6-4.3-19.7-10.2-27.3-17.9c-7.6-7.6-13.6-16.4-18.1-26.5
		c-4.5-10.1-6.7-21.1-6.7-33v-18.8h50.6v15.9c0,9.3,2.7,17.6,8.2,25c5.5,7.4,14.6,11.2,27.5,11.2c8.6,0,15.3-1.2,20.1-3.7
		c4.8-2.5,8.5-6,11.2-10.7c2.6-4.6,4.2-10.2,4.7-16.6s0.7-13.6,0.7-21.6c0-9.3-0.3-16.9-1-22.8c-0.7-6-2-10.7-4-14.4
		c-2.3-3.6-5.4-6.6-9.2-8.9c-3.8-2.3-8.8-4.8-15.1-7.4l-36.2-14.9c-21.8-8.9-36.5-20.7-43.9-35.5c-7.4-14.7-11.2-33.1-11.2-55.3
		c0-13.2,1.8-25.8,5.5-37.7c3.6-11.9,9.1-22.1,16.4-30.8c6.9-8.6,15.8-15.5,26.5-20.6c10.7-5.1,23.6-7.7,38.4-7.7
		c12.6,0,24.1,2.3,34.5,6.9c10.4,4.6,19.4,10.7,27,18.4c15.2,15.9,22.8,34.1,22.8,54.6V129.1z"/>
</g>
<g>
	<g>
		<path class="st1" d="M175.7,436.5v81.8c0,19.9-7.1,40-21.2,54.1s-31.2,21.2-51.1,21.2c-12.7,0-24.6-3.2-35.9-9.7
			c-11.8-6.6-20.7-15.4-26.7-26.2c-1.2-2.3-1.8-4.3-1.8-6.3c0-3.2,1.3-6.1,3.9-8.5c2.6-2.5,5.5-3.7,8.7-3.7c3.6,0,7,2.1,10.1,6.3
			c12,16,25.9,24,41.7,24c13.3,0,24.7-4.7,34.1-14.2c9.4-9.4,14.2-16.8,14.2-30.1v-5.5c-13.7,12.4-29.8,18.7-48.2,18.7
			c-19.9,0-37-7.1-51.1-21.2C38.1,503,31,486,31,466v-29.5c0-8,4-12.1,12.1-12.1c8,0,12.1,4,12.1,12.1v29.4
			c0,13.3,4.7,24.7,14.2,34.1c9.4,9.4,20.8,14.2,34.1,14.2c13.3,0,24.7-4.7,34.1-14.2c9.4-9.4,14.2-18.7,14.2-31.9v-31.6
			c0-8,4-12.1,12.1-12.1C171.7,424.4,175.7,428.4,175.7,436.5z"/>
		<path class="st1" d="M362.6,517c0,21.1-7.5,39.2-22.4,54.1c-14.9,14.9-32.9,22.4-54,22.4c-21.1,0-39.1-7.5-54-22.4
			c-14.9-14.9-22.4-32.9-22.4-54.1v-16.5c0-8,4-12.1,12.1-12.1c8,0,12.1,4,12.1,12.1V517c0,14.4,5.1,26.7,15.4,37
			c10.2,10.3,22.5,15.4,36.9,15.4c14.4,0,26.7-5.1,36.9-15.4c10.2-10.2,15.4-22.6,15.4-37v-16.5c0-8,4-12.1,12.1-12.1
			c8,0,12.1,4,12.1,12.1V517z"/>
		<path class="st1" d="M563.7,581.4c0,8.1-4,12.1-12.1,12.1s-12.1-4-12.1-12.1V472.7c0-6.7-2.4-12.3-7.1-17.1
			c-4.7-4.7-10.4-7.1-17-7.1c-6.6,0-12.3,2.4-17,7.1c-4.7,4.7-7.1,10.4-7.1,17.1v108.7c0,8.1-4,12.1-12.1,12.1s-12.1-4-12.1-12.1
			V472.7c0-6.7-2.4-12.3-7.1-17.1c-4.7-4.7-10.4-7.1-17-7.1c-6.6,0-12.3,2.4-17,7.1c-4.7,4.7-7.1,10.4-7.1,17.1v108.7
			c0,8.1-4,12.1-12.1,12.1s-12.1-4-12.1-12.1V436.5c0-8,4-12.1,12.1-12.1c5.6,0,9.3,2.4,11.1,7.2c7.6-4.8,16-7.2,25.1-7.2
			c14.5,0,26.5,5.5,36.2,16.4c9.6-10.9,21.7-16.4,36.2-16.4c13.3,0,24.7,4.7,34.1,14.2c9.4,9.4,14.2,20.8,14.2,34.1V581.4z"/>
	</g>
	<circle class="st1" cx="222" cy="437.4" r="12"/>
	<circle class="st1" cx="350" cy="437.4" r="12"/>
</g>
<g>
	<g>
		<path class="st1" d="M784.9,436.5v81.8c0,19.9-7.1,40-21.2,54.1s-31.2,21.2-51.1,21.2c-12.7,0-24.6-3.2-35.9-9.7
			c-11.8-6.6-20.7-15.4-26.7-26.2c-1.2-2.3-1.8-4.3-1.8-6.3c0-3.2,1.3-6.1,3.9-8.5c2.6-2.5,5.5-3.7,8.7-3.7c3.6,0,7,2.1,10.1,6.3
			c12,16,25.9,24,41.7,24c13.3,0,24.7-4.7,34.1-14.2c9.4-9.4,14.2-16.8,14.2-30.1v-5.5c-13.7,12.4-29.8,18.7-48.2,18.7
			c-19.9,0-37-7.1-51.1-21.2C647.3,503,640.2,486,640.2,466v-29.5c0-8,4-12.1,12.1-12.1c8,0,12.1,4,12.1,12.1v29.4
			c0,13.3,4.7,24.7,14.2,34.1c9.4,9.4,20.8,14.2,34.1,14.2c13.3,0,24.7-4.7,34.1-14.2c9.4-9.4,14.2-18.7,14.2-31.9v-31.6
			c0-8,4-12.1,12.1-12.1C780.9,424.4,784.9,428.4,784.9,436.5z"/>
		<path class="st1" d="M971.8,517c0,21.1-7.5,39.2-22.4,54.1c-14.9,14.9-32.9,22.4-54,22.4c-21.1,0-39.1-7.5-54-22.4
			C826.5,556.1,819,538.1,819,517v-16.5c0-8,4-12.1,12.1-12.1c8,0,12.1,4,12.1,12.1V517c0,14.4,5.1,26.7,15.4,37
			c10.2,10.3,22.5,15.4,36.9,15.4c14.4,0,26.7-5.1,36.9-15.4c10.2-10.2,15.4-22.6,15.4-37v-16.5c0-8,4-12.1,12.1-12.1
			c8,0,12.1,4,12.1,12.1V517z"/>
		<path class="st1" d="M1172.9,581.4c0,8.1-4,12.1-12.1,12.1s-12.1-4-12.1-12.1V472.7c0-6.7-2.4-12.3-7.1-17.1
			c-4.7-4.7-10.4-7.1-17-7.1c-6.6,0-12.3,2.4-17,7.1c-4.7,4.7-7.1,10.4-7.1,17.1v108.7c0,8.1-4,12.1-12.1,12.1s-12.1-4-12.1-12.1
			V472.7c0-6.7-2.4-12.3-7.1-17.1c-4.7-4.7-10.4-7.1-17-7.1c-6.6,0-12.3,2.4-17,7.1c-4.7,4.7-7.1,10.4-7.1,17.1v108.7
			c0,8.1-4,12.1-12.1,12.1s-12.1-4-12.1-12.1V436.5c0-8,4-12.1,12.1-12.1c5.6,0,9.3,2.4,11.1,7.2c7.6-4.8,16-7.2,25.1-7.2
			c14.5,0,26.5,5.5,36.2,16.4c9.6-10.9,21.7-16.4,36.2-16.4c13.3,0,24.7,4.7,34.1,14.2c9.4,9.4,14.2,20.8,14.2,34.1V581.4z"/>
	</g>
	<circle class="st1" cx="831.2" cy="437.4" r="12"/>
	<circle class="st1" cx="959.2" cy="437.4" r="12"/>
</g>
<g>
	<path class="st1" d="M599.7,195.6h65.4c1.7-48.8,22.1-92.9,54.4-125.1c0.3-0.3,0.6-0.6,0.9-0.9c-31.5-30.1-73.9-48.9-120.7-50
		V195.6z"/>
	<path class="st1" d="M675.1,195.6h101.3c-1.2-46-19.6-87.6-49-118.9c-0.3,0.3-0.6,0.6-0.9,0.9C696.1,108,676.8,149.5,675.1,195.6z"
		/>
	<path class="st1" d="M776.4,205.6H675c0.9,46.9,20.2,89.3,51,120.4C756.2,294.5,775.2,252.3,776.4,205.6z"/>
	<path class="st1" d="M471.5,70.5c32.2,32.2,52.7,76.3,54.4,125.1h63.8V19.7c-46.1,1.5-87.9,20.2-119.1,49.9
		C470.9,69.9,471.2,70.2,471.5,70.5z"/>
	<path class="st1" d="M414.6,205.6c1.3,46.7,20.2,89,50.4,120.4c30.8-31,50.1-73.4,51-120.4H414.6z"/>
	<path class="st1" d="M589.7,205.6H526c-0.9,49.6-21.3,94.6-53.9,127.4c31,28.9,72.2,47.1,117.6,48.5V205.6z"/>
	<path class="st1" d="M665,205.6h-65.3v175.9c46-1,87.8-19.3,119.2-48.6C686.4,300.1,666,255.2,665,205.6z"/>
	<path class="st1" d="M515.9,195.6c-1.7-46.1-21-87.6-51.4-118c-0.3-0.3-0.6-0.6-0.9-0.9c-29.4,31.3-47.7,72.9-49,118.9H515.9z"/>
</g>
</svg>
