<?xml version="1.0" encoding="utf-8"?>
<!-- Generator: Adobe Illustrator 25.0.0, SVG Export Plug-In . SVG Version: 6.00 Build 0)  -->
<svg version="1.1" xmlns="http://www.w3.org/2000/svg" xmlns:xlink="http://www.w3.org/1999/xlink" x="0px" y="0px"
	 viewBox="0 0 100 100" style="enable-background:new 0 0 100 100;" xml:space="preserve">
<style type="text/css">
	.st0{fill:#FFFFFF;}
</style>
<g id="Layer_1">
	<g>
		<path class="st0" d="M78.3,16.7c-0.5-0.2-1-0.3-1.4-0.5c-4.2-1.6-14-5.2-14.1-5.2c-0.1-0.1-0.3-0.1-0.4,0s-0.2,0.2-0.3,0.4
			c-0.5,3.2-7,5.7-12.2,5.7s-11.6-2.5-12.2-5.7c0-0.2-0.1-0.3-0.3-0.4c-0.1-0.1-0.3-0.1-0.4,0c-0.1,0-9.9,3.6-14.1,5.2
			c-0.4,0.2-0.9,0.3-1.4,0.5c-4.4,1.4-10.5,7.2-13.5,28c0,0.2,0,0.3,0.1,0.4c0.1,0.1,5.8,2.9,13,2.9c0.8,0,1.6,0,2.5-0.1
			c0.2,0,0.4-0.2,0.5-0.4c0,0,0.3-4.5,0.6-6.2c0.6,0.9,1.5,1.2,1.5,7.2l0,5.2c0,12.7-0.9,25.2-1.4,33.5c0,0.2,0.1,0.4,0.3,0.5
			c0.2,0.1,7.2,2.3,24.4,2.4h0.2H50c17.2,0,24.6-2.3,24.8-2.4c0.2-0.1,0.3-0.3,0.3-0.5c-0.5-8.3-1.5-20.8-1.4-33.5l0-5.2
			c0-6.1,0.9-6.4,1.5-7.2c0.3,1.7,0.6,6.2,0.6,6.2c0,0.2,0.2,0.4,0.5,0.4C77,48,77.9,48,78.7,48c0,0,0,0,0,0c7.2,0,12.9-2.8,13-2.9
			c0.1-0.1,0.2-0.3,0.1-0.4C88.8,23.9,82.7,18.1,78.3,16.7z M37,12.2c1,3.4,7.6,5.9,13,5.9s12-2.5,13-5.9c0.4,0.2,1,0.4,1.7,0.7
			c-0.5,3.5-7.6,7.1-14.6,7.1S35.9,16.4,35.4,13C36,12.6,36.6,12.4,37,12.2z M23.3,46.9c-0.7,0-1.4,0.1-2,0.1
			c-5.7,0-11.4-1.9-12.1-2.4c0-0.3,0.1-0.6,0.2-1c1,0.8,6.8,2.5,12.4,2.5c0.5,0,1.1,0,1.7-0.1C23.4,46.4,23.4,46.7,23.3,46.9z
			 M50,89h-0.2h-0.2c-14.6,0-22.3-1.7-23.6-2.2c0-0.4,0-0.8,0.1-1.2c1.5,0.5,9.3,2.2,24,2.2l0,0c0,0,0,0,0,0s0,0,0,0h0
			c14.8,0,22.5-1.7,24-2.2c0,0.4,0,0.8,0.1,1.2C72.7,87.3,64.7,89,50,89z M76,40.2c0-0.1-0.1-0.2-0.2-0.3c-0.1-0.1-0.2-0.1-0.4-0.1
			c-0.5,0.1-2.7-1-2.7,8.7l0,5.2c0,11.7,0.9,21.7,1.3,31.4c-1,0.4-8.7,2.2-24,2.2c0,0,0,0,0,0c0,0,0,0,0,0c-15.3,0-23-1.8-24-2.2
			c0.4-9.7,1.4-19.7,1.3-31.4l0-5.2c0-9.7-2.3-8.6-2.7-8.7c-0.1,0-0.3,0-0.4,0.1c-0.1,0.1-0.2,0.2-0.2,0.3c-0.1,0.8-0.3,4.1-0.5,5.2
			c-7.3,0.4-13.5-2-14.1-2.5c3-18.3,8.5-24,12.5-25.2c0.5-0.2,1-0.3,1.5-0.5c2.6-1,8.7-2.8,11.4-4c0.8,4.5,9.3,7.4,15.2,7.4
			s14.4-3,15.2-7.4c2.7,1.2,8.7,3,11.4,4c0.5,0.2,0.9,0.3,1.5,0.5c4,1.2,9.5,6.9,12.5,25.2c-0.6,0.5-6.7,2.9-14.1,2.5
			C76.3,44.3,76.1,41,76,40.2z M78.7,47c-0.6,0-1.3,0-2-0.1c0-0.2-0.1-0.6-0.1-0.9c0.6,0,1.1,0.1,1.7,0.1c5.6,0,11.4-1.7,12.4-2.5
			c0.1,0.3,0.1,0.6,0.2,1C90.1,45.1,84.4,47,78.7,47z"/>
	</g>
</g>
<g id="Layer_2">
</g>
</svg>
