<?xml version="1.0" encoding="utf-8"?>
<!-- Generator: Adobe Illustrator 25.0.0, SVG Export Plug-In . SVG Version: 6.00 Build 0)  -->
<svg version="1.1" xmlns="http://www.w3.org/2000/svg" xmlns:xlink="http://www.w3.org/1999/xlink" x="0px" y="0px"
	 viewBox="0 0 100 100" style="enable-background:new 0 0 100 100;" xml:space="preserve">
<style type="text/css">
	.st0{fill:#FFFFFF;}
</style>
<g id="Layer_1">
	<g>
		<path class="st0" d="M78.3,10.7c-0.5-0.2-1-0.3-1.4-0.5c-4.2-1.6-16-5.2-16.1-5.2c-0.1-0.1-0.3-0.1-0.4,0s-0.2,0.2-0.3,0.4
			c-0.5,3.2-5,5.7-10.2,5.7s-9.6-2.5-10.2-5.7c0-0.2-0.1-0.3-0.3-0.4C39.4,5,39.3,5,39.1,5c-0.1,0-11.9,3.6-16.1,5.2
			c-0.4,0.2-0.9,0.3-1.4,0.5c-4.4,1.4-10.5,7.2-13.5,28c0,0.2,0,0.3,0.1,0.4c0.1,0.1,4.8,2.9,12,2.9c0.8,0,1.6,0,2.5-0.1
			c0.2,0,0.4-0.2,0.5-0.4c0,0,0.3-4.5,0.6-6.2c0.6,0.9,1.5,1.2,1.5,7.2l0,5.2c0,12.7,0.1,36.2-0.4,44.5c0,0.2,0.1,0.4,0.3,0.5
			c0.2,0.1,7.2,2.3,24.4,2.4h0.2H50c17.2,0,24.6-2.3,24.8-2.4c0.2-0.1,0.3-0.3,0.3-0.5c-0.5-8.3-0.5-31.8-0.4-44.5l0-5.2
			c0-6.1,0.9-6.4,1.5-7.2c0.3,1.7,0.6,6.2,0.6,6.2c0,0.2,0.2,0.4,0.5,0.4C78,42,78.9,42,79.7,42c0,0,0,0,0,0c7.2,0,11.9-2.8,12-2.9
			c0.1-0.1,0.2-0.3,0.1-0.4C88.8,17.9,82.7,12.1,78.3,10.7z M39,6.2c1,3.4,5.6,5.9,11,5.9s10-2.5,11-5.9c0.4,0.2,1,0.4,1.7,0.7
			c-0.5,3.5-5.6,7.1-12.6,7.1S37.9,10.4,37.4,7C38,6.6,38.6,6.4,39,6.2z M22.3,40.9c-0.7,0-1.4,0.1-2,0.1c-5.7,0-10.4-1.9-11.1-2.4
			c0-0.3,0.1-0.6,0.2-1c1,0.8,5.8,2.5,11.4,2.5c0.5,0,1.1,0,1.7-0.1C22.4,40.4,22.4,40.7,22.3,40.9z M50,94h-0.2h-0.2
			c-14.6,0-22.3-1.7-23.6-2.2c0-0.4,0-0.8,0.1-1.2c1.5,0.5,9.3,2.2,24,2.2l0,0c0,0,0,0,0,0s0,0,0,0h0c14.8,0,22.5-1.7,24-2.2
			c0,0.4,0,0.8,0.1,1.2C72.7,92.3,64.7,94,50,94z M77,34.2c0-0.1-0.1-0.2-0.2-0.3c-0.1-0.1-0.2-0.1-0.4-0.1c-0.5,0.1-2.7-1-2.7,8.7
			l0,5.2c0,11.7-0.1,32.7,0.3,42.4c-1,0.4-8.7,2.2-24,2.2c0,0,0,0,0,0c0,0,0,0,0,0c-15.3,0-23-1.8-24-2.2c0.4-9.7,0.4-30.7,0.3-42.4
			l0-5.2c0-9.7-2.3-8.6-2.7-8.7c-0.1,0-0.3,0-0.4,0.1c-0.1,0.1-0.2,0.2-0.2,0.3c-0.1,0.8-0.3,4.1-0.5,5.2c-7.3,0.4-12.5-2-13.1-2.5
			c3-18.3,8.5-24,12.5-25.2c0.5-0.2,1-0.3,1.5-0.5c2.6-1,10.7-2.8,13.4-4c0.8,4.5,7.3,7.4,13.2,7.4s12.4-3,13.2-7.4
			c2.7,1.2,10.7,3,13.4,4c0.5,0.2,0.9,0.3,1.5,0.5c4,1.2,9.5,6.9,12.5,25.2c-0.6,0.5-5.7,2.9-13.1,2.5C77.3,38.3,77.1,35,77,34.2z
			 M79.7,41c-0.6,0-1.3,0-2-0.1c0-0.2-0.1-0.6-0.1-0.9c0.6,0,1.1,0.1,1.7,0.1c5.6,0,10.4-1.7,11.4-2.5c0.1,0.3,0.1,0.6,0.2,1
			C90.1,39.1,85.4,41,79.7,41z"/>
	</g>
</g>
<g id="Layer_2">
</g>
</svg>
