<?xml version="1.0" encoding="utf-8"?>
<!-- Generator: Adobe Illustrator 25.0.0, SVG Export Plug-In . SVG Version: 6.00 Build 0)  -->
<svg version="1.1" id="Layer_1" xmlns="http://www.w3.org/2000/svg" xmlns:xlink="http://www.w3.org/1999/xlink" x="0px" y="0px"
	 viewBox="0 0 100 100" style="enable-background:new 0 0 100 100;" xml:space="preserve">
<style type="text/css">
	.st0{fill:#FFFFFF;}
</style>
<g>
	<path class="st0" d="M89.7,36c-0.1-0.1-5.4-8.9-6.1-16.4c-0.6-6.1-3.7-9.9-9.1-11.4C70.3,7.1,61.5,2.7,62.3,3C62.2,3,62,3,61.8,3.1
		c-0.1,0.1-0.2,0.2-0.2,0.4C61.3,9,56.2,10.9,50,10.9S38.7,9,38.4,3.5c0-0.2-0.1-0.3-0.2-0.4C38,3,37.8,3,37.7,3
		c0.8-0.4-8,4.1-12.1,5.2c-5.4,1.5-8.5,5.3-9.1,11.4c-0.8,7.6-6.1,16.3-6.1,16.4c-0.1,0.2-0.1,0.4,0,0.6c0.2,0.2,5,6,13.5,6
		c1.1,0,2.1-0.1,3.2-0.3c0.5,3.8,3.5,34.2-0.8,51.1c-0.1,0.2,0,0.4,0.2,0.5c0.3,0.2,6.2,3.1,23.4,3.1c17.2,0,23.5-2.9,23.8-3.1
		c0.2-0.1,0.3-0.3,0.2-0.5c-4.4-16.9-1.4-47.2-0.8-51.1c1.1,0.2,2.2,0.3,3.2,0.3c0,0,0,0,0,0c8.4,0,13.3-5.7,13.5-6
		C89.8,36.4,89.8,36.2,89.7,36z M37.5,4.2c0.7,5.7,6,7.7,12.5,7.7s11.9-2,12.6-7.7C63.1,4.5,63,4.8,64,5.3c-1.2,6.5-6.6,8.4-14,8.4
		c-7.4,0-12.8-1.8-14-8.3C37,4.9,36.9,4.5,37.5,4.2z M23.8,41.6c-7,0-11.4-4.2-12.5-5.3c0.1-0.2,0.4-0.6,0.6-1.1
		c4.3,3.7,7.3,4.9,11.8,4.9c1,0,2.1-0.1,3.1-0.3c0.1,0,0.1-0.1,0.1-0.1c0.1,0.8,0.2,1.3,0.2,1.6C26.1,41.4,25,41.6,23.8,41.6z
		 M49.8,96c-15,0-21.1-1.9-22.5-2.7c0.1-0.4,0.2-0.8,0.3-1.2c2.6,1.4,8.7,2.5,22.2,2.5c13.7,0,20.1-1.1,22.7-2.5
		c0.1,0.4,0.2,0.8,0.3,1.2C71.2,94.1,64.8,96,49.8,96z M72.3,91.5c-2.4,1.3-8.8,2.5-22.5,2.5c-13.7,0-19.7-1.1-22.1-2.5
		c4-18.4,0.3-49.6,0.3-49.9c0-0.1,0-0.1-0.1-0.2c0,0,0-0.1,0-0.1c0-0.1-0.7-5.7-2.2-11.4c0-0.2-0.2-0.3-0.4-0.2
		c-0.2,0-0.3,0.2-0.2,0.4c0.9,3.5,1.5,6.9,1.8,9.1c-0.1,0-0.1,0-0.2,0c-1,0.2-2,0.3-3,0.3c-4.4,0-7.3-1.2-11.5-4.8c0,0-0.1,0-0.1,0
		c1.6-3.1,4.6-9.2,5.2-14.9c0.6-5.7,3.3-9.1,8.4-10.5c2-0.5,6.3-2.3,9.5-3.6c1.3,6.7,6.9,8.7,14.6,8.7c7.7,0,13.3-2,14.6-8.7
		c3.2,1.3,7.6,3.1,9.6,3.7c5.1,1.4,7.8,4.8,8.4,10.5c0.6,5.8,3.6,12.1,5.3,15.1c-3.6,3-7.6,4.7-11.7,4.7c-1,0-2-0.1-3-0.3
		c-0.1,0-0.2,0-0.2,0.1c0.3-2.2,1-5.6,1.8-9.1c0-0.2-0.1-0.3-0.2-0.4c-0.2,0-0.3,0.1-0.4,0.2C72.8,35.6,72,41.3,72,41.3
		c0,0.1,0,0.1,0,0.2c0,0,0,0.1-0.1,0.1C72,41.9,68.3,73.1,72.3,91.5z M76.2,41.6c-1.2,0-2.3-0.1-3.5-0.3c0-0.3,0.1-0.8,0.2-1.6
		c0,0.1,0.1,0.1,0.2,0.1c1,0.2,2.1,0.3,3.1,0.3c4.2,0,8.3-1.6,11.9-4.7c0.2,0.4,0.4,0.7,0.5,0.9C87.6,37.3,83.1,41.6,76.2,41.6z"/>
</g>
</svg>
