<?xml version="1.0" encoding="utf-8"?>
<!-- Generator: Adobe Illustrator 25.0.0, SVG Export Plug-In . SVG Version: 6.00 Build 0)  -->
<svg version="1.1" id="Layer_1" xmlns="http://www.w3.org/2000/svg" xmlns:xlink="http://www.w3.org/1999/xlink" x="0px" y="0px"
	 viewBox="0 0 74.4 100" style="enable-background:new 0 0 74.4 100;" xml:space="preserve">
<style type="text/css">
	.st0{fill:#FFFFFF;}
</style>
<g>
	<path class="st0" d="M74,34.1c-0.1-0.1-3.4-7.9-4.1-15.4c-0.6-6.1-3.7-9.6-9.2-11c-6-1.2-12.9-3.9-12.1-3.5c-0.1-0.1-0.3-0.1-0.5,0
		C48,4.2,48,4.3,47.9,4.5C47.7,10,43.5,11,37.3,11S27,10,26.7,4.5c0-0.2-0.1-0.3-0.2-0.4C26.4,4,26.2,4,26,4.1
		c1.4-0.6-4.5,2.1-11.8,3.3c-5.4,1.5-8.9,5.2-9.5,11.3C4,26.2,0.7,34,0.7,34.1c-0.1,0.2-0.1,0.4,0,0.6c0.2,0.2,3,6,11.5,6
		c1.1,0,2.1-0.1,3.2-0.3c2.6,5.9,11,10.5-3.8,49.1c-0.1,0.2,0,0.4,0.2,0.5C12,90.1,19.9,96,37.1,96c17.2,0,26.5-5.9,26.8-6.1
		c0.2-0.1,0.3-0.3,0.2-0.5c-12.4-38.9-7-44.9-4.8-49.1c1.1,0.2,2.2,0.3,3.2,0.3c0,0,0,0,0,0c8.4,0,11.3-5.7,11.5-6
		C74.1,34.5,74.1,34.2,74,34.1z M26.1,4.7c0.7,5.7,4.8,6.8,11.2,6.8s10.6-1.2,11.3-6.8c0.6,0.2,0.6,0.2,1.7,0.6
		c-1.2,6.5-8.4,7.2-13,7.4c-5.1,0.1-11.9-0.7-13.1-7.2C25.3,5,25.5,5,26.1,4.7z M12.2,39.6c-7,0-9.4-4.2-10.5-5.3
		c0.1-0.2,0.1-0.9,0.4-1.3c4.3,3.7,5.6,5.1,10.1,5.1c1,0,2.1-0.1,3.1-0.3c0.1,0,0.1-0.1,0.1-0.1c0.1,0.8,0.2,1.3,0.2,1.6
		C14.5,39.5,13.3,39.6,12.2,39.6z M37.1,95c-15,0-23.1-4.9-24.5-5.7c0.1-0.4,0.2-0.8,0.3-1.2c2.6,1.4,10.7,5.5,24.2,5.5
		c13.7,0,23.1-4.1,25.7-5.5c0.1,0.4,0.2,0.8,0.3,1.2C61.6,90.2,52.1,95,37.1,95z M62.7,87.5C60.2,88.8,50.9,93,37.1,93
		c-13.7,0-21.7-4.1-24.1-5.5c14.5-35.1,3.6-46.7,3.6-46.9c0-0.1,0-0.1-0.1-0.2c0,0,0-0.1,0-0.1c0-0.1-1-5.6-2.5-11.3
		c0-0.2-0.2-0.3-0.4-0.2c-0.2,0-0.3,0.2-0.2,0.4c0.9,3.5,1.5,5.9,1.8,8.1c-0.1,0-0.1,0-0.2,0c-1,0.2-2,0.3-3,0.3
		c-4.4,0-5.3-1.2-9.5-4.8c0,0-0.3-0.2-0.3-0.3c1.4-3.5,2.5-7.8,3.4-13.7C6.4,13,9.1,9.6,14.2,8.2c2-0.5,6.3-1.2,9.5-2.5
		c1.3,6.7,8.9,7.6,13.6,7.6c4.2,0,12.2-1,13.5-7.7c3.2,1.3,7.7,2.1,9.7,2.7c5.1,1.4,8,4.4,8.6,10.1c1.3,6.2,1.7,9,3.2,14.3
		c-3.6,3-5.7,4.9-9.8,4.9c-1,0-2-0.1-3-0.3c-0.1,0-0.2,0-0.2,0.1c0.3-2.2,1-4.6,1.8-8.1c0-0.2-0.1-0.3-0.2-0.4
		c-0.2,0-0.3,0.1-0.4,0.2c-1.5,5.7-2.2,10.3-2.2,10.4c0,0.1,0,0.1,0,0.2c0,0,0,0.1-0.1,0.1C58.3,39.9,49.8,51.1,62.7,87.5z
		 M62.5,39.6c-1.2,0-2.3-0.1-3.5-0.3c0-0.3,0.1-0.8,0.2-1.6c0,0.1,0.1,0.1,0.2,0.1c1,0.2,2.1,0.3,3.1,0.3c4.2,0,6.5-1.8,10.1-4.9
		c0.2,0.4,0.2,0.9,0.4,1.1C71.9,35.3,69.5,39.6,62.5,39.6z"/>
</g>
</svg>
